<svg xmlns="http://www.w3.org/2000/svg" width="85" height="26" fill="none"><path fill="#141414" fill-rule="evenodd" d="M5.97 20.569v-8.785c2.766 0 6.417-.54 6.418 4.392 0 4.886-3.788 4.393-6.419 4.393ZM.117 6.779C-.094 7.25.045 23.535.045 25.574h6.813c2.457 0 3.976.128 6.153-.785 7.255-3.042 7.165-14.297.01-17.235-3.007-1.234-7.751-.877-11.199-.877-.393 0-1.362-.091-1.704.102ZM20.46 6.779c-.212.472-.074 16.756-.074 18.795h5.925V18.73h5.233v6.844h5.925V7.8c.003-1.479.71-1.119-4.74-1.123-.992-.001-1.197-.273-1.187.712l.002 6.03h-5.233l.005-6.44c-.073-.47-.647-.303-1.19-.302l-3.95-.002c-.508-.005-.444-.05-.716.104ZM69.266 18.628c.001-.024.036-.074.039-.061l.053-.15c.049-.334-.094-.859.479-1.65.34-.47 1.02-.805 1.6-.802 2.893.013 2.969 5.424 0 5.428-1.178.002-2.025-.998-2.073-2.151-.006-.14-.101-.57-.098-.614Zm-5.53 7.048h5.43v-.919c.784.407 1.455 1.227 3.356 1.228 7.896.007 8.673-10.503 3.815-13.548-1.652-1.036-3.642-1.36-5.48-.744-.862.289-.84.462-1.493.908V6.677h-5.628v19ZM55.836 20.16c0 .754 0 1.517-.69 1.943-.557.346-1.558.485-2.054-.024-.451-.464-.326-1.367.302-1.687.436-.222 1.878-.232 2.442-.232Zm-7.776-7.124 1.748 3.858c2.15-1.453 5.757-1.648 5.93.406-2.332 0-6.695-.223-7.957 2.393-.47.974-.513 1.891-.28 2.96.67 3.083 4.557 3.894 6.843 3.012 1.203-.464 1.214-.833 1.887-1.623v1.634h5.234V18.22c0-3.45-1.325-5.654-4.501-6.479-.834-.216-2.408-.445-3.3-.365-.786.07-2.33.293-3.05.523-.707.225-2.004.567-2.553 1.137ZM39.938 25.676h5.628v-19h-5.628v19ZM77.363 5.655c-.35.027-.606.236-.796.607-.182.354-.155.934.08 1.256.584.797 1.188.662 1.9.18l1.011.57c-.071 1.82 1.261 1.756 1.857 1.374.462-.296.94-1.46-.104-2.146-.019-.012-.046-.024-.064-.036l-.23-1.192c.389-.355.966-.406.894-1.432-.048-.679-.526-1.146-1.191-1.131-.656.014-1.151.445-1.192 1.133-.059.982.63 1.188.896 1.43v1.021c-.018.016-.044.018-.052.048l-.54.361-.984-.519c-.004-.983-.037-1.181-.893-1.626V4.327c1.533-.12.977-3.148-.783-2.34-.563.258-.975 1.143-.566 1.796.646 1.033.757-.345.757 1.872Z" clip-rule="evenodd"/><path fill="#141414" fill-rule="evenodd" d="M81.609 2.182c.184.097.34.173.514.285l.473.328c0 .489-.001 1.463.89 1.532v1.226c-1.664.864-.76 2.436.215 2.539.51.054 1.195-.456 1.264-1.01.09-.718-.255-1.378-.887-1.427V4.327c.349-.027.605-.236.795-.607.38-.74-.144-1.71-.914-1.832-.559-.088-.704.15-1.066.396l-.982-.623c-.03-3.354-3.834-.833-1.905.647.541.416 1.062.24 1.603-.126Z" clip-rule="evenodd"/></svg>