<svg xmlns="http://www.w3.org/2000/svg" width="1569" height="1395" fill="none"><path stroke="#2B2A29" stroke-miterlimit="22.926" stroke-width="5" d="m29.29 4.028 87.766 19.98c30.233 6.882 66.309-26.281 98.471-19.98 32.165 6.3 53.276 18.242 93.118 18.242 39.843 0 54.028-17.878 93.119-18.242 39.089-.364 54.722 16.505 93.118 16.505 38.394 0 52.896-17.242 93.118-16.505 40.222.736 55.304 19.978 96.687 19.978 41.382 0 50.138-19.059 89.549-19.978 39.41-.92 58.972 15.636 96.686 15.636 37.714 0 51.75-15.813 89.55-15.636 37.8.177 56.508 16.505 94.898 16.505 38.4 0 51.15-16.956 91.34-16.505 40.19.45 61.78 18.675 102.04 18.675 40.26 0 44.53-18.488 84.19-18.675 39.67-.187 60.76 17.808 100.26 17.808 39.5 0 57.87-11.94 86.53-17.875"/><path stroke="#2B2A29" stroke-miterlimit="22.926" stroke-width="7" d="M29.788 3c-4.321 13.643-8.644 27.285-11.61 40.273-2.965 12.989-4.574 25.323-4.977 36.72-.403 11.397.403 21.854-1.608 32.314-2.012 10.458-6.838 20.917-7.51 30.704-.669 9.788 2.816 18.906 5.632 28.425 2.815 9.519 4.96 19.442 7.106 27.218 2.145 7.777 4.29 13.408 8.85 16.089 4.558 2.681 11.53 2.414 16.358 3.084 4.825.67 7.508 2.278 8.848 5.766 1.34 3.486 1.34 8.849 1.61 15.42.268 6.568.803 14.345 1.742 25.608s2.28 26.012 5.095 39.152c2.816 13.139 7.107 24.67 10.727 32.982 3.62 8.314 6.57 13.408 9.922 15.956 3.35 2.548 7.106 2.548 11.397 5.229 4.29 2.683 9.117 8.045 12.2 14.346 3.084 6.302 4.426 13.543 7.241 18.37 2.816 4.826 7.106 7.24 13.944 15.284 6.838 8.045 16.223 21.721 23.071 31.119 6.848 9.398 11.157 14.52 13.77 19.936 2.612 5.417 3.529 11.131 6.066 15.409 2.539 4.278 6.7 7.12 24.869 25.166 18.169 18.048 50.348 51.299 73.543 75.567 23.195 24.268 37.409 39.554 45.721 49.878 8.313 10.324 10.727 15.688 10.19 20.246-.535 4.559-4.021 8.313-11.395 10.86-7.375 2.547-18.638 3.889-32.18 3.486-13.542-.402-29.364-2.547-40.09-3.486-10.727-.939-16.357-.671-22.927-1.878-6.57-1.206-14.078-3.887-21.721-4.826-7.643-.938-15.419-.133-21.99 1.61-6.57 1.742-11.932 4.424-16.491 8.044-4.558 3.62-8.314 8.179-9.385 14.078-1.073 5.899.536 13.14 3.083 23.866 2.549 10.726 6.033 24.939 14.481 54.972 8.446 30.035 21.855 75.89 32.85 111.153 10.995 35.262 19.573 59.932 28.423 78.301 8.85 18.37 17.967 30.437 27.621 46.659 9.653 16.22 19.845 36.6 30.169 52.43 10.324 15.82 20.782 27.08 29.094 34.45 8.313 7.38 14.481 10.86 20.38 14.08 5.9 3.22 11.531 6.17 18.504 15.82 6.972 9.66 15.285 26.02 24.268 37.41 8.984 11.4 18.635 17.84 27.619 26.15 8.985 8.31 17.299 18.5 23.466 26.95 6.167 8.44 10.19 15.15 17.564 22.39 7.373 7.24 18.1 15.02 23.33 18.77 5.228 3.75 4.959 3.49 12.468 3.89 7.509.4 22.795 1.47 35.666 4.02 12.871 2.55 23.329 6.57 35.129 11.66 11.799 5.1 24.937 11.27 35.932 15.02 10.995 3.76 19.845 5.1 27.219 4.29 7.373-.8 13.272-3.75 17.162-3.22 3.887.54 5.765 4.56 8.849 10.86 3.084 6.31 7.374 14.89 10.592 23.87 3.218 8.99 5.364 18.37 8.58 25.88 3.219 7.51 7.509 13.14 13.007 16.89 5.497 3.76 12.202 5.63 15.823 8.58 3.62 2.95 4.155 6.98 7.641 11.4 3.486 4.43 9.921 9.25 16.759 11.53 6.838 2.28 14.078 2.01 20.38 2.01 6.303 0 11.665.27 20.247 2.55 8.58 2.28 20.378 6.57 30.704 7.11 10.324.53 19.173-2.68 30.838-5.37 11.664-2.68 26.145-4.82 41.161-6.84 15.018-2.01 30.57-3.88 46.525-4.29 15.957-.4 32.314.67 42.638-2.54 10.326-3.22 14.615-10.73 20.113-15.69 5.497-4.96 12.2-7.37 19.172-9.79 6.973-2.41 14.213-4.82 20.917-11.66 6.71-6.84 12.87-18.1 23.46-29.37 10.6-11.26 25.61-22.52 41.17-33.25 15.55-10.72 31.64-20.91 42.77-28.42 11.13-7.51 17.29-12.34 20.65-14.89 3.35-2.54 3.88-2.81 12.2-7.77 8.31-4.96 24.4-14.62 42.77-26.15 18.37-11.53 39.02-24.94 57.52-34.86 18.5-9.92 34.86-16.36 47.06-20.51 12.2-4.16 20.25-6.04 31.91-8.99 11.67-2.95 26.95-6.97 41.03-12.73 14.08-5.77 26.95-13.28 36.6-17.57 9.66-4.29 16.09-5.36 23.6-6.17 7.51-.8 16.09-1.33 20.52-5.36 4.42-4.02 4.69-11.53 6.83-21.45 2.15-9.92 6.17-22.26 7.91-32.72 1.75-10.46 1.21-19.03-1.07-26.28-2.28-7.24-6.3-13.136-9.65-18.902-3.35-5.765-6.04-11.395-6.84-20.246-.8-8.848.27-20.916-.67-30.838-.94-9.921-3.89-17.698-6.84-27.352-2.95-9.653-5.9-21.184-7.64-30.435-1.75-9.251-2.28-16.225-5.63-23.734-3.36-7.507-9.52-15.552-14.89-24.535-5.36-8.982-9.92-18.905-12.2-27.622-2.28-8.714-2.28-16.222-1.07-29.631 1.21-13.407 3.62-32.714 3.62-55.911 0-23.195-2.41-50.278-7.11-70.658-4.69-20.381-11.66-34.057-15.95-42.638-4.29-8.581-5.9-12.067-5.36-17.028.53-4.961 3.21-11.396 4.15-22.391.94-10.995.14-26.547-.4-37.274-.54-10.726-.8-16.625-.54-21.586.27-4.961 1.08-8.983 1.75-13.811.67-4.826 1.2-10.458 2.14-17.028.94-6.569 2.28-14.078 4.43-25.073 2.14-10.995 5.09-25.474 7.37-34.861 2.28-9.385 3.89-13.676 6.84-15.284 2.95-1.609 7.24-.537 10.19.803 2.95 1.342 4.56 2.952 8.71 3.755 4.16.805 10.86.805 17.3 3.486 6.44 2.683 12.6 8.045 21.32 12.871 8.71 4.828 19.98 9.118 30.3 11.666 10.33 2.548 19.71 3.352 28.16 4.827 8.44 1.476 15.95 3.62 20.91.268 4.97-3.352 7.38-12.2 10.73-27.352 3.35-15.151 7.64-36.604 11.13-48.671 3.48-12.067 6.17-14.749 7.11-18.771.93-4.023.13-9.385.53-16.358.4-6.972 2.01-15.551 3.08-23.463 1.08-7.911 1.61-15.151-.67-23.599-2.27-8.448-7.37-18.101-8.71-27.888-1.34-9.788 1.07-19.71 2.01-29.766.94-10.055.4-20.245.67-29.497.27-9.251 1.34-17.563.13-25.475-1.2-7.911-4.69-15.419-6.3-22.659-1.6-7.241-1.34-14.213-3.75-22.257-2.41-8.045-7.51-17.162-11.26-24-3.76-6.838-6.17-11.397-4.29-18.235 1.87-6.838 8.04-15.955 10.32-25.207 2.28-9.251.67-18.636-3.82-27.298-4.49-8.66-11.87-16.598-19.24-24.534"/><path stroke="#2B2A29" stroke-miterlimit="22.926" stroke-width="7" d="M155.311 446.062c6.679-13.19 13.358-26.379 16.699-39.678 3.338-13.298 3.338-26.707-.146-39.042-3.486-12.336-10.459-23.597-20.917-30.837-10.458-7.241-24.402-10.459-29.229-16.895-4.828-6.435-.537-16.09 3.754-26.28 4.289-10.19 8.58-20.916 7.508-34.056-1.073-13.14-7.508-28.693-13.944-51.218-6.437-22.526-12.871-52.022-20.648-74.012-7.777-21.989-16.895-36.47-26.817-53.633-9.922-17.16-20.648-37.005-27.829-50.183C36.561 17.05 32.926 10.54 29.29 4.028"/><path stroke="#2B2A29" stroke-miterlimit="22.926" stroke-width="5" d="m145.079 138.505 84.47-98.146M147.492 79.778l106.996 160.091M195.762 219.756l97.341-116.65M287.472 133.679l-78.034-94.126"/><path fill="#2B2A29" stroke="#2B2A29" stroke-miterlimit="22.926" stroke-width="5" d="M244.157 120.146c0-.959-4.364-1.737-9.747-1.737-5.382 0-9.746.778-9.746 1.737 0 .96 4.364 1.737 9.746 1.737 5.383 0 9.747-.777 9.747-1.737ZM205.225 119.797c0-.959-4.363-1.737-9.746-1.737s-9.747.778-9.747 1.737c0 .96 4.364 1.738 9.747 1.738s9.746-.778 9.746-1.738ZM229.798 154.037c0-.959-4.364-1.737-9.747-1.737s-9.746.778-9.746 1.737c0 .96 4.363 1.738 9.746 1.738s9.747-.778 9.747-1.738Z"/><path stroke="#2B2A29" stroke-miterlimit="22.926" stroke-width="5" d="m909.638 115.059 31.566-.311-48.565 75.745-32.841 1.302 49.84-76.736ZM725.303 115.219l31.565-.311-48.565 75.746-32.84 1.3 49.84-76.735ZM789.128 114.484l31.565-.311-36.587 57.066-11.978 18.681-32.84 1.3 49.84-76.736ZM1557.16 168.266l-13.36 20.841-32.84 1.3 38-58.508c.86 6.303 1.03 8.952 2.26 13.66l5.94 22.707ZM848.999 114.971l31.565-.311L832 190.407l-32.841 1.3 49.84-76.736ZM1169.33 114.709l31.57-.311-48.57 75.747-32.84 1.3 49.84-76.736ZM1105.71 115.272l31.57-.311-48.57 75.746-32.84 1.3 49.84-76.735ZM1040.41 114.79l31.57-.311-48.56 75.747-32.845 1.3 49.835-76.736ZM331.299 113.872l31.565-.311-48.565 75.747-32.841 1.3 49.841-76.736ZM1230.63 114.691l31.56-.311-48.56 75.746-32.84 1.3 49.84-76.735ZM1290.96 115.144l31.56-.311-48.56 75.747-32.84 1.3 49.84-76.736ZM1344.41 114.296l31.57-.313-48.57 75.747-32.84 1.301 49.84-76.735ZM1399.1 114.504l31.56-.311-48.56 75.745-32.84 1.3 49.84-76.734ZM1453.54 114.172l31.56-.311-48.56 75.745-32.84 1.302 49.84-76.736ZM1507.98 114.04l31.57-.311-48.57 75.745-32.84 1.3 49.84-76.734ZM613.668 114.147l31.566-.311-48.565 75.745-32.841 1.3 49.84-76.734ZM553.96 113.933l31.566-.311-48.565 75.746-32.841 1.301 49.84-76.736ZM669.848 114.911l31.566-.311-48.565 75.746-32.841 1.3 49.84-76.735ZM973.409 114.508l31.561-.311-48.561 75.747-32.842 1.3 49.842-76.736ZM496.851 113.338l31.565-.311-48.564 75.745-32.841 1.3 49.84-76.734ZM440.469 114.025l31.565-.311-48.565 75.746-32.842 1.3 49.842-76.735ZM384.226 113.677l31.566-.313-48.565 75.747-32.841 1.3 49.84-76.734ZM895.78 442.086l26.361-.204-40.557 49.719-27.426.854 41.622-50.369ZM741.838 442.192l26.362-.205-40.558 49.719-27.426.853 41.622-50.367ZM795.139 441.709l26.361-.203-30.555 37.455-10.003 12.263-27.426.854 41.623-50.369ZM845.139 442.029l26.36-.205-40.557 49.72-27.426.852 41.623-50.367ZM1112.66 441.858l26.36-.205-40.56 49.719-27.43.853 41.63-50.367ZM1059.53 442.226l26.36-.204-40.56 49.719-27.43.853 41.63-50.368ZM1005 441.911l26.36-.205-40.562 49.718-27.426.854L1005 441.911ZM412.796 441.308l26.36-.205-40.558 49.719-27.426.853 41.624-50.367ZM1163.85 441.845l26.36-.205-40.56 49.719-27.43.854 41.63-50.368ZM1214.23 442.142l26.36-.204-40.56 49.719-27.42.853 41.62-50.368ZM1258.87 441.586l26.36-.205-40.55 49.72-27.43.852 41.62-50.367ZM1304.54 441.722l26.36-.205-40.56 49.72-27.42.853 41.62-50.368ZM1350 441.504l26.36-.205-40.55 49.719-27.43.854 41.62-50.368ZM1374.01 491.158l-20.16.627 24.21-29.3-4.05 28.673ZM648.609 441.487l26.362-.205-40.558 49.719-27.426.854 41.622-50.368ZM598.745 441.347l26.361-.203-40.557 49.718-27.427.854 41.623-50.369ZM695.526 441.989l26.361-.204-40.558 49.719-27.426.853 41.623-50.368ZM949.036 441.725l26.361-.204-40.557 49.719-27.426.853 41.622-50.368ZM551.052 440.956l26.362-.204-40.558 49.719-27.427.854 41.623-50.369ZM503.966 441.407l26.36-.204-40.556 49.719-27.426.853 41.622-50.368ZM456.997 441.178l26.361-.204-40.558 49.719-27.426.854 41.623-50.369ZM838.221 519.523l26.36-.204-40.557 49.719-27.426.853 41.623-50.368ZM684.278 519.628l26.362-.205-40.558 49.72-27.426.853 41.622-50.368ZM737.579 519.146l26.362-.204-30.555 37.457-10.004 12.262-27.426.854 41.623-50.369ZM1373.18 560.785l-5.35 7.343-27.43.852 31.89-38.592.89 30.397ZM787.579 519.465l26.36-.204-40.556 49.719-27.426.854 41.622-50.369ZM1055.1 519.293l26.36-.205-40.56 49.72-27.43.853 41.63-50.368ZM1001.97 519.664l26.36-.206-40.56 49.719-27.426.854 41.626-50.367ZM947.437 519.347l26.36-.204-40.558 49.719-27.426.853 41.624-50.368ZM355.236 518.744l26.361-.204-40.559 49.719-27.426.852 41.624-50.367ZM1106.29 519.281l26.36-.204-40.56 49.719-27.42.854 41.62-50.369ZM1156.67 519.58l26.36-.205-40.56 49.72-27.42.852 41.62-50.367ZM1201.31 519.021l26.36-.203-40.55 49.718-27.43.854 41.62-50.369ZM1246.98 519.158l26.36-.203-40.56 49.719-27.42.853 41.62-50.369ZM1292.44 518.94l26.36-.203-40.55 49.718-27.43.854 41.62-50.369ZM1337.91 518.853l26.36-.204-40.55 49.719-27.43.854 41.62-50.369ZM591.049 518.924l26.362-.203-40.558 49.718-27.426.854 41.622-50.369ZM541.186 518.785l26.36-.205-40.557 49.72-27.427.853 41.624-50.368ZM637.966 519.426l26.362-.205-40.559 49.721-27.425.852 41.622-50.368ZM891.477 519.161l26.36-.203-40.557 49.718-27.426.854 41.623-50.369ZM493.492 518.393l26.362-.204-40.558 49.719-27.426.853 41.622-50.368ZM446.407 518.845l26.36-.205-40.557 49.72-27.426.852 41.623-50.367ZM399.437 518.615l26.362-.205-40.558 49.719-27.426.854 41.622-50.368ZM885.577 595.416l26.362-.203-40.558 49.718-27.426.854 41.622-50.369ZM731.635 595.522l26.362-.205-40.558 49.72-27.426.853 41.622-50.368ZM784.936 595.04l26.362-.204-30.555 37.456-10.003 12.263-27.426.853 41.622-50.368ZM834.937 595.359l26.362-.204-40.558 49.719-27.427.853 41.623-50.368ZM1102.45 595.187l26.37-.205-40.56 49.72-27.43.852 41.62-50.367ZM1049.32 595.557l26.36-.205-40.55 49.718-27.43.854 41.62-50.367ZM994.793 595.241l26.357-.204-40.553 49.719-27.428.854 41.624-50.369ZM402.593 594.637l26.361-.205-40.558 49.721-27.427.852 41.624-50.368ZM1153.65 595.175l26.36-.204-40.56 49.719-27.43.854 41.63-50.369ZM1204.03 595.474l26.36-.205-40.56 49.72-27.43.852 41.63-50.367ZM1248.67 594.916l26.36-.204-40.56 49.719-27.42.853 41.62-50.368ZM1294.34 595.052l26.36-.203-40.56 49.718-27.43.854 41.63-50.369ZM1339.8 594.835l26.36-.204-40.56 49.719-27.42.853 41.62-50.368ZM1384.13 628.255l-13.06 16.007-27.42.853 31.09-37.624 9.39 20.764ZM638.406 594.817l26.362-.203-40.558 49.718-27.426.854 41.622-50.369ZM588.543 594.678l26.36-.205-40.556 49.719-27.427.853 41.623-50.367ZM685.323 595.32l26.361-.205-40.558 49.72-27.426.852 41.623-50.367ZM938.833 595.055l26.362-.203-40.558 49.718-27.426.854 41.622-50.369ZM540.851 594.286l26.361-.203-40.558 49.718-27.426.854 41.623-50.369ZM493.763 594.738l26.362-.205-40.558 49.72-27.426.853 41.622-50.368ZM446.794 594.509l26.362-.205-40.558 49.719-27.426.854 41.622-50.368Z" clip-rule="evenodd"/><path stroke="#2B2A29" stroke-miterlimit="22.926" stroke-width="5" d="M755.477 334.948c35.405-16.272 55.311-48.598 44.463-72.201-10.849-23.603-48.344-29.545-83.749-13.272-35.404 16.273-55.311 48.598-44.462 72.201 10.848 23.603 48.344 29.545 83.748 13.272Z"/><path stroke="#2B2A29" stroke-miterlimit="22.926" stroke-width="5" d="M671.729 321.677c11.277-1.498 22.553-2.995 33.239-7.905 10.684-4.912 20.775-13.237 30.825-20.288 10.05-7.053 20.06-12.835 31.219-15.915 11.158-3.08 23.466-3.458 35.775-3.838M355.532 319.442c26.955-12.39 42.111-37.001 33.851-54.971-8.259-17.97-36.806-22.494-63.761-10.104-26.955 12.389-42.111 37-33.852 54.97 8.26 17.97 36.807 22.494 63.762 10.105Z"/><path stroke="#2B2A29" stroke-miterlimit="22.926" stroke-width="5" d="M291.771 309.337c8.585-1.139 17.171-2.28 25.305-6.019 8.134-3.738 15.818-10.077 23.47-15.446 7.652-5.369 15.272-9.77 23.769-12.116 8.495-2.345 17.865-2.633 27.236-2.922M947.752 333.989c35.404-16.273 55.308-48.599 44.463-72.202-10.849-23.603-48.344-29.545-83.749-13.272-35.405 16.273-55.311 48.599-44.463 72.202 10.849 23.602 48.344 29.545 83.749 13.272Z"/><path stroke="#2B2A29" stroke-miterlimit="22.926" stroke-width="5" d="M864.01 320.716c11.278-1.498 22.555-2.994 33.239-7.905 10.684-4.911 20.776-13.235 30.827-20.288 10.049-7.053 20.059-12.833 31.219-15.915 11.158-3.08 23.465-3.458 35.774-3.837M553.461 333.946c35.404-16.272 55.311-48.598 44.463-72.201-10.849-23.603-48.344-29.545-83.749-13.272-35.405 16.273-55.311 48.598-44.463 72.201 10.849 23.603 48.344 29.545 83.749 13.272Z"/><path stroke="#2B2A29" stroke-miterlimit="22.926" stroke-width="5" d="M469.712 320.676c11.278-1.498 22.555-2.995 33.239-7.907 10.684-4.91 20.776-13.235 30.827-20.288 10.049-7.053 20.059-12.833 31.219-15.915 11.158-3.08 23.465-3.458 35.774-3.836M1126 334.994c35.4-16.273 55.31-48.598 44.46-72.201-10.85-23.603-48.34-29.545-83.75-13.272-35.4 16.273-55.31 48.598-44.46 72.201 10.85 23.603 48.34 29.545 83.75 13.272Z"/><path stroke="#2B2A29" stroke-miterlimit="22.926" stroke-width="5" d="M1042.25 321.722c11.27-1.497 22.55-2.995 33.24-7.906 10.68-4.91 20.77-13.235 30.82-20.288 10.05-7.052 20.06-12.833 31.22-15.915 11.16-3.08 23.47-3.458 35.78-3.836M1495.03 326.32c26.96-12.39 42.11-37.001 33.85-54.971-8.26-17.97-36.8-22.494-63.76-10.104-26.95 12.389-42.11 37-33.85 54.97 8.26 17.97 36.81 22.494 63.76 10.105Z"/><path stroke="#2B2A29" stroke-miterlimit="22.926" stroke-width="5" d="M1431.27 316.215c8.58-1.141 17.17-2.28 25.3-6.019 8.14-3.738 15.82-10.077 23.47-15.446 7.65-5.369 15.27-9.77 23.77-12.117 8.5-2.344 17.86-2.632 27.24-2.921M203.138 319.74c26.955-12.389 42.111-37 33.851-54.97-8.259-17.97-36.806-22.494-63.761-10.105-26.955 12.389-42.111 37-33.852 54.97 8.26 17.97 36.807 22.494 63.762 10.105Z"/><path stroke="#2B2A29" stroke-miterlimit="22.926" stroke-width="5" d="M139.377 309.636c8.586-1.141 17.172-2.281 25.306-6.019 8.134-3.74 15.817-10.077 23.47-15.447 7.651-5.37 15.272-9.771 23.769-12.116 8.495-2.345 17.865-2.634 27.236-2.921"/><path stroke="#2B2A29" stroke-miterlimit="22.926" stroke-width="7" d="M173.443 374.017c24.575-5.988 51.135-23.788 75.454-19.024 32.164 6.301 53.276 18.243 93.119 18.243 39.842 0 54.027-17.879 93.118-18.243 39.089-.364 54.723 16.505 93.118 16.505 38.395 0 52.897-17.242 93.119-16.505 40.22.736 55.304 19.98 96.686 19.98 41.383 0 50.138-19.061 89.549-19.98 39.41-.919 58.973 15.636 96.687 15.636 37.713 0 51.749-15.813 89.55-15.636 37.797.177 56.507 16.505 94.907 16.505 38.39 0 51.14-16.956 91.33-16.505 40.19.45 61.78 18.677 102.04 18.677 40.26 0 44.53-18.49 84.19-18.677 39.67-.186 60.76 17.808 100.26 17.808 39.5 0 61.39-13.335 90.05-19.271"/><path stroke="#2B2A29" stroke-miterlimit="22.926" stroke-width="5" d="M1300.8 327.181c26.95-12.389 42.11-37 33.85-54.97-8.26-17.97-36.81-22.494-63.76-10.105-26.96 12.389-42.11 37-33.85 54.97 8.26 17.97 36.8 22.494 63.76 10.105Z"/><path stroke="#2B2A29" stroke-miterlimit="22.926" stroke-width="5" d="M1237.03 317.075c8.59-1.14 17.17-2.279 25.31-6.019 8.13-3.739 15.81-10.076 23.47-15.446 7.65-5.37 15.27-9.771 23.77-12.117 8.49-2.345 17.86-2.632 27.23-2.921"/><path stroke="#2B2A29" stroke-miterlimit="22.926" stroke-width="7" d="M1394.62 401.382c16.51-5.228 33.02-10.457 50.6-13.242 17.57-2.787 36.2-3.133 52.08-6.583 15.87-3.451 28.98-10.006 38.41-15.195 9.42-5.19 15.17-9.01 20.91-12.832"/><path stroke="#2B2A29" stroke-miterlimit="22.926" stroke-width="5" d="m320.127 441.29 26.36-.205-40.558 49.718-27.426.854 41.624-50.367ZM366.613 440.889l26.361-.205-40.558 49.719-27.426.853 41.623-50.367ZM270.292 440.871l26.361-.205-40.558 49.718-27.427.854 41.624-50.367ZM223.056 441.047l26.361-.205-40.558 49.718-22.728.709-2.539-2.466 39.464-47.756ZM173.388 441.039l26.36-.206c-9.957 12.208-19.227 22.02-29.185 34.226l-9.063-19.637 11.888-14.383ZM307.46 518.993l26.36-.203-40.558 49.718-27.426.853 41.624-50.368ZM260.235 519.138l26.361-.204-32.892 40.324-14.765-14.347 21.296-25.773ZM214.812 518.835l26.36-.204-12.612 15.461-13.748-15.257ZM353.958 594.79l26.36-.205-40.558 49.721-17.777.552c-.043-1.636.209-4.478-.343-5.852l-1.386-3.431 33.704-40.785ZM304.49 594.67l26.36-.205-21.116 25.889-13.724-15.421 8.48-10.263Z" clip-rule="evenodd"/></svg>