<svg xmlns="http://www.w3.org/2000/svg" width="1061" height="682" fill="none"><path stroke="#2B2A29" stroke-miterlimit="22.926" stroke-width="7" d="M52.073 246.055c3.432-7.506 4.72-17.372 5.791-26.594 1.073-9.223 1.93-17.8 2.573-24.663.644-6.863 1.074-12.011 2.79-15.871 1.715-3.86 4.718-6.434 11.365-7.506 6.649-1.072 16.943-.644 30.24.429 13.298 1.071 29.596 2.788 49.756 4.289 20.161 1.501 44.18 2.788 69.273 2.788 25.093 0 51.257-1.287 74.633-3.218 23.377-1.93 43.966-4.502 61.123-10.079 17.157-5.577 30.883-14.155 47.611-25.735 16.729-11.582 36.46-26.165 55.761-40.963 19.303-14.798 38.175-29.812 56.19-41.82 18.015-12.012 35.172-21.02 49.112-28.096 13.941-7.078 24.665-12.224 37.961-16.16 13.296-3.935 29.167-6.66 46.11-8.022 16.943-1.363 34.958-1.363 55.546 2.36 20.589 3.72 43.75 11.163 63.696 18.315 19.946 7.152 36.673 14.016 58.549 28.17 21.876 14.155 48.898 35.601 69.702 54.903 20.802 19.303 35.386 36.459 48.253 54.689 12.869 18.229 24.021 37.532 36.031 59.622 12.01 22.089 24.881 46.968 33.461 63.052 8.57 16.085 12.86 23.377 18.01 28.953 5.15 5.576 11.15 9.436 15.44 14.154 4.29 4.718 6.86 10.295 5.58 16.299-1.29 6.005-6.44 12.439-11.58 17.587-5.15 5.147-10.3 9.007-15.66 18.015-5.36 9.007-10.94 23.162-19.3 40.319-8.37 17.158-19.516 37.318-33.886 59.622-14.369 22.304-31.955 46.753-47.611 66.484-15.656 19.73-29.382 34.743-51.258 52.759-21.874 18.015-51.9 39.031-82.997 53.186-31.098 14.155-63.268 21.447-92.434 23.806-29.168 2.359-55.332-.214-78.71-6.004-23.376-5.791-43.965-14.798-62.838-24.878-18.873-10.08-36.029-21.234-52.329-31.957-16.3-10.723-31.742-21.017-46.54-33.241-14.797-12.224-28.952-26.379-44.179-36.674-15.226-10.294-31.526-16.728-47.182-22.733-15.655-6.005-30.669-11.582-44.824-14.798-14.154-3.217-27.45-4.075-48.253-4.289-20.803-.215-49.114.214-74.206.429-25.093.214-46.968.214-64.125.857-17.158.644-29.596 1.931-41.178 3.004-11.58 1.071-22.304 1.928-29.167-.859-6.863-2.788-9.865-9.223-11.366-20.588-1.502-11.368-1.502-27.667-1.957-46.245-.455-18.578-1.367-39.434-4.718-52.543-3.35-13.11-9.14-18.471-15.324-21.752-6.184-3.283-12.762-4.484-18.178-5.824-5.415-1.341-9.667-2.82-11.606-18.278-1.94-15.457-1.565-44.893 1.062-60.173 2.627-15.281 7.507-16.407 13.083-16.836 5.576-.429 11.85-.16 17.774-2.599 5.924-2.44 11.5-7.587 14.93-15.093Z" clip-rule="evenodd"/><path stroke="#2B2A29" stroke-miterlimit="22.926" stroke-width="7" d="M846.652 121.941c-.856.696-1.015.674-1.942 1.331-6.687 4.74-14.731 9.363-16.584 17.134-2.504 10.514 9.113 21.676 5.71 31.941-3.032 9.15-20.133 8.952-22.371 18.328-2.715 11.376 12.485 22.223 9.964 33.643-2.282 10.346-19.912 12.277-22.372 22.582-2.401 10.061 12.189 19.287 9.964 29.389-2.023 9.178-18.49 10.036-20.67 19.177-2.616 10.963 17.238 19.197 16.531 30.445-.719 11.446-16.855 24.412-14.227 35.575 2.544 10.805 15.653 10.128 18.689 20.804 3.426 12.052-11.309 24.439-8.435 36.635 2.093 8.888 18.633 8.624 21.164 17.398 3.23 11.199-8.887 23.069-6.215 34.415 2.084 8.847 16.838 10.774 18.944 19.616 2.432 10.212-9.361 20.499-6.955 30.716 2.331 9.898 13.399 15.788 19.96 23.559"/><path stroke="#2B2A29" stroke-miterlimit="22.926" stroke-width="7" d="M821.112 101.244c-4.97 7.379-26.705 24.546-28.789 33.296-2.503 10.512 9.113 31.296 5.71 41.56-3.032 9.15-20.134 8.952-22.372 18.327-2.714 11.377 12.485 22.223 9.964 33.643-2.281 10.347-19.912 12.277-22.372 22.583-2.401 10.061 12.191 19.287 9.964 29.389-2.023 9.177-18.489 10.036-20.67 19.177-2.616 10.963 17.239 19.197 16.532 30.445-.72 11.446-16.856 24.412-14.228 35.575 2.544 10.804 15.653 10.127 18.689 20.804 3.427 12.052-11.307 24.439-8.434 36.635 2.093 8.888 18.633 8.623 21.164 17.397 3.23 11.2-8.888 23.07-6.215 34.416 2.085 8.847 16.839 10.774 18.944 19.615 2.432 10.211-10.674 32.002-6.954 41.816 7.786 20.55 28.042 27.101 34.605 34.872"/><path stroke="#2B2A29" stroke-miterlimit="22.926" stroke-width="7" d="M770.97 72.265c-1.741 3.228-11.819 16.987-10.726 24.41 1.187 8.067 3.14 17.141.86 22.899-4.383 11.074-22.983 12.839-24.712 20.1-2.504 10.516 9.112 21.677 5.709 31.942-3.032 9.149-20.133 8.951-22.371 18.327-2.716 11.376 12.484 22.223 9.964 33.643-2.282 10.346-19.913 12.277-22.373 22.582-2.401 10.061 12.191 19.287 9.965 29.389-2.024 9.179-18.489 10.037-20.67 19.178-2.616 10.962 17.238 19.196 16.532 30.444-.72 11.446-16.856 24.412-14.228 35.575 2.544 10.805 15.653 10.128 18.688 20.805 3.427 12.052-11.307 24.438-8.435 36.634 2.094 8.889 18.634 8.624 21.164 17.398 3.232 11.199-8.887 23.07-6.213 34.416 2.083 8.847 16.838 10.774 18.943 19.615 2.431 10.211-11.949 26.051-9.544 36.266.917 3.897 15.998 9.303 24.471 24.307 4.661 8.256-12.385 33.379-7.561 41.485 8.678 14.584 34.302 16.319 35.692 17.028"/><path stroke="#2B2A29" stroke-miterlimit="22.926" stroke-width="7" d="M745.441 56.18c-3.083.358-26.709 8.654-24.861 18.554 2.444 13.105 4.777 27.323 3.481 30.6-4.378 11.069-22.39 15.75-24.116 23.008-2.501 10.513 8.62 24.939 5.22 35.203-3.032 9.148-26.425 18.571-28.662 27.946-2.715 11.375 12.485 22.223 9.964 33.643-2.282 10.346-19.912 12.277-22.372 22.582-2.401 10.062 12.19 19.288 9.964 29.388-2.023 9.179-18.49 10.038-20.67 19.179-2.616 10.963 17.238 19.196 16.531 30.445-.719 11.446-16.855 24.411-14.227 35.574 2.544 10.805 15.653 10.128 18.689 20.805 3.426 12.051-11.308 24.439-8.435 36.635 2.093 8.888 18.633 8.623 21.164 17.396 3.23 11.201-8.887 23.071-6.215 34.417 2.084 8.847 16.84 10.775 18.944 19.615 2.431 10.21-11.947 26.05-9.544 36.266.916 3.895 20.442 28.441 25.211 36.887 4.767 8.445-13.809 35.054-8.929 41.685 4.879 6.631 27.343 25.804 36.701 26.137M845.521 121.631c22.425 25.254 44.85 50.509 63.709 78.922 18.858 28.413 34.151 59.984 44.262 82.677 10.114 22.691 15.047 36.503 16.157 53.028 1.11 16.527-1.604 35.766-8.881 56.73-7.276 20.965-19.114 43.658-32.68 64.87-13.566 21.211-28.858 40.944-42.687 55.231-13.828 14.287-26.193 23.131-38.557 31.973M769.709 72.435c8.231 3.669 16.463 7.338 25.058 12.354 8.596 5.015 17.555 11.38 26.514 17.742M785.083 608.811c7.794-5.92 15.587-11.841 22.661-18.279 7.072-6.439 13.427-13.395 19.781-20.35"/><path stroke="#2B2A29" stroke-miterlimit="22.926" stroke-width="7" d="M558.242 345.071c-.018-9.065-.036-18.129 1.516-23.938 1.552-5.811 4.675-8.364 8.79-10.352 4.116-1.987 9.224-3.405 15.468-6.385 6.244-2.981 13.624-7.521 19.868-14.758 6.245-7.239 11.353-17.172 15.185-27.107 3.831-9.934 6.386-19.867 7.52-30.368 1.137-10.503.854-21.572-.708-31.363-1.56-9.792-4.399-18.308-8.799-26.822-4.399-8.515-10.359-17.03-17.881-23.274-7.521-6.243-16.602-10.218-25.118-12.629-8.514-2.413-16.462-3.264-25.119-2.838-8.656.426-18.022 2.127-26.395 6.386-8.372 4.257-15.753 11.069-19.159 16.604-3.406 5.533-2.838 9.791.142 11.494 2.981 1.703 8.373.852 13.908-1.135 5.535-1.988 11.211-5.11 17.313-6.67 6.102-1.562 12.631-1.562 19.158.851 6.529 2.412 13.056 7.237 18.166 12.488 5.108 5.252 8.798 10.927 11.494 18.592 2.697 7.662 4.399 17.312 4.542 26.536.142 9.225-1.277 18.024-4.826 25.545-3.547 7.521-9.224 13.765-16.603 18.733-7.379 4.966-16.462 8.655-25.829 10.359-9.366 1.703-19.016 1.419-27.247-.851-8.23-2.271-15.043-6.528-20.578-11.921-5.534-5.394-9.791-11.921-13.481-20.01-3.689-8.09-6.811-17.739-8.089-26.254-1.276-8.515-.709-15.894.284-24.693.994-8.799 2.412-19.016 7.096-30.51 4.683-11.496 12.63-24.268 21.712-35.905 9.083-11.636 19.3-22.138 29.519-30.652 10.218-8.515 20.435-15.044 33.207-22.139 12.772-7.095 28.1-14.76 42.29-19.017 14.191-4.257 27.246-5.107 40.444-5.675 13.199-.568 26.539-.852 43.186.664 16.649 1.517 36.605 4.835 56.561 8.151M558.242 345.071c.085 7.491.17 14.983 1.772 20.007 1.604 5.022 4.727 7.577 8.842 9.564 4.116 1.987 9.224 3.406 15.468 6.386 6.245 2.981 13.624 7.521 19.868 14.758 6.245 7.239 11.352 17.172 15.185 27.106 3.831 9.934 6.386 19.868 7.521 30.368 1.135 10.502.852 21.572-.709 31.364-1.561 9.792-4.4 18.306-8.799 26.821-4.399 8.515-10.359 17.031-17.881 23.273-7.521 6.245-16.603 10.218-25.117 12.631-8.516 2.413-16.463 3.263-25.12 2.838-8.657-.426-18.023-2.129-26.395-6.386-8.373-4.257-15.753-11.069-19.159-16.604-3.405-5.535-2.838-9.792.142-11.496 2.981-1.701 8.372-.85 13.908 1.137 5.535 1.986 11.211 5.11 17.313 6.67 6.101 1.561 12.631 1.561 19.157-.851 6.53-2.413 13.057-7.238 18.166-12.489s8.799-10.927 11.495-18.591c2.697-7.663 4.399-17.312 4.541-26.537.142-9.224-1.276-18.023-4.825-25.544-3.547-7.522-9.223-13.766-16.604-18.733-7.379-4.966-16.462-8.656-25.829-10.359-9.365-1.703-19.015-1.42-27.246.85-8.231 2.272-15.043 6.529-20.578 11.922-5.534 5.392-9.791 11.92-13.481 20.009-3.69 8.091-6.812 17.74-8.089 26.254-1.276 8.515-.709 15.894.284 24.693.993 8.798 2.412 19.016 7.095 30.51 4.684 11.496 12.63 24.269 21.713 35.905 9.083 11.637 19.3 22.138 29.518 30.652 10.218 8.516 20.435 15.043 33.207 22.139 12.772 7.095 28.1 14.759 42.291 19.017 14.191 4.257 27.246 5.108 40.444 5.675 13.198.569 26.538.853 42.719-.176 16.179-1.028 35.2-3.369 54.22-5.709M96.464 338.83c0 36.613 0 73.228.851 94.231.853 21.003 2.554 26.394 6.102 29.802 3.549 3.406 8.941 4.824 16.036 4.682 7.096-.142 15.895-1.844 29.518-3.548 13.624-1.702 32.073-3.405 50.663-3.973 18.591-.568 37.323 0 54.92.568 17.598.567 34.06 1.135 49.385 3.122 15.328 1.986 29.519 5.393 43.142 9.508 13.624 4.115 26.679 8.941 36.754 12.205 10.076 3.263 17.172 4.966 22.139 4.682 4.968-.283 7.807-2.555 10.36-6.953 2.554-4.399 4.826-10.927 6.811-19.159 1.988-8.231 3.69-18.164 6.67-28.098 2.981-9.934 7.239-19.868 12.489-29.092 5.251-9.225 11.495-17.739 16.604-22.565 5.109-4.824 9.082-5.96 12.062-8.655 2.98-2.697 4.968-6.955 5.818-13.056.852-6.103.568-14.05.284-21.997"/><path stroke="#2B2A29" stroke-miterlimit="22.926" stroke-width="7" d="M96.464 340.428c-.284-35.527-.568-71.053.142-91.514.71-20.459 2.412-25.851 5.96-29.258 3.548-3.406 8.94-4.825 16.036-4.682 7.096.142 15.895 1.844 29.517 3.548 13.625 1.703 32.073 3.406 50.663 3.973 18.592.568 37.324 0 54.921-.567 17.598-.569 34.059-1.137 49.385-3.123 15.327-1.987 29.518-5.393 43.142-9.508 13.624-4.116 26.679-8.941 36.754-12.204 10.076-3.264 17.172-4.968 22.139-4.683 4.966.284 7.805 2.554 10.359 6.953 2.555 4.399 4.826 10.928 6.812 19.159 1.987 8.23 3.689 18.163 6.669 28.098 2.981 9.934 7.239 19.867 12.49 29.092 5.251 9.224 11.495 17.739 16.603 22.564 5.11 4.826 9.083 5.96 12.063 8.656 2.98 2.697 4.967 6.954 5.968 13.046 1.001 6.091 1.019 14.018 1.035 21.944"/></svg>