<svg xmlns="http://www.w3.org/2000/svg" width="1163" height="680" fill="none"><path stroke="#2B2A29" stroke-miterlimit="22.926" stroke-width="7" d="M264.123 31.586c36.778-1.678 72.888 3.018 123.04 11.07 50.153 8.053 114.346 19.46 159.15 24.828 44.803 5.368 70.212 4.696 104.651-.672 34.438-5.368 77.903-15.432 116.687-25.833 38.785-10.4 72.888-21.137 100.973-28.183 28.086-7.046 50.152-10.4 83.921-8.052 33.771 2.35 79.245 10.401 114.345 19.124 35.11 8.724 59.85 18.117 73.89 28.182 14.05 10.065 17.39 20.802 18.06 115.414.67 94.612-1.34 273.101-5.35 369.391-4.01 96.29-10.03 110.381-23.07 119.439-13.04 9.059-33.1 13.086-66.54 15.769-33.43 2.685-80.24 4.027-134.405 2.684-54.164-1.341-115.683-5.367-167.508-8.722-51.824-3.355-93.951-6.039-140.427-5.705-46.473.336-97.294 3.693-151.459 7.046-54.164 3.355-111.672 6.712-155.806 8.054-44.134 1.341-74.893.67-103.982-5.369-29.089-6.038-56.505-17.446-76.901-29.19-20.394-11.742-33.769-23.82-46.14-42.274-12.37-18.453-23.739-43.279-31.428-67.1-7.69-23.821-11.703-46.635-15.38-68.108-3.677-21.472-7.022-41.602-12.37-54.686-5.35-13.086-12.706-19.125-17.387-30.869C6.005 366.082 4 348.637 4 335.552c0-13.084 2.005-21.809 6.352-30.866 4.348-9.058 11.033-18.453 17.052-33.885 6.018-15.434 11.368-36.907 20.061-63.747 8.693-26.84 20.73-59.05 38.784-86.226 18.055-27.174 42.129-49.32 72.888-64.415 30.761-15.098 68.208-23.151 104.986-24.827Z" clip-rule="evenodd"/><path stroke="#2B2A29" stroke-miterlimit="22.926" stroke-width="7" d="M219.737 128.294c12.455 1.09 21.984 6.626 24.006 45.124 2.022 38.498-3.464 109.956-5.888 164.896-2.425 54.939-1.788 93.357-1.802 124.644-.015 31.288-.684 55.444-2.441 74.485-1.753 19.039-4.596 32.964-14.626 36.989-10.03 4.026-27.25-1.845-41.324-9.759-14.076-7.913-25.005-17.869-36.374-35.986-11.367-18.117-23.173-44.396-30.079-67.936-6.906-23.541-8.911-44.342-8.576-71.183.333-26.84 3.009-59.72 5.683-86.225 2.676-26.505 5.35-46.635 11.034-67.435 5.683-20.802 14.377-42.274 24.407-59.385 10.03-17.111 21.399-29.861 34.773-37.912 13.374-8.052 28.753-11.408 41.207-10.317Z" clip-rule="evenodd"/><path stroke="#2B2A29" stroke-miterlimit="22.926" stroke-width="7" d="M803.786 525.149H611.827c-174.765 0-316.441 18.148-316.441 40.534s141.676 40.534 316.441 40.534h191.959c174.766 0 316.444-18.148 316.444-40.534s-141.678-40.534-316.444-40.534ZM293.89 392.037c27.472-19.611 50.024-57.982 85.246-65.989 54.283-12.343 111.98 18.148 146.147-15.419l63.835-62.713"/><path stroke="#2B2A29" stroke-miterlimit="22.926" stroke-width="7" d="m314.744 455.865 65.528-59.878c41.379-37.811 139.689 20.605 178.2-20.144l120.91-127.927M498.19 472.103c42.777-30.537 103.077-107.269 157.922-119.738 84.525-19.219 101.158 14.775 151.772-40.023l59.505-64.426M604.589 472.105c25.414-24.442 30.254-44.148 65.848-54.641 12.406-3.657 57.452.041 71.628-3.182 84.523-19.217 96.635-22.934 145.787-79.056l76.462-87.309M804.176 472.795c21.103-21.153 86.429-116.033 121.649-124.04 54.281-12.34 103.135 20.103 142.655-6.909l50.16-34.287M881.679 472.105c14.623-26.158 42.05-60.019 77.267-68.024 31.136-7.077 76.874 6.028 107.754-.364 22.95-4.75 40.14-21.844 52.03-29.566M293.89 392.037v-37.322c0-12.135 0-23.81.09-32.401.09-8.59.27-14.094.825-18.838.554-4.743 1.484-8.726 3.539-13.706 2.057-4.979 5.241-10.955 9.24-16.247a60.423 60.423 0 0 1 14.438-13.69c5.621-3.797 12.044-6.784 19.582-8.634 7.539-1.851 16.194-2.567 57.632-2.925 41.437-.358 115.661-.358 189.882-.358M679.382 247.916H867.39"/><path stroke="#2B2A29" stroke-miterlimit="22.926" stroke-width="7" d="M964.314 247.917c24.128 0 48.256-.001 65.036.109 16.78.111 26.2.332 34.51 1.676 8.31 1.343 15.5 3.811 21.92 7.37a59.27 59.27 0 0 1 16.85 13.925c4.79 5.718 8.7 12.508 11.22 18.78 2.52 6.271 3.66 12.027 4.79 17.782M1118.73 374.151c-.35 15.484-.71 30.967-2.26 42.278-1.56 11.312-4.32 18.454-9.73 25.817-5.41 7.364-13.47 14.949-22.39 19.961-8.91 5.014-18.68 7.456-52.6 8.676-33.924 1.222-91.997 1.222-150.071 1.222M605.951 472.105c66.075.228 132.148.458 198.225.688M314.744 455.865c3.802 2.739 7.602 5.478 11.994 7.852 4.391 2.376 9.374 4.388 15.759 5.725 6.386 1.337 14.173 2 40.355 2.331 26.182.332 70.761.332 115.339.332"/><path stroke="#2B2A29" stroke-miterlimit="22.926" stroke-width="7" d="M455.635 177.525c105.725.333 316.963 1.96 431.558 2.774 114.597.813 132.547.813 146.037-.4 13.48-1.213 22.5-3.637 30.65-8.14 8.14-4.504 15.42-11.088 19.05-18.882 3.64-7.797 3.64-16.803-4.17-24.811-7.82-8.007-23.44-15.012-38.74-21.35-15.29-6.339-30.25-12.011-44.214-16.514-13.964-4.504-26.93-7.841-38.899-9.342-11.969-1.5-22.939-1.166-35.407.835-12.467 2.001-26.432 5.67-42.224 10.509-15.792 4.837-33.412 10.841-52.363 16.18-18.949 5.337-39.231 10.008-59.345 14.845-20.113 4.837-40.061 9.843-60.674 13.679-20.613 3.836-41.89 6.505-60.841 8.174-18.95 1.668-35.573 2.335-53.027 1.668-17.455-.668-35.741-2.67-58.848-4.837-23.106-2.17-51.032-4.504-71.812-6.84-20.778-2.335-34.408-4.671-49.204-7.007-14.794-2.334-30.754-4.669-43.054-6.17-12.301-1.502-20.945-2.17-27.927-1.002-6.982 1.168-12.302 4.171-16.624 9.008-4.321 4.838-7.646 11.509-8.248 18.536-.602 7.027 1.517 14.407 7.336 19.579 5.818 5.171 15.334 8.132 20.196 9.133 4.862 1 5.071.042 110.794.375Z" clip-rule="evenodd"/></svg>