<svg xmlns="http://www.w3.org/2000/svg" width="739" height="1140" fill="none"><path stroke="#2B2A29" stroke-miterlimit="22.926" stroke-width="7" d="M429.36 111.784c18.41 0 33.334-14.834 33.334-33.132 0-18.299-14.924-33.133-33.334-33.133-18.41 0-33.334 14.834-33.334 33.133 0 18.299 14.924 33.132 33.334 33.132ZM318.181 112.064c18.41 0 33.334-14.834 33.334-33.133 0-18.298-14.924-33.132-33.334-33.132-18.41 0-33.334 14.834-33.334 33.132 0 18.299 14.924 33.133 33.334 33.133Z"/><path stroke="#2B2A29" stroke-miterlimit="22.926" stroke-width="7" d="M318.479 95.698c9.205 0 16.668-7.417 16.668-16.567s-7.463-16.566-16.668-16.566c-9.206 0-16.668 7.417-16.668 16.566 0 9.15 7.462 16.567 16.668 16.567ZM428.748 95.418c9.206 0 16.669-7.417 16.669-16.567s-7.463-16.567-16.669-16.567c-9.205 0-16.668 7.417-16.668 16.567s7.463 16.567 16.668 16.567ZM396.841 71.344c-1.536 3.593-3.073 7.187-3.707 10.513-.635 3.327-.369 6.387-.302 9.714.067 3.327-.067 6.919-.133 10.578a385.154 385.154 0 0 0-.028 11.07c.038 3.684.114 7.327-.419 11.053-.532 3.725-1.673 7.534-3.441 10.569-1.769 3.036-4.163 5.297-6.624 6.76-2.462 1.464-4.991 2.13-7.785 1.798-2.795-.334-5.856-1.664-8.384-3.592-2.528-1.93-4.524-4.458-6.121-7.319-1.596-2.861-2.795-6.054-4.191-8.317-1.397-2.262-2.995-3.592-4.924-4.589-1.93-.999-4.191-1.665-5.988-1.93-1.797-.267-3.127-.134-5.81.815-2.683.947-6.717 2.712-10.657 5.26-3.941 2.547-7.785 5.877-11.708 9.251-3.923 3.374-7.924 6.791-10.08 9.704-2.157 2.912-2.469 5.319-.987 6.385 1.482 1.067 4.76.793 9.676-1.034 4.914-1.827 11.469-5.208 18.655-9.066 7.185-3.859 15.002-8.197 22.82-12.533"/><path stroke="#2B2A29" stroke-miterlimit="22.926" stroke-width="7" d="M394.425 120.265c4.777 1.212 9.555 2.422 13.807 3.627 4.252 1.204 7.977 2.402 11.77 4.066 3.792 1.662 7.651 3.792 11.311 5.787 3.659 1.996 7.12 3.859 9.367 6.125 2.246 2.267 3.279 4.936 3.014 6.999-.267 2.061-1.834 3.518-5.277 3.314-3.445-.204-8.768-2.066-14.156-4.262-5.39-2.195-10.846-4.725-16.51-7.156-5.665-2.432-11.538-4.768-17.411-7.104"/><path stroke="#2B2A29" stroke-miterlimit="22.926" stroke-width="7" d="M215.116 202.678c3.559-5.024 7.153-10.545 10.579-16.965 3.426-6.42 6.687-13.739 9.382-20.325 2.694-6.587 4.824-12.442 6.587-19.028 1.762-6.587 3.16-13.905 4.125-20.858.964-6.952 1.496-13.539 2.428-19.692a122.803 122.803 0 0 1 3.96-17.465 146.315 146.315 0 0 1 5.655-15.402c1.897-4.358 3.626-7.619 5.289-10.412 1.664-2.795 3.26-5.124 5.767-8.354 2.507-3.231 5.924-7.364 8.519-10.358 2.595-2.994 4.367-4.85 6.685-7.007 2.316-2.158 5.177-4.62 7.872-6.782 2.694-2.162 5.223-4.025 7.951-5.988 2.728-1.963 5.655-4.025 9.149-5.854 3.493-1.83 7.552-3.428 12.109-4.923 4.558-1.498 9.615-2.896 14.805-4.326 5.189-1.43 10.512-2.894 16.567-3.792 6.055-.898 12.84-1.23 19.826-1.13 6.987.1 14.173.632 20.427 1.363 6.255.732 11.576 1.664 17.132 3.161 5.557 1.497 11.345 3.559 17.101 6.088 5.755 2.528 11.476 5.521 16.567 8.515 5.09 2.995 9.547 5.988 14.171 9.615 4.625 3.625 9.414 7.883 13.107 11.741 3.693 3.86 6.288 7.319 9.05 11.777 2.761 4.456 5.688 9.913 7.985 14.504 2.294 4.59 3.958 8.316 5.855 13.206 1.895 4.89 4.025 10.944 6.187 17.331 2.162 6.387 4.358 13.106 6.088 19.028 1.73 5.921 2.994 11.045 4.424 16.367 1.43 5.323 3.028 10.844 4.592 16.566 1.563 5.722 3.093 11.642 4.857 17.364 1.762 5.722 3.758 11.245 5.554 15.469 1.797 4.225 3.394 7.152 5.691 10.412 2.294 3.26 5.288 6.854 8.682 10.712 3.392 3.858 7.186 7.984 10.546 11.144 3.359 3.159 6.287 5.355 9.281 7.485a165.082 165.082 0 0 0 10.147 6.686c4.091 2.494 9.215 5.421 14.904 8.483 5.688 3.06 11.942 6.253 17.231 9.047 5.289 2.795 9.615 5.19 14.107 7.585 4.49 2.395 9.147 4.791 13.838 7.352 4.691 2.562 9.416 5.289 14.44 8.749 5.022 3.459 10.344 7.651 14.503 10.778 4.158 3.127 7.152 5.188 11.444 8.681 4.292 3.493 9.88 8.418 14.073 12.043 4.192 3.626 6.985 5.955 9.813 8.883 2.827 2.927 5.689 6.452 8.184 9.912 2.494 3.459 4.624 6.853 7.086 12.209 2.462 5.355 5.255 12.673 8.05 20.425 2.795 7.75 5.59 15.934 7.785 23.086 2.196 7.152 3.792 13.272 4.89 19.127 1.098 5.855 1.697 11.444 2.163 18.962.466 7.518.798 16.965 1.131 29.141.332 12.174.666 27.078.933 42.812.265 15.735.463 32.301.497 44.21.033 11.909-.099 19.162-.165 64.104-.067 44.941-.067 127.572.133 180.797.199 53.225.597 77.043.398 90.582-.2 13.539-.997 16.799-2.528 20.059-1.531 3.26-3.792 6.52-6.354 9.548-2.562 3.027-5.423 5.82-8.915 8.283-3.493 2.461-7.619 4.59-11.977 6.22-4.358 1.63-8.949 2.761-13.906 2.995-4.957.233-10.28-.433-15.136-1.864-4.858-1.43-9.249-3.625-13.483-6.372-4.235-2.746-8.311-6.043-12.602-9.536-4.292-3.493-8.798-7.182-13.146-10.856-4.349-3.674-8.542-7.333-12.867-11.424-4.325-4.092-8.782-8.617-14.238-14.638-5.457-6.021-11.91-13.539-17.632-20.424-5.722-6.887-10.711-13.14-15.768-19.893s-10.18-14.005-14.338-20.258c-4.159-6.254-7.353-11.511-9.881-15.968a168.873 168.873 0 0 1-6.054-11.643c-1.664-3.527-3.128-6.919-4.724-10.512-1.598-3.593-3.327-7.385-4.625-11.143-1.297-3.76-2.163-7.485-2.994-11.577-.833-4.092-1.63-8.549-2.429-12.109-.799-3.56-1.596-6.221-2.827-8.283-1.232-2.063-2.894-3.527-4.524-4.358-1.63-.832-3.228-1.032-4.525-.5-1.298.532-2.295 1.798-3.094 3.362-.799 1.563-1.397 3.424-2.062 7.283-.666 3.859-1.398 9.714-.5 71.156.898 61.441 3.428 178.469 4.492 239.043 1.065 60.58.665 64.7-.1 67.6-.766 2.89-1.896 4.56-3.326 6.39-1.432 1.83-3.161 3.82-5.623 6.22-2.463 2.39-5.656 5.18-8.882 7.75-3.228 2.56-6.488 4.89-10.612 6.58-4.126 1.7-9.117 2.77-13.541 3.4-4.425.63-8.283.83-15.369 1.06-7.086.23-17.399.5-27.845.7-10.446.2-21.026.33-32.403.37-11.378.03-23.553-.04-36.628-.4-13.074-.37-27.046-1.04-38.424-1.9-11.377-.86-20.16-1.93-27.079-3.13-6.92-1.2-11.977-2.52-16.401-4.32-4.424-1.8-8.218-4.06-11.211-6.19-2.994-2.13-5.19-4.12-7.518-6.32-2.329-2.19-4.791-4.59-7.519-7.52a185.063 185.063 0 0 1-8.15-9.38c-2.429-2.99-4.292-5.52-6.021-8.81-1.731-3.3-3.328-7.35-4.393-11.71-1.064-4.36-1.596-9.02-1.929-13.77-.332-4.76-.466-9.62-.399-67.966.067-58.347.332-170.187.1-227.271-.233-57.083-.965-59.412-1.996-61.142-1.032-1.73-2.361-2.86-3.558-3.791-1.199-.932-2.264-1.664-3.861-2.096-1.596-.432-3.726-.566-5.588-.033-1.863.532-3.461 1.729-5.091 3.06-1.63 1.331-3.293 2.795-5.157 4.99-1.863 2.196-3.925 5.123-5.687 7.985-1.764 2.86-3.228 5.653-19.628 34.262-16.402 28.609-47.739 83.03-64.006 111.107-16.269 28.076-17.466 29.806-18.831 31.004-1.364 1.197-2.894 1.863-5.655 2.162-2.761.299-6.753.233-10.246.1-3.494-.134-6.487-.333-8.45-1.497-1.963-1.165-2.895-3.294-3.86-5.556-.965-2.262-1.962-4.657-3.758-6.553-1.798-1.896-4.392-3.294-7.385-3.993-2.994-.698-6.388-.698-9.449-.065-3.06.631-5.789 1.895-8.184 2.86-2.396.965-4.457 1.63-6.986 1.63s-5.522-.665-8.915-1.663c-3.394-.999-7.187-2.329-10.78-3.193-3.592-.866-6.986-1.264-9.38-1.896-2.395-.632-3.793-1.498-4.458-3.294s-.6-4.524.433-79.438c1.03-74.914 3.026-222.014 4.124-297.227 1.098-75.214 1.298-78.541 1.697-82.133.4-3.594.998-7.451 1.563-10.678.566-3.227 1.098-5.822 1.664-8.15.565-2.33 1.163-4.391 1.796-6.654.631-2.262 1.298-4.723 2.33-7.783 1.03-3.062 2.427-6.721 4.124-10.679 1.697-3.959 3.693-8.217 6.021-13.073 2.329-4.857 4.99-10.314 8.351-15.969 3.36-5.655 7.418-11.509 10.38-15.535 2.96-4.025 4.822-6.22 6.786-8.349a109.535 109.535 0 0 1 6.22-6.22c2.195-2.03 4.525-4.025 7.52-6.354 2.993-2.328 6.652-4.99 9.813-7.218a291.111 291.111 0 0 1 8.717-5.921 468.525 468.525 0 0 1 9.281-5.922 724.53 724.53 0 0 1 10.146-6.187c3.493-2.096 7.087-4.226 10.946-6.388 3.858-2.162 7.984-4.358 12.608-6.852 4.623-2.496 9.746-5.289 18.529-10.179 8.783-4.891 21.226-11.876 28.778-16.334 7.551-4.458 10.213-6.386 12.907-8.382 2.694-1.997 5.422-4.059 7.984-6.321 2.561-2.263 4.957-4.724 7.918-8.217 2.961-3.493 6.486-8.018 10.046-13.04Z" clip-rule="evenodd"/><path stroke="#2B2A29" stroke-miterlimit="22.926" stroke-width="7" d="M235.412 793.276c13.549 1.863 27.1 3.725 39.664 5.055 12.563 1.331 24.141 2.129 35.985 2.728 11.843.599 23.951.999 35.995 1.265 12.042.266 24.018.399 35.263.399 11.245 0 21.756-.133 30.473-.333 8.716-.2 15.637-.465 26.682-1.33 11.044-.865 26.213-2.329 39.327-4.26 13.113-1.933 24.169-4.334 35.225-6.735M235.434 816.827c8.752 1.996 17.504 3.991 27.869 5.722 10.365 1.729 22.34 3.192 34.384 4.391 12.042 1.197 24.151 2.128 34.996 2.727 10.846.6 20.426.865 31.072 1.065 10.645.199 22.355.333 32.336.201 9.98-.134 18.23-.534 28.876-1.066s23.687-1.198 35.264-2.262c11.578-1.065 21.69-2.528 30.479-4.478 8.789-1.951 16.254-4.389 23.718-6.826M414.153 830.387l2.965 305.673M335.156 829.799l-2.468 304.561M417.314 1046.68c5.212 1.89 10.426 3.78 15.495 5.06 5.067 1.27 9.99 1.94 15.313 2.32 5.323.39 11.047.49 16.569.36 5.522-.13 10.845-.5 15.701-1.09 4.857-.58 9.248-1.38 13.839-2.51 4.591-1.13 9.382-2.6 13.494-4.26 4.112-1.66 7.546-3.51 10.979-5.36M416.182 998.595c5.213 1.885 10.426 3.775 15.495 5.055 5.067 1.27 9.991 1.94 15.314 2.33 5.323.38 11.046.49 16.569.35 5.521-.13 10.844-.5 15.7-1.09 4.857-.58 9.248-1.38 13.839-2.51 4.591-1.13 9.382-2.6 13.494-4.255 4.112-1.658 7.546-3.511 10.98-5.365M415.635 937.187c5.213 1.888 10.426 3.776 15.495 5.052 5.067 1.277 9.991 1.943 15.314 2.329 5.323.384 11.046.491 16.569.358 5.521-.134 10.844-.506 15.7-1.091a113.068 113.068 0 0 0 13.839-2.515c4.591-1.131 9.382-2.595 13.494-4.253 4.112-1.659 7.546-3.512 10.98-5.365M414.318 879.345c5.212 1.887 10.426 3.775 15.495 5.052 5.067 1.276 9.99 1.942 15.313 2.328 5.323.384 11.047.491 16.569.358 5.522-.134 10.845-.506 15.701-1.091 4.857-.586 9.248-1.383 13.839-2.515 4.591-1.131 9.382-2.594 13.494-4.253 4.112-1.658 7.546-3.511 10.979-5.365M417.779 1093.6c5.212 1.89 10.426 3.78 15.495 5.05 5.067 1.28 9.99 1.95 15.313 2.33 5.323.39 11.047.49 16.569.36 5.522-.13 10.845-.5 15.701-1.09 4.856-.59 9.248-1.38 13.839-2.51 4.591-1.14 9.381-2.6 13.494-4.26 4.112-1.66 7.545-3.51 10.979-5.36M235.238 1035.18c4.958 2.4 9.917 4.79 15.572 6.62 5.652 1.83 12.002 3.1 17.857 3.83 5.855.73 11.215.93 16.424 1.1 5.209.16 10.266.29 15.253.03 4.986-.26 9.902-.91 15.411-2.37 5.509-1.47 11.609-3.74 17.711-6.01M240.496 1085.97c4.67 2.43 9.343 4.86 14.67 6.71 5.325 1.86 11.307 3.14 16.823 3.88 5.515.74 10.566.95 15.472 1.11 4.907.17 9.672.31 14.369.04 4.697-.26 9.329-.93 14.518-2.41 5.19-1.48 10.937-3.78 16.685-6.08M235.25 933.724c4.959 2.395 9.918 4.789 15.572 6.62 5.653 1.831 12.003 3.096 17.858 3.828 5.855.731 11.215.93 16.424 1.095 5.209.165 10.266.299 15.253.038 4.985-.261 9.901-.915 15.41-2.378s11.61-3.733 17.712-6.004M236.069 985.163c4.958 2.395 9.917 4.789 15.571 6.62 5.653 1.831 12.003 3.096 17.858 3.828 5.855.732 11.216.93 16.424 1.095 5.209.165 10.266.299 15.253.039 4.986-.262 9.902-.916 15.411-2.378 5.509-1.464 11.609-3.734 17.711-6.005M236.08 877.342c4.958 2.395 9.918 4.789 15.572 6.62 5.653 1.831 12.003 3.096 17.858 3.828 5.855.732 11.215.93 16.424 1.095 5.208.165 10.266.299 15.252.038 4.986-.261 9.902-.915 15.411-2.377 5.509-1.464 11.609-3.734 17.711-6.005M417.118 1136.06l-83.859-72.15M415.679 987.688l-80.01 12.072 78.769 65.72-81.179-1.57M334.41 921.805l81.269 65.883"/><path stroke="#2B2A29" stroke-miterlimit="22.926" stroke-width="7" d="m335.156 829.799 77.955 69.698-78.717 24.31"/><path stroke="#2B2A29" stroke-miterlimit="22.926" stroke-width="7" d="M298.219 712.705c2.861-7.118 5.522-8.184 8.251-8.782 2.728-.599 5.521-.731 9.153-.968 3.631-.238 8.098-.58 11.825-1.311 3.726-.732 6.709-1.855 9.466-1.351 2.756.503 5.284 2.633 7.879 6.093 2.595 3.459 5.256 8.248 7.186 13.239 1.929 4.99 3.128 10.178 4.126 14.969.997 4.79 1.795 9.181 1.847 14.744.051 5.564-.646 12.299-1.643 17.356-.999 5.056-2.298 8.432-3.896 11.097-1.597 2.664-3.492 4.615-5.458 4.497-1.967-.119-4.004-2.308-5.572-4.831-1.568-2.523-2.667-5.381-3.636-6.39-.969-1.011-1.807-.174-2.933 2.131-1.128 2.304-2.541 6.076-4.795 7.738-2.255 1.661-5.351 1.211-7.697-.41-2.346-1.623-3.944-4.416-5.273-7.343-1.331-2.928-2.396-5.989-4.192-6.787-1.796-.798-4.325.665-6.551 2.925s-4.149 5.318-6.012 6.516c-1.864 1.197-3.666.535-5.433-1.526-1.766-2.06-3.495-5.521-4.427-10.444-.931-4.923-1.064-11.31.4-21.089 1.463-9.781 4.524-22.954 7.385-30.073ZM301.462 670.8c-6.738 2.341-9.612 5.65-10.551 8.63-.941 2.979.052 5.63 2.414 7.771 2.36 2.141 6.088 3.773 11.8 4.259 5.712.487 13.409-.176 19.71-1.502 6.302-1.327 11.209-3.319 13.786-6.091 2.575-2.775 2.821-6.329.897-9.484-1.924-3.155-6.015-5.912-13.363-6.604-7.348-.694-17.953.679-24.693 3.021ZM272.669 577.981c2.063-3.327 4.724-5.588 7.386-6.985 2.661-1.398 5.323-1.931 8.85-1.864 3.525.065 7.916.731 11.376 2.462 3.46 1.729 5.989 4.523 8.052 7.451 2.062 2.927 3.659 5.987 4.482 10.096.822 4.106.869 9.26 1.003 13.253.133 3.992.35 6.821.992 10.764.641 3.942 1.707 9 3.597 13.836s4.606 9.453 5.87 13.312c1.264 3.859 1.077 6.959.317 9.707-.76 2.748-2.09 5.143-4.485 6.873-2.395 1.73-5.855 2.795-9.448 3.194s-7.318.133-10.506-1.103c-3.19-1.237-5.841-3.443-8.302-5.771a67.604 67.604 0 0 1-7.135-7.869 86.89 86.89 0 0 1-7.258-11.005c-2.328-4.191-4.458-8.849-6.055-13.638a69.384 69.384 0 0 1-3.194-14.838c-.532-5.123-.532-10.444.2-15.3.732-4.858 2.196-9.249 4.258-12.575ZM450.282 712.036c-2.861-7.119-5.522-8.185-8.251-8.782-2.728-.6-5.521-.732-9.153-.969-3.631-.238-8.098-.58-11.824-1.311-3.727-.732-6.71-1.855-9.467-1.351-2.756.503-5.284 2.633-7.879 6.093-2.595 3.459-5.256 8.248-7.186 13.239-1.929 4.99-3.127 10.178-4.126 14.969-.997 4.79-1.795 9.181-1.847 14.744-.051 5.564.646 12.299 1.644 17.356.998 5.056 2.297 8.432 3.895 11.097 1.597 2.664 3.492 4.615 5.458 4.498 1.967-.12 4.004-2.309 5.572-4.832 1.568-2.523 2.667-5.381 3.636-6.39.969-1.011 1.807-.174 2.934 2.131 1.127 2.304 2.54 6.076 4.794 7.738 2.255 1.661 5.352 1.211 7.697-.41 2.346-1.622 3.944-4.416 5.273-7.343 1.332-2.928 2.396-5.989 4.192-6.787 1.796-.798 4.326.665 6.551 2.925 2.227 2.26 4.149 5.318 6.013 6.516 1.863 1.197 3.665.535 5.432-1.525 1.766-2.061 3.495-5.522 4.427-10.445.931-4.923 1.064-11.31-.4-21.089-1.463-9.781-4.524-22.954-7.385-30.072ZM447.039 670.13c6.738 2.341 9.613 5.65 10.552 8.63.94 2.979-.052 5.63-2.414 7.771-2.361 2.141-6.089 3.773-11.801 4.26-5.711.486-13.408-.177-19.71-1.503-6.302-1.327-11.209-3.319-13.785-6.091-2.576-2.775-2.821-6.329-.897-9.484 1.924-3.155 6.015-5.912 13.362-6.604 7.349-.694 17.953.68 24.693 3.021ZM475.832 577.311c-2.063-3.327-4.724-5.588-7.386-6.985-2.661-1.398-5.323-1.931-8.85-1.864-3.525.065-7.917.731-11.376 2.462-3.46 1.729-5.989 4.524-8.052 7.451-2.062 2.927-3.66 5.987-4.482 10.096-.823 4.107-.87 9.26-1.004 13.253-.132 3.992-.349 6.821-.991 10.765-.641 3.942-1.707 8.999-3.597 13.835-1.891 4.836-4.606 9.453-5.87 13.312-1.264 3.859-1.077 6.959-.318 9.707.761 2.748 2.091 5.143 4.486 6.874 2.395 1.729 5.855 2.794 9.448 3.194 3.593.398 7.318.132 10.506-1.104 3.19-1.237 5.84-3.443 8.302-5.771a67.694 67.694 0 0 0 7.135-7.869 86.818 86.818 0 0 0 7.258-11.005c2.328-4.191 4.458-8.849 6.055-13.638a69.37 69.37 0 0 0 3.194-14.838c.532-5.123.532-10.444-.2-15.3-.732-4.858-2.196-9.249-4.258-12.575ZM510.66 507.653c19.294-19.495 56.024-56.349 75.256-75.509 19.229-19.16 20.959-20.624 22.641-21.453 1.68-.828 3.312-1.022 4.699-.409 1.387.612 2.529 2.031 3.244 3.591.713 1.561 1 3.262-2.05 7.441-3.05 4.178-9.437 10.83-22.677 24.07-13.241 13.24-33.335 33.066-48.77 48.302a26735.084 26735.084 0 0 0-33.535 33.133c-7.319 7.252-11.177 11.111-14.105 12.774-2.927 1.663-4.925 1.13-6.055-.599-1.131-1.73-1.398-4.658-.6-7.187.796-2.529 2.656-4.661 21.952-24.154ZM509.284 550.693c1.626-3.217 5.093-6.359 8.542-9.445 3.447-3.086 6.877-6.115 10.36-9.276 3.483-3.161 7.02-6.451 10.358-7.368 3.337-.917 6.475.543 7.767 3.01 1.29 2.468.734 5.942-2.148 9.834-2.881 3.892-8.088 8.201-12.339 11.892-4.252 3.692-7.549 6.768-10.114 8.885-2.566 2.116-4.399 3.274-6.548 3.493-2.148.218-4.612-.503-5.95-2.509-1.339-2.007-1.555-5.298.072-8.516ZM555.305 506.016c1.626-3.218 5.093-6.36 8.542-9.446 3.447-3.086 6.877-6.115 10.36-9.276 3.483-3.16 7.02-6.451 10.358-7.368 3.337-.916 6.475.544 7.767 3.011 1.29 2.467.734 5.941-2.148 9.834-2.881 3.891-8.088 8.2-12.339 11.891-4.252 3.692-7.549 6.768-10.115 8.885-2.565 2.117-4.398 3.274-6.547 3.493-2.148.219-4.612-.503-5.95-2.509-1.339-2.007-1.555-5.298.072-8.515ZM600.536 461.946c1.626-3.217 5.093-6.359 8.542-9.445 3.447-3.086 6.877-6.115 10.36-9.276 3.483-3.161 7.02-6.451 10.358-7.368 3.337-.917 6.475.543 7.767 3.01 1.29 2.468.734 5.942-2.148 9.834-2.881 3.891-8.087 8.201-12.339 11.892-4.252 3.692-7.549 6.768-10.115 8.885-2.565 2.116-4.398 3.274-6.547 3.493-2.148.218-4.612-.504-5.95-2.509-1.339-2.007-1.555-5.298.072-8.516ZM530.883 620.792c1.627-3.218 5.094-6.359 8.542-9.446 3.448-3.086 6.877-6.115 10.361-9.275 3.483-3.161 7.02-6.452 10.358-7.368 3.337-.917 6.475.543 7.766 3.01 1.29 2.467.735 5.942-2.147 9.834-2.882 3.891-8.088 8.2-12.339 11.892-4.252 3.691-7.55 6.767-10.115 8.885-2.565 2.116-4.399 3.273-6.547 3.493-2.149.218-4.612-.504-5.951-2.51-1.338-2.007-1.554-5.297.072-8.515ZM574.854 579.76c1.626-3.218 5.093-6.36 8.542-9.446 3.447-3.086 6.877-6.115 10.36-9.276 3.483-3.16 7.02-6.451 10.358-7.368 3.337-.916 6.476.544 7.767 3.011 1.29 2.467.734 5.941-2.147 9.834-2.882 3.891-8.088 8.2-12.339 11.892-4.253 3.691-7.55 6.767-10.115 8.885-2.565 2.116-4.399 3.273-6.547 3.493-2.149.218-4.613-.504-5.951-2.51-1.338-2.007-1.554-5.298.072-8.515Z" clip-rule="evenodd"/><path stroke="#2B2A29" stroke-miterlimit="22.926" stroke-width="7" d="M509.284 550.693c1.626-3.217 5.093-6.359 8.542-9.445 3.447-3.086 6.877-6.115 10.36-9.276 3.483-3.161 7.02-6.451 10.358-7.368 3.337-.917 6.475.543 7.767 3.01 1.29 2.468.734 5.942-2.148 9.834-2.881 3.892-8.088 8.201-12.339 11.892-4.252 3.692-7.549 6.768-10.114 8.885-2.566 2.116-4.399 3.274-6.548 3.493-2.148.218-4.612-.503-5.95-2.509-1.339-2.007-1.555-5.298.072-8.516ZM619.984 537.66c1.626-3.217 5.093-6.359 8.542-9.445 3.447-3.087 6.877-6.116 10.36-9.276 3.483-3.161 7.02-6.452 10.358-7.368 3.337-.917 6.476.543 7.767 3.01 1.29 2.467.734 5.942-2.147 9.834-2.882 3.891-8.088 8.201-12.34 11.892-4.252 3.691-7.549 6.768-10.114 8.885-2.566 2.116-4.399 3.273-6.548 3.493-2.148.218-4.612-.504-5.95-2.509-1.339-2.007-1.554-5.298.072-8.516ZM560.027 675.654c1.626-3.217 5.093-6.359 8.542-9.445 3.447-3.086 6.877-6.115 10.36-9.276 3.483-3.161 7.02-6.451 10.358-7.368 3.337-.917 6.475.543 7.767 3.01 1.29 2.468.734 5.942-2.148 9.834-2.881 3.892-8.087 8.201-12.339 11.892-4.252 3.692-7.549 6.768-10.114 8.885-2.566 2.116-4.399 3.274-6.548 3.493-2.148.218-4.612-.504-5.95-2.509-1.339-2.007-1.554-5.298.072-8.516ZM607.61 629.841c1.627-3.218 5.094-6.36 8.542-9.446 3.447-3.086 6.877-6.115 10.361-9.276 3.483-3.16 7.019-6.451 10.358-7.368 3.336-.916 6.475.544 7.766 3.011 1.29 2.467.735 5.941-2.147 9.834-2.882 3.891-8.088 8.2-12.339 11.892-4.252 3.691-7.55 6.767-10.115 8.885-2.565 2.116-4.399 3.273-6.547 3.493-2.149.218-4.612-.504-5.951-2.51-1.338-2.007-1.554-5.297.072-8.515ZM575.796 743.927c1.626-3.218 5.093-6.36 8.542-9.446 3.447-3.086 6.877-6.115 10.36-9.276 3.484-3.16 7.02-6.451 10.358-7.368 3.337-.916 6.476.544 7.767 3.011 1.29 2.467.734 5.941-2.147 9.834-2.882 3.891-8.088 8.2-12.339 11.892-4.253 3.691-7.55 6.767-10.115 8.885-2.566 2.116-4.399 3.273-6.547 3.493-2.149.218-4.613-.504-5.951-2.51-1.339-2.007-1.554-5.298.072-8.515ZM615.833 705.003c1.627-3.218 5.094-6.36 8.542-9.446 3.448-3.086 6.878-6.115 10.361-9.275 3.483-3.161 7.02-6.452 10.358-7.368 3.337-.917 6.475.543 7.766 3.01 1.291 2.467.735 5.942-2.147 9.834-2.881 3.891-8.088 8.2-12.339 11.892-4.252 3.691-7.549 6.767-10.115 8.885-2.565 2.116-4.398 3.273-6.547 3.493-2.148.218-4.612-.504-5.95-2.51-1.339-2.007-1.555-5.297.071-8.515ZM541.209 572.567c19.294-19.495 56.024-56.349 75.256-75.509 19.229-19.16 20.959-20.624 22.641-21.452 1.681-.829 3.312-1.023 4.699-.41 1.387.612 2.529 2.031 3.244 3.591.713 1.561 1.001 3.262-2.05 7.441-3.05 4.178-9.437 10.83-22.677 24.07-13.241 13.24-33.335 33.066-48.77 48.302a26735.084 26735.084 0 0 0-33.535 33.133c-7.319 7.252-11.177 11.111-14.105 12.774-2.927 1.663-4.924 1.13-6.054-.599-1.132-1.73-1.398-4.658-.601-7.187.797-2.529 2.656-4.661 21.952-24.154ZM510.66 507.653c19.294-19.495 56.024-56.349 75.256-75.509 19.229-19.16 20.959-20.624 22.641-21.453 1.68-.828 3.312-1.022 4.699-.409 1.387.612 2.529 2.031 3.244 3.591.713 1.561 1 3.262-2.05 7.441-3.05 4.178-9.437 10.83-22.677 24.07-13.241 13.24-33.335 33.066-48.77 48.302a26735.084 26735.084 0 0 0-33.535 33.133c-7.319 7.252-11.177 11.111-14.105 12.774-2.927 1.663-4.925 1.13-6.055-.599-1.131-1.73-1.398-4.658-.6-7.187.796-2.529 2.656-4.661 21.952-24.154ZM565.721 637.718c14.148-14.297 41.085-41.325 55.19-55.375 14.101-14.053 15.37-15.126 16.603-15.734 1.233-.607 2.429-.749 3.447-.3 1.017.449 1.854 1.49 2.379 2.634.523 1.145.734 2.392-1.504 5.457-2.236 3.064-6.92 7.943-16.629 17.653-9.711 9.71-24.448 24.248-35.767 35.422a19631.479 19631.479 0 0 0-24.594 24.299c-5.367 5.318-8.197 8.147-10.343 9.368-2.147 1.219-3.612.828-4.441-.439-.83-1.269-1.024-3.416-.44-5.272.584-1.854 1.947-3.418 16.099-17.713ZM580.109 706.061a11515.672 11515.672 0 0 1 43.525-43.67c11.122-11.081 12.121-11.928 13.094-12.407.972-.479 1.915-.592 2.718-.237.802.353 1.462 1.174 1.876 2.076.413.903.579 1.888-1.185 4.304-1.764 2.417-5.458 6.264-13.116 13.922-7.657 7.657-19.279 19.123-28.207 27.935a15419.012 15419.012 0 0 0-19.395 19.163c-4.232 4.193-6.464 6.425-8.157 7.388-1.692.961-2.848.653-3.502-.348-.654-1-.808-2.693-.346-4.156.46-1.463 1.536-2.696 12.695-13.97ZM603.376 758.99c1.985-3.926 6.215-7.76 10.423-11.525 4.206-3.766 8.392-7.462 12.641-11.318 4.25-3.857 8.566-7.872 12.64-8.991 4.071-1.119 7.9.664 9.476 3.673 1.574 3.01.895 7.25-2.62 12-3.517 4.748-9.869 10.006-15.056 14.51-5.189 4.504-9.212 8.257-12.342 10.841-3.13 2.582-5.367 3.994-7.989 4.262-2.621.267-5.627-.614-7.261-3.061-1.632-2.45-1.896-6.465.088-10.391ZM619.142 794.189c1.72-3.209 5.624-6.716 9.296-10.09 3.672-3.375 7.113-6.616 9.693-8.733 2.58-2.118 4.301-3.11 5.955-3.176 1.654-.067 3.242.794 4.069 3.209.826 2.414.893 6.384.661 11.115-.232 4.73-.76 10.221-1.52 15.448-.762 5.226-1.755 10.189-3.011 13.828-1.258 3.638-2.78 5.954-4.963 7.113-2.184 1.157-5.029 1.157-7.609-.166-2.581-1.324-4.897-3.97-7.08-7.443-2.183-3.474-4.235-7.775-5.491-11.381-1.257-3.605-1.721-6.515 0-9.724ZM185.873 508.554c-1.626-3.218-5.093-6.36-8.542-9.446-3.447-3.086-6.877-6.115-10.36-9.276-3.484-3.16-7.02-6.451-10.358-7.368-3.337-.916-6.476.544-7.767 3.011-1.29 2.467-.734 5.941 2.147 9.834 2.882 3.891 8.088 8.2 12.339 11.892 4.253 3.691 7.55 6.767 10.115 8.885 2.565 2.116 4.399 3.273 6.547 3.493 2.149.218 4.612-.504 5.951-2.51 1.338-2.007 1.554-5.298-.072-8.515ZM140.642 464.484c-1.627-3.217-5.094-6.359-8.542-9.445-3.448-3.086-6.878-6.115-10.361-9.276-3.483-3.161-7.02-6.451-10.358-7.368-3.337-.917-6.475.543-7.766 3.011-1.291 2.467-.735 5.941 2.147 9.833 2.882 3.892 8.088 8.201 12.339 11.892 4.252 3.692 7.549 6.768 10.115 8.885 2.565 2.116 4.398 3.274 6.547 3.493 2.148.218 4.612-.503 5.951-2.509 1.338-2.007 1.554-5.298-.072-8.516ZM210.294 623.33c-1.626-3.217-5.093-6.359-8.542-9.446-3.447-3.086-6.877-6.115-10.36-9.275-3.483-3.161-7.02-6.452-10.358-7.368-3.337-.917-6.475.543-7.767 3.01-1.29 2.467-.734 5.942 2.148 9.834 2.881 3.891 8.088 8.2 12.339 11.892 4.252 3.691 7.549 6.768 10.115 8.885 2.565 2.116 4.398 3.273 6.547 3.493 2.148.218 4.612-.504 5.95-2.509 1.339-2.007 1.555-5.298-.072-8.516ZM166.323 582.298c-1.626-3.218-5.093-6.36-8.542-9.446-3.447-3.086-6.877-6.115-10.36-9.275-3.483-3.161-7.02-6.452-10.358-7.368-3.337-.917-6.475.543-7.767 3.01-1.29 2.467-.734 5.942 2.147 9.834 2.882 3.891 8.088 8.2 12.34 11.892 4.252 3.691 7.549 6.767 10.114 8.885 2.566 2.116 4.399 3.273 6.548 3.493 2.148.218 4.612-.504 5.95-2.51 1.339-2.007 1.554-5.297-.072-8.515ZM231.894 553.232c-1.627-3.218-5.094-6.36-8.542-9.446-3.448-3.086-6.878-6.115-10.361-9.276-3.483-3.16-7.02-6.451-10.358-7.368-3.337-.917-6.475.543-7.766 3.011-1.291 2.467-.735 5.941 2.147 9.834 2.881 3.891 8.088 8.2 12.339 11.891 4.252 3.692 7.549 6.768 10.115 8.885 2.565 2.116 4.398 3.274 6.547 3.493 2.148.219 4.612-.503 5.95-2.509 1.339-2.007 1.555-5.298-.071-8.515ZM121.193 540.198c-1.626-3.217-5.093-6.359-8.542-9.445-3.447-3.086-6.877-6.116-10.36-9.276-3.483-3.161-7.02-6.451-10.358-7.368-3.337-.917-6.475.543-7.767 3.01-1.29 2.468-.734 5.942 2.148 9.834 2.881 3.891 8.088 8.201 12.339 11.892 4.252 3.691 7.549 6.768 10.114 8.885 2.566 2.116 4.399 3.273 6.548 3.493 2.148.218 4.612-.504 5.95-2.509 1.339-2.007 1.555-5.298-.072-8.516ZM181.151 678.192c-1.627-3.217-5.094-6.359-8.542-9.445-3.447-3.086-6.877-6.115-10.361-9.276-3.483-3.16-7.019-6.451-10.358-7.368-3.336-.917-6.475.543-7.766 3.011-1.29 2.467-.735 5.941 2.147 9.833 2.882 3.892 8.088 8.201 12.339 11.892 4.252 3.692 7.55 6.768 10.115 8.885 2.565 2.116 4.399 3.274 6.547 3.493 2.149.219 4.612-.503 5.951-2.509 1.338-2.007 1.554-5.298-.072-8.516ZM133.567 632.379c-1.626-3.218-5.093-6.36-8.542-9.446-3.447-3.086-6.877-6.115-10.361-9.275-3.483-3.161-7.019-6.452-10.357-7.368-3.337-.917-6.476.543-7.767 3.01-1.29 2.467-.734 5.942 2.147 9.834 2.882 3.891 8.088 8.2 12.339 11.892 4.253 3.691 7.55 6.767 10.115 8.885 2.565 2.116 4.399 3.273 6.547 3.493 2.149.218 4.612-.504 5.951-2.51 1.338-2.007 1.554-5.297-.072-8.515ZM165.382 746.465c-1.626-3.218-5.094-6.36-8.542-9.446-3.447-3.086-6.877-6.115-10.361-9.275-3.483-3.161-7.02-6.452-10.358-7.368-3.337-.917-6.475.543-7.766 3.01-1.29 2.467-.735 5.942 2.147 9.834 2.882 3.891 8.088 8.2 12.339 11.892 4.252 3.691 7.55 6.767 10.115 8.885 2.565 2.116 4.399 3.273 6.547 3.493 2.149.218 4.612-.504 5.951-2.51 1.338-2.007 1.554-5.297-.072-8.515ZM125.344 707.541c-1.626-3.217-5.093-6.359-8.542-9.446-3.447-3.086-6.877-6.115-10.36-9.275-3.484-3.161-7.02-6.452-10.358-7.368-3.337-.917-6.475.543-7.767 3.01-1.29 2.467-.734 5.942 2.147 9.834 2.882 3.891 8.088 8.2 12.339 11.892 4.253 3.691 7.55 6.767 10.115 8.885 2.566 2.116 4.399 3.273 6.548 3.493 2.148.218 4.612-.504 5.95-2.51 1.339-2.006 1.554-5.297-.072-8.515ZM199.969 575.105c-19.295-19.494-56.025-56.349-75.256-75.509-19.23-19.16-20.959-20.624-22.642-21.452-1.68-.829-3.312-1.022-4.698-.41-1.387.612-2.53 2.031-3.244 3.591-.714 1.561-1.002 3.263 2.049 7.441 3.05 4.178 9.437 10.83 22.677 24.07 13.241 13.241 33.335 33.066 48.771 48.302a28215.23 28215.23 0 0 1 33.535 33.133c7.318 7.252 11.176 11.111 14.104 12.774 2.927 1.664 4.925 1.13 6.055-.599 1.131-1.73 1.398-4.658.6-7.187-.796-2.529-2.656-4.661-21.951-24.154ZM230.518 510.191c-19.294-19.494-56.025-56.349-75.256-75.509-19.23-19.16-20.959-20.624-22.641-21.452-1.681-.829-3.312-1.023-4.699-.41-1.387.612-2.53 2.031-3.244 3.591-.713 1.561-1.001 3.262 2.049 7.441 3.051 4.178 9.438 10.83 22.677 24.07 13.241 13.241 33.336 33.066 48.771 48.302a28215.23 28215.23 0 0 1 33.535 33.133c7.319 7.252 11.177 11.111 14.104 12.774 2.928 1.664 4.925 1.13 6.055-.599 1.131-1.73 1.398-4.658.6-7.187-.796-2.529-2.655-4.661-21.951-24.154ZM175.457 640.256c-14.149-14.297-41.086-41.325-55.19-55.375-14.102-14.053-15.371-15.126-16.604-15.733-1.233-.608-2.429-.75-3.446-.301-1.017.449-1.855 1.49-2.38 2.634-.523 1.145-.734 2.392 1.504 5.458 2.237 3.063 6.921 7.942 16.63 17.652 9.71 9.71 24.447 24.248 35.767 35.422a20187.532 20187.532 0 0 1 24.593 24.299c5.368 5.318 8.197 8.147 10.343 9.368 2.148 1.219 3.613.829 4.441-.439.83-1.269 1.025-3.416.441-5.272-.585-1.854-1.948-3.418-16.099-17.713ZM161.068 708.599a11441.742 11441.742 0 0 0-43.524-43.669c-11.122-11.082-12.122-11.929-13.095-12.408-.972-.479-1.915-.592-2.718-.237-.802.353-1.462 1.175-1.875 2.076-.413.903-.58 1.888 1.184 4.305 1.764 2.416 5.459 6.264 13.116 13.921 7.658 7.657 19.28 19.123 28.207 27.935 8.928 8.812 15.161 14.968 19.395 19.163 4.233 4.194 6.464 6.425 8.158 7.388 1.692.961 2.848.653 3.501-.348.654-.999.808-2.693.346-4.156-.46-1.463-1.535-2.696-12.695-13.97ZM137.801 761.528c-1.985-3.926-6.215-7.76-10.423-11.525-4.206-3.766-8.391-7.462-12.641-11.318-4.25-3.857-8.566-7.872-12.639-8.991-4.072-1.119-7.901.664-9.477 3.673-1.574 3.01-.895 7.25 2.62 12 3.517 4.748 9.87 10.006 15.056 14.51 5.189 4.504 9.212 8.257 12.343 10.841 3.129 2.583 5.366 3.994 7.988 4.262 2.622.267 5.627-.614 7.261-3.061 1.632-2.45 1.897-6.465-.088-10.391ZM122.036 796.727c-1.721-3.209-5.625-6.716-9.296-10.09-3.672-3.375-7.113-6.616-9.694-8.733-2.58-2.118-4.3-3.11-5.955-3.176-1.654-.067-3.241.794-4.069 3.209-.826 2.414-.893 6.384-.661 11.115.232 4.73.76 10.221 1.52 15.448.762 5.226 1.755 10.189 3.011 13.828 1.258 3.639 2.78 5.954 4.964 7.113 2.183 1.157 5.028 1.157 7.609-.166 2.58-1.324 4.896-3.97 7.079-7.443 2.183-3.474 4.235-7.775 5.492-11.38 1.256-3.606 1.72-6.516 0-9.725Z" clip-rule="evenodd"/><path stroke="#2B2A29" stroke-miterlimit="22.926" stroke-width="7" d="M271.883 193.546c-2.252 5.107-4.502 10.212-7.943 15.876-3.442 5.662-8.073 11.88-13.233 17.703-5.162 5.822-10.852 11.248-16.013 16.078-5.161 4.829-9.792 9.064-15.151 13.628-5.36 4.565-11.448 9.462-17.535 13.895a255.067 255.067 0 0 1-17.4 11.577c-5.228 3.175-9.595 5.558-14.557 7.808-4.962 2.249-10.521 4.365-17.005 7.078-6.484 2.713-13.893 6.021-20.708 9.462-6.815 3.44-13.035 7.013-19.519 11.181-6.484 4.168-13.234 8.932-19.916 13.828-6.682 4.896-13.3 9.923-18.658 15.216-5.36 5.293-9.461 10.851-12.9 16.011-3.442 5.16-6.222 9.925-8.868 15.549-2.647 5.622-5.161 12.106-7.311 19.753-2.15 7.647-3.935 16.456-5.257 24.793-1.324 8.337-2.186 16.199-2.748 28.268-.563 12.069-.829 28.344-1.357 55.139-.53 26.796-1.324 64.11-1.76 128.364-.434 64.254-.51 155.447-.587 246.64"/><path stroke="#2B2A29" stroke-miterlimit="22.926" stroke-width="7" d="M292.824 201.085c-2.251 5.107-4.501 10.212-7.942 15.876-3.443 5.662-8.074 11.88-13.234 17.703-5.162 5.822-10.852 11.248-16.012 16.078-5.162 4.829-9.792 9.064-15.151 13.628-5.36 4.565-11.449 9.462-17.536 13.895a255.067 255.067 0 0 1-17.4 11.577c-5.227 3.176-9.595 5.558-14.557 7.808-4.962 2.249-10.52 4.365-17.004 7.078-6.484 2.713-13.893 6.021-20.709 9.462-6.815 3.44-13.035 7.013-19.518 11.181-6.484 4.168-13.234 8.932-19.916 13.828-6.683 4.896-13.299 9.923-18.658 15.216-5.36 5.293-9.461 10.851-12.901 16.011-3.441 5.16-6.221 9.925-8.867 15.549-2.647 5.622-5.162 12.106-7.311 19.753-2.15 7.647-3.935 16.457-5.258 24.793-1.323 8.337-2.185 16.199-2.747 28.268-.564 12.069-.83 28.344-1.358 55.14-.53 26.795-1.323 64.109-1.756 126.41-.434 62.301-.506 149.587-.58 236.874"/><path stroke="#2B2A29" stroke-miterlimit="22.926" stroke-width="7" d="M309.6 207.369c-2.252 5.107-4.502 10.212-7.943 15.876-3.443 5.663-8.073 11.881-13.234 17.703-5.161 5.823-10.851 11.248-16.012 16.078-5.161 4.829-9.792 9.064-15.151 13.629-5.36 4.564-11.448 9.461-17.535 13.895a255.029 255.029 0 0 1-17.4 11.576c-5.228 3.176-9.595 5.559-14.557 7.809-4.962 2.248-10.521 4.365-17.005 7.077-6.484 2.713-13.893 6.021-20.708 9.462-6.815 3.44-13.035 7.013-19.519 11.181-6.484 4.168-13.234 8.932-19.916 13.828-6.682 4.896-13.299 9.923-18.658 15.216-5.36 5.293-9.461 10.851-12.901 16.011-3.441 5.16-6.22 9.925-8.867 15.549-2.647 5.623-5.162 12.106-7.311 19.753-2.15 7.647-3.935 16.457-5.257 24.793-1.324 8.337-2.186 16.199-2.748 28.268-.563 12.069-.829 28.345-1.357 55.14-.53 26.795-1.324 64.109-1.757 126.329-.434 62.218-.506 149.342-.579 236.465M474.143 202.576c2.251 5.107 4.501 10.212 7.943 15.876 3.442 5.663 8.072 11.881 13.233 17.703 5.161 5.823 10.852 11.248 16.012 16.078 5.162 4.829 9.792 9.064 15.151 13.629 5.36 4.564 11.448 9.461 17.535 13.895a255.032 255.032 0 0 0 17.401 11.576c5.227 3.176 9.595 5.559 14.557 7.809 4.961 2.248 10.52 4.365 17.004 7.077 6.484 2.713 13.893 6.021 20.709 9.462 6.815 3.44 13.035 7.013 19.519 11.181 6.483 4.168 13.233 8.932 19.915 13.828 6.683 4.896 13.299 9.923 18.658 15.216 5.36 5.293 9.461 10.851 12.901 16.011 3.441 5.16 6.221 9.925 8.867 15.549 2.647 5.623 5.162 12.106 7.311 19.753 2.15 7.647 3.935 16.457 5.258 24.793 1.323 8.337 2.185 16.199 2.747 28.268.564 12.069.829 28.344 1.357 55.14.53 26.795 1.324 64.109 1.608 131.775.285 67.667.059 165.684-.165 263.702"/><path stroke="#2B2A29" stroke-miterlimit="22.926" stroke-width="7" d="M453.201 210.115c2.251 5.107 4.501 10.212 7.942 15.876 3.443 5.663 8.073 11.881 13.234 17.703 5.161 5.823 10.851 11.248 16.012 16.078 5.161 4.829 9.792 9.064 15.151 13.629 5.36 4.564 11.448 9.461 17.535 13.895a255.029 255.029 0 0 0 17.4 11.576c5.228 3.176 9.595 5.559 14.557 7.809 4.962 2.249 10.521 4.365 17.005 7.077 6.484 2.713 13.893 6.021 20.709 9.462 6.815 3.44 13.034 7.013 19.518 11.181 6.484 4.168 13.234 8.932 19.916 13.828 6.683 4.896 13.299 9.924 18.658 15.216 5.36 5.293 9.461 10.851 12.901 16.011 3.441 5.161 6.221 9.925 8.867 15.549 2.647 5.623 5.162 12.106 7.311 19.753 2.15 7.647 3.935 16.457 5.258 24.794 1.323 8.336 2.185 16.198 2.747 28.267.563 12.069.829 28.345 1.357 55.14.53 26.795 1.324 64.109 1.749 131.474.427 67.364.487 164.776.545 262.19"/><path stroke="#2B2A29" stroke-miterlimit="22.926" stroke-width="7" d="M436.426 216.399c2.251 5.107 4.501 10.213 7.942 15.876 3.443 5.663 8.073 11.881 13.234 17.703 5.161 5.823 10.852 11.248 16.012 16.079 5.162 4.828 9.792 9.063 15.151 13.628 5.36 4.565 11.448 9.462 17.535 13.895a255.197 255.197 0 0 0 17.401 11.577c5.227 3.175 9.595 5.558 14.557 7.808 4.962 2.249 10.52 4.365 17.004 7.078 6.484 2.712 13.893 6.021 20.709 9.461 6.815 3.44 13.035 7.014 19.518 11.181 6.484 4.168 13.234 8.933 19.916 13.828 6.683 4.896 13.3 9.924 18.658 15.216 5.361 5.293 9.462 10.852 12.901 16.012 3.441 5.16 6.221 9.924 8.867 15.548 2.647 5.623 5.162 12.106 7.312 19.754 2.149 7.647 3.934 16.456 5.257 24.793 1.323 8.336 2.185 16.198 2.747 28.267.564 12.069.829 28.345 1.357 55.14.53 26.795 1.324 64.109 1.757 130.032.434 65.922.507 160.453.58 254.983"/></svg>