<svg width="739" height="1140" viewBox="0 0 739 1140" fill="none" xmlns="http://www.w3.org/2000/svg">
<path d="M429.36 111.784C447.77 111.784 462.694 96.9505 462.694 78.652C462.694 60.3534 447.77 45.5195 429.36 45.5195C410.95 45.5195 396.026 60.3534 396.026 78.652C396.026 96.9505 410.95 111.784 429.36 111.784Z" stroke="#2B2A29" stroke-width="7" stroke-miterlimit="22.9256"/>
<path d="M318.181 112.064C336.591 112.064 351.515 97.2298 351.515 78.9313C351.515 60.6327 336.591 45.7988 318.181 45.7988C299.771 45.7988 284.847 60.6327 284.847 78.9313C284.847 97.2298 299.771 112.064 318.181 112.064Z" stroke="#2B2A29" stroke-width="7" stroke-miterlimit="22.9256"/>
<path d="M318.479 95.6981C327.684 95.6981 335.147 88.2809 335.147 79.1313C335.147 69.9817 327.684 62.5645 318.479 62.5645C309.273 62.5645 301.811 69.9817 301.811 79.1313C301.811 88.2809 309.273 95.6981 318.479 95.6981Z" stroke="#2B2A29" stroke-width="7" stroke-miterlimit="22.9256"/>
<path d="M428.748 95.4179C437.954 95.4179 445.417 88.0006 445.417 78.851C445.417 69.7014 437.954 62.2842 428.748 62.2842C419.543 62.2842 412.08 69.7014 412.08 78.851C412.08 88.0006 419.543 95.4179 428.748 95.4179Z" stroke="#2B2A29" stroke-width="7" stroke-miterlimit="22.9256"/>
<path d="M396.841 71.3438C395.305 74.9372 393.768 78.5307 393.134 81.8574C392.499 85.1842 392.765 88.2443 392.832 91.571C392.899 94.8978 392.765 98.49 392.699 102.149C392.632 105.808 392.632 109.535 392.671 113.219C392.709 116.903 392.785 120.546 392.252 124.272C391.72 127.997 390.579 131.806 388.811 134.841C387.042 137.877 384.648 140.138 382.187 141.601C379.725 143.065 377.196 143.731 374.402 143.399C371.607 143.065 368.546 141.735 366.018 139.807C363.49 137.877 361.494 135.349 359.897 132.488C358.301 129.627 357.102 126.434 355.706 124.171C354.309 121.909 352.711 120.579 350.782 119.582C348.852 118.583 346.591 117.917 344.794 117.652C342.997 117.385 341.667 117.518 338.984 118.467C336.301 119.414 332.267 121.179 328.327 123.727C324.386 126.274 320.542 129.604 316.619 132.978C312.696 136.352 308.695 139.769 306.539 142.682C304.382 145.594 304.07 148.001 305.552 149.067C307.034 150.134 310.312 149.86 315.228 148.033C320.142 146.206 326.697 142.825 333.883 138.967C341.068 135.108 348.885 130.77 356.703 126.434" stroke="#2B2A29" stroke-width="7" stroke-miterlimit="22.9256"/>
<path d="M394.425 120.265C399.202 121.477 403.98 122.687 408.232 123.892C412.484 125.096 416.209 126.294 420.002 127.958C423.794 129.62 427.653 131.75 431.313 133.745C434.972 135.741 438.433 137.604 440.68 139.87C442.926 142.137 443.959 144.806 443.694 146.869C443.427 148.93 441.86 150.387 438.417 150.183C434.972 149.979 429.649 148.117 424.261 145.921C418.871 143.726 413.415 141.196 407.751 138.765C402.086 136.333 396.213 133.997 390.34 131.661" stroke="#2B2A29" stroke-width="7" stroke-miterlimit="22.9256"/>
<path fill-rule="evenodd" clip-rule="evenodd" d="M215.116 202.678C218.675 197.654 222.269 192.133 225.695 185.713C229.121 179.293 232.382 171.974 235.077 165.388C237.771 158.801 239.901 152.946 241.664 146.36C243.426 139.773 244.824 132.455 245.789 125.502C246.753 118.55 247.285 111.963 248.217 105.81C249.149 99.6549 250.48 93.9329 252.177 88.3449C253.874 82.7556 255.935 77.3004 257.832 72.9428C259.729 68.5853 261.458 65.3243 263.121 62.5309C264.785 59.7362 266.381 57.4068 268.888 54.1767C271.395 50.9455 274.812 46.8125 277.407 43.8194C280.002 40.825 281.774 38.9694 284.092 36.8123C286.408 34.654 289.269 32.1918 291.964 30.0298C294.658 27.8678 297.187 26.0047 299.915 24.0424C302.643 22.0788 305.57 20.0173 309.064 18.1877C312.557 16.3581 316.616 14.7604 321.173 13.2645C325.731 11.7673 330.788 10.3694 335.978 8.93922C341.167 7.50903 346.49 6.04535 352.545 5.14729C358.6 4.24924 365.385 3.91681 372.371 4.01729C379.358 4.11652 386.544 4.64865 392.798 5.38049C399.053 6.11233 404.374 7.04387 409.93 8.54104C415.487 10.0382 421.275 12.0998 427.031 14.6289C432.786 17.1569 438.507 20.15 443.598 23.1443C448.688 26.1386 453.145 29.1317 457.769 32.7587C462.394 36.3844 467.183 40.6415 470.876 44.5004C474.569 48.3593 477.164 51.8187 479.926 56.2768C482.687 60.7335 485.614 66.1901 487.911 70.7808C490.205 75.3715 491.869 79.0965 493.766 83.9874C495.661 88.877 497.791 94.9314 499.953 101.318C502.115 107.705 504.311 114.424 506.041 120.346C507.771 126.267 509.035 131.391 510.465 136.713C511.895 142.036 513.493 147.557 515.057 153.279C516.62 159.001 518.15 164.921 519.914 170.643C521.676 176.365 523.672 181.888 525.468 186.112C527.265 190.337 528.862 193.264 531.159 196.524C533.453 199.784 536.447 203.378 539.841 207.236C543.233 211.094 547.027 215.22 550.387 218.38C553.746 221.539 556.674 223.735 559.668 225.865C562.662 227.993 565.723 230.055 569.815 232.551C573.906 235.045 579.03 237.972 584.719 241.034C590.407 244.094 596.661 247.287 601.95 250.081C607.239 252.876 611.565 255.271 616.057 257.666C620.547 260.061 625.204 262.457 629.895 265.018C634.586 267.58 639.311 270.307 644.335 273.767C649.357 277.226 654.679 281.418 658.838 284.545C662.996 287.672 665.99 289.733 670.282 293.226C674.574 296.719 680.162 301.644 684.355 305.269C688.547 308.895 691.34 311.224 694.168 314.152C696.995 317.079 699.857 320.604 702.352 324.064C704.846 327.523 706.976 330.917 709.438 336.273C711.9 341.628 714.693 348.946 717.488 356.698C720.283 364.448 723.078 372.632 725.273 379.784C727.469 386.936 729.065 393.056 730.163 398.911C731.261 404.766 731.86 410.355 732.326 417.873C732.792 425.391 733.124 434.838 733.457 447.014C733.789 459.188 734.123 474.092 734.39 489.826C734.655 505.561 734.853 522.127 734.887 534.036C734.92 545.945 734.788 553.198 734.722 598.14C734.655 643.081 734.655 725.712 734.855 778.937C735.054 832.162 735.452 855.98 735.253 869.519C735.053 883.058 734.256 886.318 732.725 889.578C731.194 892.838 728.933 896.098 726.371 899.126C723.809 902.153 720.948 904.946 717.456 907.409C713.963 909.87 709.837 911.999 705.479 913.629C701.121 915.259 696.53 916.39 691.573 916.624C686.616 916.857 681.293 916.191 676.437 914.76C671.579 913.33 667.188 911.135 662.954 908.388C658.719 905.642 654.643 902.345 650.352 898.852C646.06 895.359 641.554 891.67 637.206 887.996C632.857 884.322 628.664 880.663 624.339 876.572C620.014 872.48 615.557 867.955 610.101 861.934C604.644 855.913 598.191 848.395 592.469 841.51C586.747 834.623 581.758 828.37 576.701 821.617C571.644 814.864 566.521 807.612 562.363 801.359C558.204 795.105 555.01 789.848 552.482 785.391C549.953 780.933 548.091 777.274 546.428 773.748C544.764 770.221 543.3 766.829 541.704 763.236C540.106 759.643 538.377 755.851 537.079 752.093C535.782 748.333 534.916 744.608 534.085 740.516C533.252 736.424 532.455 731.967 531.656 728.407C530.857 724.847 530.06 722.186 528.829 720.124C527.597 718.061 525.935 716.597 524.305 715.766C522.675 714.934 521.077 714.734 519.78 715.266C518.482 715.798 517.485 717.064 516.686 718.628C515.887 720.191 515.289 722.052 514.624 725.911C513.958 729.77 513.226 735.625 514.124 797.067C515.022 858.508 517.552 975.536 518.616 1036.11C519.681 1096.69 519.281 1100.81 518.516 1103.71C517.75 1106.6 516.62 1108.27 515.19 1110.1C513.758 1111.93 512.029 1113.92 509.567 1116.32C507.104 1118.71 503.911 1121.5 500.685 1124.07C497.457 1126.63 494.197 1128.96 490.073 1130.65C485.947 1132.35 480.956 1133.42 476.532 1134.05C472.107 1134.68 468.249 1134.88 461.163 1135.11C454.077 1135.34 443.764 1135.61 433.318 1135.81C422.872 1136.01 412.292 1136.14 400.915 1136.18C389.537 1136.21 377.362 1136.14 364.287 1135.78C351.213 1135.41 337.241 1134.74 325.863 1133.88C314.486 1133.02 305.703 1131.95 298.784 1130.75C291.864 1129.55 286.807 1128.23 282.383 1126.43C277.959 1124.63 274.165 1122.37 271.172 1120.24C268.178 1118.11 265.982 1116.12 263.654 1113.92C261.325 1111.73 258.863 1109.33 256.135 1106.4C253.407 1103.48 250.414 1100.02 247.985 1097.02C245.556 1094.03 243.693 1091.5 241.964 1088.21C240.233 1084.91 238.636 1080.86 237.571 1076.5C236.507 1072.14 235.975 1067.48 235.642 1062.73C235.31 1057.97 235.176 1053.11 235.243 994.764C235.31 936.417 235.575 824.577 235.343 767.493C235.11 710.41 234.378 708.081 233.347 706.351C232.315 704.621 230.986 703.491 229.789 702.56C228.59 701.628 227.525 700.896 225.928 700.464C224.332 700.032 222.202 699.898 220.34 700.431C218.477 700.963 216.879 702.16 215.249 703.491C213.619 704.822 211.956 706.286 210.092 708.481C208.229 710.677 206.167 713.604 204.405 716.466C202.641 719.326 201.177 722.119 184.777 750.728C168.375 779.337 137.038 833.758 120.771 861.835C104.502 889.911 103.305 891.641 101.94 892.839C100.576 894.036 99.0461 894.702 96.2848 895.001C93.5235 895.3 89.5317 895.234 86.0385 895.101C82.5453 894.967 79.552 894.768 77.5896 893.604C75.6259 892.439 74.6943 890.31 73.7292 888.048C72.7641 885.786 71.7668 883.391 69.9706 881.495C68.1731 879.599 65.5793 878.201 62.586 877.502C59.5915 876.804 56.1976 876.804 53.1373 877.437C50.0771 878.068 47.3481 879.332 44.9527 880.297C42.5574 881.262 40.4956 881.927 37.9675 881.927C35.4382 881.927 32.4449 881.262 29.0522 880.264C25.6583 879.265 21.865 877.935 18.2725 877.071C14.6801 876.205 11.2862 875.807 8.89205 875.175C6.49669 874.543 5.09862 873.677 4.43372 871.881C3.76883 870.085 3.8346 867.357 4.86668 792.443C5.89751 717.529 7.89344 570.429 8.99126 495.216C10.0891 420.002 10.2888 416.675 10.6882 413.083C11.0876 409.489 11.6856 405.632 12.2513 402.405C12.8169 399.178 13.3491 396.583 13.9148 394.255C14.4804 391.925 15.0783 389.864 15.7109 387.601C16.3423 385.339 17.0085 382.878 18.0406 379.818C19.0714 376.756 20.4682 373.097 22.1651 369.139C23.8621 365.18 25.858 360.922 28.1864 356.066C30.5148 351.209 33.1768 345.752 36.5372 340.097C39.8964 334.442 43.9554 328.588 46.9164 324.562C49.8774 320.537 51.7394 318.342 53.703 316.213C55.6655 314.084 57.7271 312.022 59.9227 309.993C62.1184 307.963 64.448 305.968 67.4425 303.639C70.4358 301.311 74.0951 298.649 77.2558 296.421C80.4166 294.192 83.0775 292.395 85.9727 290.5C88.8668 288.603 91.9928 286.607 95.254 284.578C98.514 282.549 101.907 280.486 105.4 278.391C108.893 276.295 112.487 274.165 116.346 272.003C120.204 269.841 124.33 267.645 128.954 265.151C133.577 262.655 138.7 259.862 147.483 254.972C156.266 250.081 168.709 243.096 176.261 238.638C183.812 234.18 186.474 232.252 189.168 230.256C191.862 228.259 194.59 226.197 197.152 223.935C199.713 221.672 202.109 219.211 205.07 215.718C208.031 212.225 211.556 207.7 215.116 202.678V202.678Z" stroke="#2B2A29" stroke-width="7" stroke-miterlimit="22.9256"/>
<path d="M235.412 793.276C248.961 795.139 262.512 797.001 275.076 798.331C287.639 799.662 299.217 800.46 311.061 801.059C322.904 801.658 335.012 802.058 347.056 802.324C359.098 802.59 371.074 802.723 382.319 802.723C393.564 802.723 404.075 802.59 412.792 802.39C421.508 802.19 428.429 801.925 439.474 801.06C450.518 800.195 465.687 798.731 478.801 796.8C491.914 794.867 502.97 792.466 514.026 790.065" stroke="#2B2A29" stroke-width="7" stroke-miterlimit="22.9256"/>
<path d="M235.434 816.827C244.186 818.823 252.938 820.818 263.303 822.549C273.668 824.278 285.643 825.741 297.687 826.94C309.729 828.137 321.838 829.068 332.683 829.667C343.529 830.267 353.109 830.532 363.755 830.732C374.4 830.931 386.11 831.065 396.091 830.933C406.071 830.799 414.321 830.399 424.967 829.867C435.613 829.335 448.654 828.669 460.231 827.605C471.809 826.54 481.921 825.077 490.71 823.127C499.499 821.176 506.964 818.738 514.428 816.301" stroke="#2B2A29" stroke-width="7" stroke-miterlimit="22.9256"/>
<path d="M414.153 830.387C415.141 932.277 416.129 1034.17 417.118 1136.06" stroke="#2B2A29" stroke-width="7" stroke-miterlimit="22.9256"/>
<path d="M335.156 829.799C334.333 931.318 333.511 1032.84 332.688 1134.36" stroke="#2B2A29" stroke-width="7" stroke-miterlimit="22.9256"/>
<path d="M417.314 1046.68C422.526 1048.57 427.74 1050.46 432.809 1051.74C437.876 1053.01 442.799 1053.68 448.122 1054.06C453.445 1054.45 459.169 1054.55 464.691 1054.42C470.213 1054.29 475.536 1053.92 480.392 1053.33C485.249 1052.75 489.64 1051.95 494.231 1050.82C498.822 1049.69 503.613 1048.22 507.725 1046.56C511.837 1044.9 515.271 1043.05 518.704 1041.2" stroke="#2B2A29" stroke-width="7" stroke-miterlimit="22.9256"/>
<path d="M416.182 998.595C421.395 1000.48 426.608 1002.37 431.677 1003.65C436.744 1004.92 441.668 1005.59 446.991 1005.98C452.314 1006.36 458.037 1006.47 463.56 1006.33C469.081 1006.2 474.404 1005.83 479.26 1005.24C484.117 1004.66 488.508 1003.86 493.099 1002.73C497.69 1001.6 502.481 1000.13 506.593 998.475C510.705 996.817 514.139 994.964 517.573 993.11" stroke="#2B2A29" stroke-width="7" stroke-miterlimit="22.9256"/>
<path d="M415.635 937.187C420.848 939.075 426.061 940.963 431.13 942.239C436.197 943.516 441.121 944.182 446.444 944.568C451.767 944.952 457.49 945.059 463.013 944.926C468.534 944.792 473.857 944.42 478.713 943.835C483.57 943.249 487.961 942.451 492.552 941.32C497.143 940.189 501.934 938.725 506.046 937.067C510.158 935.408 513.592 933.555 517.026 931.702" stroke="#2B2A29" stroke-width="7" stroke-miterlimit="22.9256"/>
<path d="M414.318 879.345C419.53 881.232 424.744 883.12 429.813 884.397C434.88 885.673 439.803 886.339 445.126 886.725C450.449 887.109 456.173 887.216 461.695 887.083C467.217 886.949 472.54 886.577 477.396 885.992C482.253 885.406 486.644 884.609 491.235 883.477C495.826 882.346 500.617 880.883 504.729 879.224C508.841 877.566 512.275 875.713 515.708 873.859" stroke="#2B2A29" stroke-width="7" stroke-miterlimit="22.9256"/>
<path d="M417.779 1093.6C422.991 1095.49 428.205 1097.38 433.274 1098.65C438.341 1099.93 443.264 1100.6 448.587 1100.98C453.91 1101.37 459.634 1101.47 465.156 1101.34C470.678 1101.21 476.001 1100.84 480.857 1100.25C485.713 1099.66 490.105 1098.87 494.696 1097.74C499.287 1096.6 504.077 1095.14 508.19 1093.48C512.302 1091.82 515.735 1089.97 519.169 1088.12" stroke="#2B2A29" stroke-width="7" stroke-miterlimit="22.9256"/>
<path d="M235.238 1035.18C240.196 1037.58 245.155 1039.97 250.81 1041.8C256.462 1043.63 262.812 1044.9 268.667 1045.63C274.522 1046.36 279.882 1046.56 285.091 1046.73C290.3 1046.89 295.357 1047.02 300.344 1046.76C305.33 1046.5 310.246 1045.85 315.755 1044.39C321.264 1042.92 327.364 1040.65 333.466 1038.38" stroke="#2B2A29" stroke-width="7" stroke-miterlimit="22.9256"/>
<path d="M240.496 1085.97C245.166 1088.4 249.839 1090.83 255.166 1092.68C260.491 1094.54 266.473 1095.82 271.989 1096.56C277.504 1097.3 282.555 1097.51 287.461 1097.67C292.368 1097.84 297.133 1097.98 301.83 1097.71C306.527 1097.45 311.159 1096.78 316.348 1095.3C321.538 1093.82 327.285 1091.52 333.033 1089.22" stroke="#2B2A29" stroke-width="7" stroke-miterlimit="22.9256"/>
<path d="M235.25 933.724C240.209 936.119 245.168 938.513 250.822 940.344C256.475 942.175 262.825 943.44 268.68 944.172C274.535 944.903 279.895 945.102 285.104 945.267C290.313 945.432 295.37 945.566 300.357 945.305C305.342 945.044 310.258 944.39 315.767 942.927C321.276 941.464 327.377 939.194 333.479 936.923" stroke="#2B2A29" stroke-width="7" stroke-miterlimit="22.9256"/>
<path d="M236.069 985.163C241.027 987.558 245.986 989.952 251.64 991.783C257.293 993.614 263.643 994.879 269.498 995.611C275.353 996.343 280.714 996.541 285.922 996.706C291.131 996.871 296.188 997.005 301.175 996.745C306.161 996.483 311.077 995.829 316.586 994.367C322.095 992.903 328.195 990.633 334.297 988.362" stroke="#2B2A29" stroke-width="7" stroke-miterlimit="22.9256"/>
<path d="M236.08 877.342C241.038 879.737 245.998 882.131 251.652 883.962C257.305 885.793 263.655 887.058 269.51 887.79C275.365 888.522 280.725 888.72 285.934 888.885C291.142 889.05 296.2 889.184 301.186 888.923C306.172 888.662 311.088 888.008 316.597 886.546C322.106 885.082 328.206 882.812 334.308 880.541" stroke="#2B2A29" stroke-width="7" stroke-miterlimit="22.9256"/>
<path d="M417.118 1136.06C389.165 1112.01 361.212 1087.96 333.259 1063.91" stroke="#2B2A29" stroke-width="7" stroke-miterlimit="22.9256"/>
<path d="M415.679 987.688L335.669 999.76L414.438 1065.48L333.259 1063.91" stroke="#2B2A29" stroke-width="7" stroke-miterlimit="22.9256"/>
<path d="M334.41 921.805L415.679 987.688" stroke="#2B2A29" stroke-width="7" stroke-miterlimit="22.9256"/>
<path d="M335.156 829.799L413.111 899.497L334.394 923.807" stroke="#2B2A29" stroke-width="7" stroke-miterlimit="22.9256"/>
<path fill-rule="evenodd" clip-rule="evenodd" d="M298.219 712.705C301.08 705.587 303.741 704.521 306.47 703.923C309.198 703.324 311.991 703.192 315.623 702.955C319.254 702.717 323.721 702.375 327.448 701.644C331.174 700.912 334.157 699.789 336.914 700.293C339.67 700.796 342.198 702.926 344.793 706.386C347.388 709.845 350.049 714.634 351.979 719.625C353.908 724.615 355.107 729.803 356.105 734.594C357.102 739.384 357.9 743.775 357.952 749.338C358.003 754.902 357.306 761.637 356.309 766.694C355.31 771.75 354.011 775.126 352.413 777.791C350.816 780.455 348.921 782.406 346.955 782.288C344.988 782.169 342.951 779.98 341.383 777.457C339.815 774.934 338.716 772.076 337.747 771.067C336.778 770.056 335.94 770.893 334.814 773.198C333.686 775.502 332.273 779.274 330.019 780.936C327.764 782.597 324.668 782.147 322.322 780.526C319.976 778.903 318.378 776.11 317.049 773.183C315.718 770.255 314.653 767.194 312.857 766.396C311.061 765.598 308.532 767.061 306.306 769.321C304.08 771.581 302.157 774.639 300.294 775.837C298.43 777.034 296.628 776.372 294.861 774.311C293.095 772.251 291.366 768.79 290.434 763.867C289.503 758.944 289.37 752.557 290.834 742.778C292.297 732.997 295.358 719.824 298.219 712.705V712.705Z" stroke="#2B2A29" stroke-width="7" stroke-miterlimit="22.9256"/>
<path fill-rule="evenodd" clip-rule="evenodd" d="M301.462 670.8C294.724 673.141 291.85 676.45 290.911 679.43C289.97 682.409 290.963 685.06 293.325 687.201C295.685 689.342 299.413 690.974 305.125 691.46C310.837 691.947 318.534 691.284 324.835 689.958C331.137 688.631 336.044 686.639 338.621 683.867C341.196 681.092 341.442 677.538 339.518 674.383C337.594 671.228 333.503 668.471 326.155 667.779C318.807 667.085 308.202 668.458 301.462 670.8V670.8Z" stroke="#2B2A29" stroke-width="7" stroke-miterlimit="22.9256"/>
<path fill-rule="evenodd" clip-rule="evenodd" d="M272.669 577.981C274.732 574.654 277.393 572.393 280.055 570.996C282.716 569.598 285.378 569.065 288.905 569.132C292.43 569.197 296.821 569.863 300.281 571.594C303.741 573.323 306.27 576.117 308.333 579.045C310.395 581.972 311.992 585.032 312.815 589.141C313.637 593.247 313.684 598.401 313.818 602.394C313.951 606.386 314.168 609.215 314.81 613.158C315.451 617.1 316.517 622.158 318.407 626.994C320.297 631.83 323.013 636.447 324.277 640.306C325.541 644.165 325.354 647.265 324.594 650.013C323.834 652.761 322.504 655.156 320.109 656.886C317.714 658.616 314.254 659.681 310.661 660.08C307.068 660.479 303.343 660.213 300.155 658.977C296.965 657.74 294.314 655.534 291.853 653.206C289.391 650.877 287.118 648.426 284.718 645.337C282.318 642.248 279.789 638.523 277.46 634.332C275.132 630.141 273.002 625.483 271.405 620.694C269.809 615.903 268.743 610.979 268.211 605.856C267.679 600.733 267.679 595.412 268.411 590.556C269.143 585.698 270.607 581.307 272.669 577.981V577.981Z" stroke="#2B2A29" stroke-width="7" stroke-miterlimit="22.9256"/>
<path fill-rule="evenodd" clip-rule="evenodd" d="M450.282 712.036C447.421 704.917 444.76 703.851 442.031 703.254C439.303 702.654 436.51 702.522 432.878 702.285C429.247 702.047 424.78 701.705 421.054 700.974C417.327 700.242 414.344 699.119 411.587 699.623C408.831 700.126 406.303 702.256 403.708 705.716C401.113 709.175 398.452 713.964 396.522 718.955C394.593 723.945 393.395 729.133 392.396 733.924C391.399 738.714 390.601 743.105 390.549 748.668C390.498 754.232 391.195 760.967 392.193 766.024C393.191 771.08 394.49 774.456 396.088 777.121C397.685 779.785 399.58 781.736 401.546 781.619C403.513 781.499 405.55 779.31 407.118 776.787C408.686 774.264 409.785 771.406 410.754 770.397C411.723 769.386 412.561 770.223 413.688 772.528C414.815 774.832 416.228 778.604 418.482 780.266C420.737 781.927 423.834 781.477 426.179 779.856C428.525 778.234 430.123 775.44 431.452 772.513C432.784 769.585 433.848 766.524 435.644 765.726C437.44 764.928 439.97 766.391 442.195 768.651C444.422 770.911 446.344 773.969 448.208 775.167C450.071 776.364 451.873 775.702 453.64 773.642C455.406 771.581 457.135 768.12 458.067 763.197C458.998 758.274 459.131 751.887 457.667 742.108C456.204 732.327 453.143 719.154 450.282 712.036V712.036Z" stroke="#2B2A29" stroke-width="7" stroke-miterlimit="22.9256"/>
<path fill-rule="evenodd" clip-rule="evenodd" d="M447.039 670.13C453.777 672.471 456.652 675.78 457.591 678.76C458.531 681.739 457.539 684.39 455.177 686.531C452.816 688.672 449.088 690.304 443.376 690.791C437.665 691.277 429.968 690.614 423.666 689.288C417.364 687.961 412.457 685.969 409.881 683.197C407.305 680.422 407.06 676.868 408.984 673.713C410.908 670.558 414.999 667.801 422.346 667.109C429.695 666.415 440.299 667.789 447.039 670.13V670.13Z" stroke="#2B2A29" stroke-width="7" stroke-miterlimit="22.9256"/>
<path fill-rule="evenodd" clip-rule="evenodd" d="M475.832 577.311C473.769 573.984 471.108 571.723 468.446 570.326C465.785 568.928 463.123 568.395 459.596 568.462C456.071 568.527 451.679 569.193 448.22 570.924C444.76 572.653 442.231 575.448 440.168 578.375C438.106 581.302 436.508 584.362 435.686 588.471C434.863 592.578 434.816 597.731 434.682 601.724C434.55 605.716 434.333 608.545 433.691 612.489C433.05 616.431 431.984 621.488 430.094 626.324C428.203 631.16 425.488 635.777 424.224 639.636C422.96 643.495 423.147 646.595 423.906 649.343C424.667 652.091 425.997 654.486 428.392 656.217C430.787 657.946 434.247 659.011 437.84 659.411C441.433 659.809 445.158 659.543 448.346 658.307C451.536 657.07 454.186 654.864 456.648 652.536C459.11 650.207 461.382 647.756 463.783 644.667C466.183 641.578 468.712 637.854 471.041 633.662C473.369 629.471 475.499 624.813 477.096 620.024C478.692 615.234 479.758 610.309 480.29 605.186C480.822 600.063 480.822 594.742 480.09 589.886C479.358 585.028 477.894 580.637 475.832 577.311V577.311Z" stroke="#2B2A29" stroke-width="7" stroke-miterlimit="22.9256"/>
<path fill-rule="evenodd" clip-rule="evenodd" d="M510.66 507.653C529.954 488.158 566.684 451.304 585.916 432.144C605.145 412.984 606.875 411.52 608.557 410.691C610.237 409.863 611.869 409.669 613.256 410.282C614.643 410.894 615.785 412.313 616.5 413.873C617.213 415.434 617.5 417.135 614.45 421.314C611.4 425.492 605.013 432.144 591.773 445.384C578.532 458.624 558.438 478.45 543.003 493.686C527.566 508.922 516.786 519.567 509.468 526.819C502.149 534.071 498.291 537.93 495.363 539.593C492.436 541.256 490.438 540.723 489.308 538.994C488.177 537.264 487.91 534.336 488.708 531.807C489.504 529.278 491.364 527.146 510.66 507.653V507.653Z" stroke="#2B2A29" stroke-width="7" stroke-miterlimit="22.9256"/>
<path fill-rule="evenodd" clip-rule="evenodd" d="M509.284 550.693C510.91 547.476 514.377 544.334 517.826 541.248C521.273 538.162 524.703 535.133 528.186 531.972C531.669 528.811 535.206 525.521 538.544 524.604C541.881 523.687 545.019 525.147 546.311 527.614C547.601 530.082 547.045 533.556 544.163 537.448C541.282 541.34 536.075 545.649 531.824 549.34C527.572 553.032 524.275 556.108 521.71 558.225C519.144 560.341 517.311 561.499 515.162 561.718C513.014 561.936 510.55 561.215 509.212 559.209C507.873 557.202 507.657 553.911 509.284 550.693V550.693Z" stroke="#2B2A29" stroke-width="7" stroke-miterlimit="22.9256"/>
<path fill-rule="evenodd" clip-rule="evenodd" d="M555.305 506.016C556.931 502.798 560.398 499.656 563.847 496.57C567.294 493.484 570.724 490.455 574.207 487.294C577.69 484.134 581.227 480.843 584.565 479.926C587.902 479.01 591.04 480.47 592.332 482.937C593.622 485.404 593.066 488.878 590.184 492.771C587.303 496.662 582.096 500.971 577.845 504.662C573.593 508.354 570.296 511.43 567.73 513.547C565.165 515.664 563.332 516.821 561.183 517.04C559.035 517.259 556.571 516.537 555.233 514.531C553.894 512.524 553.678 509.233 555.305 506.016V506.016Z" stroke="#2B2A29" stroke-width="7" stroke-miterlimit="22.9256"/>
<path fill-rule="evenodd" clip-rule="evenodd" d="M600.536 461.946C602.162 458.729 605.629 455.587 609.078 452.501C612.525 449.415 615.955 446.386 619.438 443.225C622.921 440.064 626.458 436.774 629.796 435.857C633.133 434.94 636.271 436.4 637.563 438.867C638.853 441.335 638.297 444.809 635.415 448.701C632.534 452.592 627.328 456.902 623.076 460.593C618.824 464.285 615.527 467.361 612.961 469.478C610.396 471.594 608.563 472.752 606.414 472.971C604.266 473.189 601.802 472.467 600.464 470.462C599.125 468.455 598.909 465.164 600.536 461.946V461.946Z" stroke="#2B2A29" stroke-width="7" stroke-miterlimit="22.9256"/>
<path fill-rule="evenodd" clip-rule="evenodd" d="M530.883 620.792C532.51 617.574 535.977 614.433 539.425 611.346C542.873 608.26 546.302 605.231 549.786 602.071C553.269 598.91 556.806 595.619 560.144 594.703C563.481 593.786 566.619 595.246 567.91 597.713C569.2 600.18 568.645 603.655 565.763 607.547C562.881 611.438 557.675 615.747 553.424 619.439C549.172 623.13 545.874 626.206 543.309 628.324C540.744 630.44 538.91 631.597 536.762 631.817C534.613 632.035 532.15 631.313 530.811 629.307C529.473 627.3 529.257 624.01 530.883 620.792V620.792Z" stroke="#2B2A29" stroke-width="7" stroke-miterlimit="22.9256"/>
<path fill-rule="evenodd" clip-rule="evenodd" d="M574.854 579.76C576.48 576.542 579.947 573.4 583.396 570.314C586.843 567.228 590.273 564.199 593.756 561.038C597.239 557.878 600.776 554.587 604.114 553.67C607.451 552.754 610.59 554.214 611.881 556.681C613.171 559.148 612.615 562.622 609.734 566.515C606.852 570.406 601.646 574.715 597.395 578.407C593.142 582.098 589.845 585.174 587.28 587.292C584.715 589.408 582.881 590.565 580.733 590.785C578.584 591.003 576.12 590.281 574.782 588.275C573.444 586.268 573.228 582.977 574.854 579.76V579.76Z" stroke="#2B2A29" stroke-width="7" stroke-miterlimit="22.9256"/>
<path fill-rule="evenodd" clip-rule="evenodd" d="M509.284 550.693C510.91 547.476 514.377 544.334 517.826 541.248C521.273 538.162 524.703 535.133 528.186 531.972C531.669 528.811 535.206 525.521 538.544 524.604C541.881 523.687 545.019 525.147 546.311 527.614C547.601 530.082 547.045 533.556 544.163 537.448C541.282 541.34 536.075 545.649 531.824 549.34C527.572 553.032 524.275 556.108 521.71 558.225C519.144 560.341 517.311 561.499 515.162 561.718C513.014 561.936 510.55 561.215 509.212 559.209C507.873 557.202 507.657 553.911 509.284 550.693V550.693Z" stroke="#2B2A29" stroke-width="7" stroke-miterlimit="22.9256"/>
<path fill-rule="evenodd" clip-rule="evenodd" d="M619.984 537.66C621.61 534.443 625.077 531.301 628.526 528.215C631.973 525.128 635.403 522.099 638.886 518.939C642.369 515.778 645.906 512.487 649.244 511.571C652.581 510.654 655.72 512.114 657.011 514.581C658.301 517.048 657.745 520.523 654.864 524.415C651.982 528.306 646.776 532.616 642.524 536.307C638.272 539.998 634.975 543.075 632.41 545.192C629.844 547.308 628.011 548.465 625.862 548.685C623.714 548.903 621.25 548.181 619.912 546.176C618.573 544.169 618.358 540.878 619.984 537.66V537.66Z" stroke="#2B2A29" stroke-width="7" stroke-miterlimit="22.9256"/>
<path fill-rule="evenodd" clip-rule="evenodd" d="M560.027 675.654C561.653 672.437 565.12 669.295 568.569 666.209C572.016 663.123 575.446 660.094 578.929 656.933C582.412 653.772 585.949 650.482 589.287 649.565C592.624 648.648 595.762 650.108 597.054 652.575C598.344 655.043 597.788 658.517 594.906 662.409C592.025 666.301 586.819 670.61 582.567 674.301C578.315 677.993 575.018 681.069 572.453 683.186C569.887 685.302 568.054 686.46 565.905 686.679C563.757 686.897 561.293 686.175 559.955 684.17C558.616 682.163 558.401 678.872 560.027 675.654V675.654Z" stroke="#2B2A29" stroke-width="7" stroke-miterlimit="22.9256"/>
<path fill-rule="evenodd" clip-rule="evenodd" d="M607.61 629.841C609.237 626.623 612.704 623.481 616.152 620.395C619.599 617.309 623.029 614.28 626.513 611.119C629.996 607.959 633.532 604.668 636.871 603.751C640.207 602.835 643.346 604.295 644.637 606.762C645.927 609.229 645.372 612.703 642.49 616.596C639.608 620.487 634.402 624.796 630.151 628.488C625.899 632.179 622.601 635.255 620.036 637.373C617.471 639.489 615.637 640.646 613.489 640.866C611.34 641.084 608.877 640.362 607.538 638.356C606.2 636.349 605.984 633.059 607.61 629.841V629.841Z" stroke="#2B2A29" stroke-width="7" stroke-miterlimit="22.9256"/>
<path fill-rule="evenodd" clip-rule="evenodd" d="M575.796 743.927C577.422 740.709 580.889 737.567 584.338 734.481C587.785 731.395 591.215 728.366 594.698 725.205C598.182 722.045 601.718 718.754 605.056 717.837C608.393 716.921 611.532 718.381 612.823 720.848C614.113 723.315 613.557 726.789 610.676 730.682C607.794 734.573 602.588 738.882 598.337 742.574C594.084 746.265 590.787 749.341 588.222 751.459C585.656 753.575 583.823 754.732 581.675 754.952C579.526 755.17 577.062 754.448 575.724 752.442C574.385 750.435 574.17 747.144 575.796 743.927V743.927Z" stroke="#2B2A29" stroke-width="7" stroke-miterlimit="22.9256"/>
<path fill-rule="evenodd" clip-rule="evenodd" d="M615.833 705.003C617.46 701.785 620.927 698.643 624.375 695.557C627.823 692.471 631.253 689.442 634.736 686.282C638.219 683.121 641.756 679.83 645.094 678.914C648.431 677.997 651.569 679.457 652.86 681.924C654.151 684.391 653.595 687.866 650.713 691.758C647.832 695.649 642.625 699.958 638.374 703.65C634.122 707.341 630.825 710.417 628.259 712.535C625.694 714.651 623.861 715.808 621.712 716.028C619.564 716.246 617.1 715.524 615.762 713.518C614.423 711.511 614.207 708.221 615.833 705.003V705.003Z" stroke="#2B2A29" stroke-width="7" stroke-miterlimit="22.9256"/>
<path fill-rule="evenodd" clip-rule="evenodd" d="M541.209 572.567C560.503 553.072 597.233 516.218 616.465 497.058C635.694 477.898 637.424 476.434 639.106 475.606C640.787 474.777 642.418 474.583 643.805 475.196C645.192 475.808 646.334 477.227 647.049 478.787C647.762 480.348 648.05 482.049 644.999 486.228C641.949 490.406 635.562 497.058 622.322 510.298C609.081 523.538 588.987 543.364 573.552 558.6C558.115 573.836 547.335 584.481 540.017 591.733C532.698 598.985 528.84 602.844 525.912 604.507C522.985 606.17 520.988 605.637 519.858 603.908C518.726 602.178 518.46 599.25 519.257 596.721C520.054 594.192 521.913 592.06 541.209 572.567V572.567Z" stroke="#2B2A29" stroke-width="7" stroke-miterlimit="22.9256"/>
<path fill-rule="evenodd" clip-rule="evenodd" d="M510.66 507.653C529.954 488.158 566.684 451.304 585.916 432.144C605.145 412.984 606.875 411.52 608.557 410.691C610.237 409.863 611.869 409.669 613.256 410.282C614.643 410.894 615.785 412.313 616.5 413.873C617.213 415.434 617.5 417.135 614.45 421.314C611.4 425.492 605.013 432.144 591.773 445.384C578.532 458.624 558.438 478.45 543.003 493.686C527.566 508.922 516.786 519.567 509.468 526.819C502.149 534.071 498.291 537.93 495.363 539.593C492.436 541.256 490.438 540.723 489.308 538.994C488.177 537.264 487.91 534.336 488.708 531.807C489.504 529.278 491.364 527.146 510.66 507.653V507.653Z" stroke="#2B2A29" stroke-width="7" stroke-miterlimit="22.9256"/>
<path fill-rule="evenodd" clip-rule="evenodd" d="M565.721 637.718C579.869 623.421 606.806 596.393 620.911 582.343C635.012 568.29 636.281 567.217 637.514 566.609C638.747 566.002 639.943 565.86 640.961 566.309C641.978 566.758 642.815 567.799 643.34 568.943C643.863 570.088 644.074 571.335 641.836 574.4C639.6 577.464 634.916 582.343 625.207 592.053C615.496 601.763 600.759 616.301 589.44 627.475C578.119 638.648 570.214 646.455 564.846 651.774C559.479 657.092 556.649 659.921 554.503 661.142C552.356 662.361 550.891 661.97 550.062 660.703C549.232 659.434 549.038 657.287 549.622 655.431C550.206 653.577 551.569 652.013 565.721 637.718V637.718Z" stroke="#2B2A29" stroke-width="7" stroke-miterlimit="22.9256"/>
<path fill-rule="evenodd" clip-rule="evenodd" d="M580.109 706.061C591.268 694.787 612.512 673.472 623.634 662.391C634.756 651.31 635.755 650.463 636.728 649.984C637.7 649.505 638.643 649.392 639.446 649.747C640.248 650.1 640.908 650.921 641.322 651.823C641.735 652.726 641.901 653.711 640.137 656.127C638.373 658.544 634.679 662.391 627.021 670.049C619.364 677.706 607.742 689.172 598.814 697.984C589.886 706.795 583.653 712.952 579.419 717.147C575.187 721.34 572.955 723.572 571.262 724.535C569.57 725.496 568.414 725.188 567.76 724.187C567.106 723.187 566.952 721.494 567.414 720.031C567.874 718.568 568.95 717.335 580.109 706.061V706.061Z" stroke="#2B2A29" stroke-width="7" stroke-miterlimit="22.9256"/>
<path fill-rule="evenodd" clip-rule="evenodd" d="M603.376 758.99C605.361 755.064 609.591 751.23 613.799 747.465C618.005 743.699 622.191 740.003 626.44 736.147C630.69 732.29 635.006 728.275 639.08 727.156C643.151 726.037 646.98 727.82 648.556 730.829C650.13 733.839 649.451 738.079 645.936 742.829C642.419 747.577 636.067 752.835 630.88 757.339C625.691 761.843 621.668 765.596 618.538 768.18C615.408 770.762 613.171 772.174 610.549 772.442C607.928 772.709 604.922 771.828 603.288 769.381C601.656 766.931 601.392 762.916 603.376 758.99V758.99Z" stroke="#2B2A29" stroke-width="7" stroke-miterlimit="22.9256"/>
<path fill-rule="evenodd" clip-rule="evenodd" d="M619.142 794.189C620.862 790.98 624.766 787.473 628.438 784.099C632.11 780.724 635.551 777.483 638.131 775.366C640.711 773.248 642.432 772.256 644.086 772.19C645.74 772.123 647.328 772.984 648.155 775.399C648.981 777.813 649.048 781.783 648.816 786.514C648.584 791.244 648.056 796.735 647.296 801.962C646.534 807.188 645.541 812.151 644.285 815.79C643.027 819.428 641.505 821.744 639.322 822.903C637.138 824.06 634.293 824.06 631.713 822.737C629.132 821.413 626.816 818.767 624.633 815.294C622.45 811.82 620.398 807.519 619.142 803.913C617.885 800.308 617.421 797.398 619.142 794.189V794.189Z" stroke="#2B2A29" stroke-width="7" stroke-miterlimit="22.9256"/>
<path fill-rule="evenodd" clip-rule="evenodd" d="M185.873 508.554C184.247 505.336 180.78 502.194 177.331 499.108C173.884 496.022 170.454 492.993 166.971 489.832C163.487 486.672 159.951 483.381 156.613 482.464C153.276 481.548 150.137 483.008 148.846 485.475C147.556 487.942 148.112 491.416 150.993 495.309C153.875 499.2 159.081 503.509 163.332 507.201C167.585 510.892 170.882 513.968 173.447 516.086C176.012 518.202 177.846 519.359 179.994 519.579C182.143 519.797 184.606 519.075 185.945 517.069C187.283 515.062 187.499 511.771 185.873 508.554V508.554Z" stroke="#2B2A29" stroke-width="7" stroke-miterlimit="22.9256"/>
<path fill-rule="evenodd" clip-rule="evenodd" d="M140.642 464.484C139.015 461.267 135.548 458.125 132.1 455.039C128.652 451.953 125.222 448.924 121.739 445.763C118.256 442.602 114.719 439.312 111.381 438.395C108.044 437.478 104.906 438.938 103.615 441.406C102.324 443.873 102.88 447.347 105.762 451.239C108.644 455.131 113.85 459.44 118.101 463.131C122.353 466.823 125.65 469.899 128.216 472.016C130.781 474.132 132.614 475.29 134.763 475.509C136.911 475.727 139.375 475.006 140.714 473C142.052 470.993 142.268 467.702 140.642 464.484V464.484Z" stroke="#2B2A29" stroke-width="7" stroke-miterlimit="22.9256"/>
<path fill-rule="evenodd" clip-rule="evenodd" d="M210.294 623.33C208.668 620.113 205.201 616.971 201.752 613.884C198.305 610.798 194.875 607.769 191.392 604.609C187.909 601.448 184.372 598.157 181.034 597.241C177.697 596.324 174.559 597.784 173.267 600.251C171.977 602.718 172.533 606.193 175.415 610.085C178.296 613.976 183.503 618.285 187.754 621.977C192.006 625.668 195.303 628.745 197.869 630.862C200.434 632.978 202.267 634.135 204.416 634.355C206.564 634.573 209.028 633.851 210.366 631.846C211.705 629.839 211.921 626.548 210.294 623.33V623.33Z" stroke="#2B2A29" stroke-width="7" stroke-miterlimit="22.9256"/>
<path fill-rule="evenodd" clip-rule="evenodd" d="M166.323 582.298C164.697 579.08 161.23 575.938 157.781 572.852C154.334 569.766 150.904 566.737 147.421 563.577C143.938 560.416 140.401 557.125 137.063 556.209C133.726 555.292 130.588 556.752 129.296 559.219C128.006 561.686 128.562 565.161 131.443 569.053C134.325 572.944 139.531 577.253 143.783 580.945C148.035 584.636 151.332 587.712 153.897 589.83C156.463 591.946 158.296 593.103 160.445 593.323C162.593 593.541 165.057 592.819 166.395 590.813C167.734 588.806 167.949 585.516 166.323 582.298V582.298Z" stroke="#2B2A29" stroke-width="7" stroke-miterlimit="22.9256"/>
<path fill-rule="evenodd" clip-rule="evenodd" d="M231.894 553.232C230.267 550.014 226.8 546.872 223.352 543.786C219.904 540.7 216.474 537.671 212.991 534.51C209.508 531.35 205.971 528.059 202.633 527.142C199.296 526.225 196.158 527.685 194.867 530.153C193.576 532.62 194.132 536.094 197.014 539.987C199.895 543.878 205.102 548.187 209.353 551.878C213.605 555.57 216.902 558.646 219.468 560.763C222.033 562.879 223.866 564.037 226.015 564.256C228.163 564.475 230.627 563.753 231.965 561.747C233.304 559.74 233.52 556.449 231.894 553.232V553.232Z" stroke="#2B2A29" stroke-width="7" stroke-miterlimit="22.9256"/>
<path fill-rule="evenodd" clip-rule="evenodd" d="M121.193 540.198C119.567 536.981 116.1 533.839 112.651 530.753C109.204 527.667 105.774 524.637 102.291 521.477C98.8077 518.316 95.2711 515.026 91.933 514.109C88.5961 513.192 85.4576 514.652 84.1663 517.119C82.8762 519.587 83.432 523.061 86.3136 526.953C89.1953 530.844 94.4015 535.154 98.6526 538.845C102.905 542.536 106.202 545.613 108.767 547.73C111.333 549.846 113.166 551.003 115.315 551.223C117.463 551.441 119.927 550.719 121.265 548.714C122.604 546.707 122.82 543.416 121.193 540.198V540.198Z" stroke="#2B2A29" stroke-width="7" stroke-miterlimit="22.9256"/>
<path fill-rule="evenodd" clip-rule="evenodd" d="M181.151 678.192C179.524 674.975 176.057 671.833 172.609 668.747C169.162 665.661 165.732 662.632 162.248 659.471C158.765 656.311 155.229 653.02 151.89 652.103C148.554 651.186 145.415 652.646 144.124 655.114C142.834 657.581 143.389 661.055 146.271 664.947C149.153 668.839 154.359 673.148 158.61 676.839C162.862 680.531 166.16 683.607 168.725 685.724C171.29 687.84 173.124 688.998 175.272 689.217C177.421 689.436 179.884 688.714 181.223 686.708C182.561 684.701 182.777 681.41 181.151 678.192V678.192Z" stroke="#2B2A29" stroke-width="7" stroke-miterlimit="22.9256"/>
<path fill-rule="evenodd" clip-rule="evenodd" d="M133.567 632.379C131.941 629.161 128.474 626.019 125.025 622.933C121.578 619.847 118.148 616.818 114.664 613.658C111.181 610.497 107.645 607.206 104.307 606.29C100.97 605.373 97.8312 606.833 96.5398 609.3C95.2498 611.767 95.8056 615.242 98.6872 619.134C101.569 623.025 106.775 627.334 111.026 631.026C115.279 634.717 118.576 637.793 121.141 639.911C123.706 642.027 125.54 643.184 127.688 643.404C129.837 643.622 132.3 642.9 133.639 640.894C134.977 638.887 135.193 635.597 133.567 632.379V632.379Z" stroke="#2B2A29" stroke-width="7" stroke-miterlimit="22.9256"/>
<path fill-rule="evenodd" clip-rule="evenodd" d="M165.382 746.465C163.756 743.247 160.288 740.105 156.84 737.019C153.393 733.933 149.963 730.904 146.479 727.744C142.996 724.583 139.459 721.292 136.121 720.376C132.784 719.459 129.646 720.919 128.355 723.386C127.065 725.853 127.62 729.328 130.502 733.22C133.384 737.111 138.59 741.42 142.841 745.112C147.093 748.803 150.391 751.879 152.956 753.997C155.521 756.113 157.355 757.27 159.503 757.49C161.652 757.708 164.115 756.986 165.454 754.98C166.792 752.973 167.008 749.683 165.382 746.465V746.465Z" stroke="#2B2A29" stroke-width="7" stroke-miterlimit="22.9256"/>
<path fill-rule="evenodd" clip-rule="evenodd" d="M125.344 707.541C123.718 704.324 120.251 701.182 116.802 698.095C113.355 695.009 109.925 691.98 106.442 688.82C102.958 685.659 99.4219 682.368 96.0838 681.452C92.7469 680.535 89.6086 681.995 88.3172 684.462C87.0271 686.929 87.5828 690.404 90.4644 694.296C93.3461 698.187 98.5523 702.496 102.803 706.188C107.056 709.879 110.353 712.955 112.918 715.073C115.484 717.189 117.317 718.346 119.466 718.566C121.614 718.784 124.078 718.062 125.416 716.056C126.755 714.05 126.97 710.759 125.344 707.541V707.541Z" stroke="#2B2A29" stroke-width="7" stroke-miterlimit="22.9256"/>
<path fill-rule="evenodd" clip-rule="evenodd" d="M199.969 575.105C180.674 555.611 143.944 518.756 124.713 499.596C105.483 480.436 103.754 478.972 102.071 478.144C100.391 477.315 98.7594 477.122 97.3725 477.734C95.9857 478.346 94.8432 479.765 94.1287 481.325C93.4154 482.886 93.1275 484.588 96.1779 488.766C99.2282 492.944 105.615 499.596 118.855 512.836C132.096 526.077 152.19 545.902 167.626 561.138C183.062 576.374 193.842 587.019 201.161 594.271C208.479 601.523 212.337 605.382 215.265 607.045C218.192 608.709 220.19 608.175 221.32 606.446C222.451 604.716 222.718 601.788 221.92 599.259C221.124 596.73 219.264 594.598 199.969 575.105V575.105Z" stroke="#2B2A29" stroke-width="7" stroke-miterlimit="22.9256"/>
<path fill-rule="evenodd" clip-rule="evenodd" d="M230.518 510.191C211.224 490.697 174.493 453.842 155.262 434.682C136.032 415.522 134.303 414.058 132.621 413.23C130.94 412.401 129.309 412.207 127.922 412.82C126.535 413.432 125.392 414.851 124.678 416.411C123.965 417.972 123.677 419.673 126.727 423.852C129.778 428.03 136.165 434.682 149.404 447.922C162.645 461.163 182.74 480.988 198.175 496.224C213.611 511.46 224.391 522.105 231.71 529.357C239.029 536.609 242.887 540.468 245.814 542.131C248.742 543.795 250.739 543.261 251.869 541.532C253 539.802 253.267 536.874 252.469 534.345C251.673 531.816 249.814 529.684 230.518 510.191V510.191Z" stroke="#2B2A29" stroke-width="7" stroke-miterlimit="22.9256"/>
<path fill-rule="evenodd" clip-rule="evenodd" d="M175.457 640.256C161.308 625.959 134.371 598.931 120.267 584.881C106.165 570.828 104.896 569.755 103.663 569.148C102.43 568.54 101.234 568.398 100.217 568.847C99.1997 569.296 98.3624 570.337 97.8377 571.481C97.3142 572.626 97.1032 573.873 99.341 576.939C101.578 580.002 106.262 584.881 115.971 594.591C125.681 604.301 140.418 618.839 151.738 630.013C163.058 641.186 170.964 648.994 176.331 654.312C181.699 659.63 184.528 662.459 186.674 663.68C188.822 664.899 190.287 664.509 191.115 663.241C191.945 661.972 192.14 659.825 191.556 657.969C190.971 656.115 189.608 654.551 175.457 640.256V640.256Z" stroke="#2B2A29" stroke-width="7" stroke-miterlimit="22.9256"/>
<path fill-rule="evenodd" clip-rule="evenodd" d="M161.068 708.599C149.909 697.325 128.666 676.01 117.544 664.93C106.422 653.848 105.422 653.001 104.449 652.522C103.477 652.043 102.534 651.93 101.731 652.285C100.929 652.638 100.269 653.46 99.8559 654.361C99.4428 655.264 99.2765 656.249 101.04 658.666C102.804 661.082 106.499 664.93 114.156 672.587C121.814 680.244 133.436 691.71 142.363 700.522C151.291 709.334 157.524 715.49 161.758 719.685C165.991 723.879 168.222 726.11 169.916 727.073C171.608 728.034 172.764 727.726 173.417 726.725C174.071 725.726 174.225 724.032 173.763 722.569C173.303 721.106 172.228 719.873 161.068 708.599V708.599Z" stroke="#2B2A29" stroke-width="7" stroke-miterlimit="22.9256"/>
<path fill-rule="evenodd" clip-rule="evenodd" d="M137.801 761.528C135.816 757.602 131.586 753.768 127.378 750.003C123.172 746.237 118.987 742.541 114.737 738.685C110.487 734.828 106.171 730.813 102.098 729.694C98.0263 728.575 94.1969 730.358 92.6215 733.367C91.0473 736.377 91.7259 740.617 95.2414 745.367C98.7581 750.115 105.111 755.373 110.297 759.877C115.486 764.381 119.509 768.134 122.64 770.718C125.769 773.301 128.006 774.712 130.628 774.98C133.25 775.247 136.255 774.366 137.889 771.919C139.521 769.469 139.786 765.454 137.801 761.528V761.528Z" stroke="#2B2A29" stroke-width="7" stroke-miterlimit="22.9256"/>
<path fill-rule="evenodd" clip-rule="evenodd" d="M122.036 796.727C120.315 793.518 116.411 790.011 112.74 786.637C109.068 783.262 105.627 780.021 103.046 777.904C100.466 775.786 98.7457 774.794 97.0909 774.728C95.4373 774.661 93.8495 775.522 93.0221 777.937C92.196 780.351 92.129 784.321 92.361 789.052C92.5929 793.782 93.1213 799.273 93.8818 804.5C94.6434 809.726 95.6358 814.689 96.8925 818.328C98.1503 821.967 99.6723 824.282 101.856 825.441C104.039 826.598 106.884 826.598 109.465 825.275C112.045 823.951 114.361 821.305 116.544 817.832C118.727 814.358 120.779 810.057 122.036 806.452C123.292 802.846 123.756 799.936 122.036 796.727V796.727Z" stroke="#2B2A29" stroke-width="7" stroke-miterlimit="22.9256"/>
<path d="M271.883 193.546C269.631 198.653 267.381 203.758 263.94 209.422C260.498 215.084 255.867 221.302 250.707 227.125C245.545 232.947 239.855 238.373 234.694 243.203C229.533 248.032 224.902 252.267 219.543 256.831C214.183 261.396 208.095 266.293 202.008 270.726C195.921 275.158 189.834 279.128 184.608 282.303C179.38 285.478 175.013 287.861 170.051 290.111C165.089 292.36 159.53 294.476 153.046 297.189C146.562 299.902 139.153 303.21 132.338 306.651C125.523 310.091 119.303 313.664 112.819 317.832C106.335 322 99.5855 326.764 92.9031 331.66C86.2207 336.556 79.6039 341.583 74.2451 346.876C68.885 352.169 64.784 357.727 61.3441 362.887C57.903 368.047 55.1231 372.812 52.4771 378.436C49.83 384.058 47.3156 390.542 45.1658 398.189C43.0161 405.836 41.2311 414.645 39.9087 422.982C38.5851 431.319 37.723 439.181 37.161 451.25C36.5978 463.319 36.3324 479.594 35.804 506.389C35.2743 533.185 34.4803 570.499 34.0449 634.753C33.6095 699.007 33.5339 790.2 33.457 881.393" stroke="#2B2A29" stroke-width="7" stroke-miterlimit="22.9256"/>
<path d="M292.824 201.085C290.573 206.192 288.323 211.297 284.882 216.961C281.439 222.623 276.808 228.841 271.648 234.664C266.486 240.486 260.796 245.912 255.636 250.742C250.474 255.571 245.844 259.806 240.485 264.37C235.125 268.935 229.036 273.832 222.949 278.265C216.862 282.697 210.775 286.667 205.549 289.842C200.322 293.018 195.954 295.4 190.992 297.65C186.03 299.899 180.472 302.015 173.988 304.728C167.504 307.441 160.095 310.749 153.279 314.19C146.464 317.63 140.244 321.203 133.761 325.371C127.277 329.539 120.527 334.303 113.845 339.199C107.162 344.095 100.546 349.122 95.1867 354.415C89.8266 359.708 85.7256 365.266 82.2857 370.426C78.8447 375.586 76.0647 380.351 73.4188 385.975C70.7716 391.597 68.2572 398.081 66.1075 405.728C63.9577 413.375 62.1726 422.185 60.8502 430.521C59.5266 438.858 58.6646 446.72 58.1026 458.789C57.5395 470.858 57.2739 487.133 56.7455 513.929C56.2158 540.724 55.4219 578.038 54.989 640.339C54.5548 702.64 54.4829 789.926 54.4097 877.213" stroke="#2B2A29" stroke-width="7" stroke-miterlimit="22.9256"/>
<path d="M309.6 207.369C307.348 212.476 305.098 217.581 301.657 223.245C298.214 228.908 293.584 235.126 288.423 240.948C283.262 246.771 277.572 252.196 272.411 257.026C267.25 261.855 262.619 266.09 257.26 270.655C251.9 275.219 245.812 280.116 239.725 284.55C233.638 288.982 227.551 292.951 222.325 296.126C217.097 299.302 212.73 301.685 207.768 303.935C202.806 306.183 197.247 308.3 190.763 311.012C184.279 313.725 176.87 317.033 170.055 320.474C163.24 323.914 157.02 327.487 150.536 331.655C144.052 335.823 137.302 340.587 130.62 345.483C123.938 350.379 117.321 355.406 111.962 360.699C106.602 365.992 102.501 371.55 99.061 376.71C95.6199 381.87 92.8401 386.635 90.1941 392.259C87.547 397.882 85.0325 404.365 82.8827 412.012C80.733 419.659 78.9479 428.469 77.6256 436.805C76.302 445.142 75.4398 453.004 74.8779 465.073C74.3147 477.142 74.0493 493.418 73.5209 520.213C72.9912 547.008 72.1973 584.322 71.7644 646.542C71.3302 708.76 71.2582 795.884 71.1851 883.007" stroke="#2B2A29" stroke-width="7" stroke-miterlimit="22.9256"/>
<path d="M474.143 202.576C476.394 207.683 478.644 212.788 482.086 218.452C485.528 224.115 490.158 230.333 495.319 236.155C500.48 241.978 506.171 247.403 511.331 252.233C516.493 257.062 521.123 261.297 526.482 265.862C531.842 270.426 537.93 275.323 544.017 279.757C550.105 284.189 556.191 288.158 561.418 291.333C566.645 294.509 571.013 296.892 575.975 299.142C580.936 301.39 586.495 303.507 592.979 306.219C599.463 308.932 606.872 312.24 613.688 315.681C620.503 319.121 626.723 322.694 633.207 326.862C639.69 331.03 646.44 335.794 653.122 340.69C659.805 345.586 666.421 350.613 671.78 355.906C677.14 361.199 681.241 366.757 684.681 371.917C688.122 377.077 690.902 381.842 693.548 387.466C696.195 393.089 698.71 399.572 700.859 407.219C703.009 414.866 704.794 423.676 706.117 432.012C707.44 440.349 708.302 448.211 708.864 460.28C709.428 472.349 709.693 488.624 710.221 515.42C710.751 542.215 711.545 579.529 711.829 647.195C712.114 714.862 711.888 812.879 711.664 910.897" stroke="#2B2A29" stroke-width="7" stroke-miterlimit="22.9256"/>
<path d="M453.201 210.115C455.452 215.222 457.702 220.327 461.143 225.991C464.586 231.654 469.216 237.872 474.377 243.694C479.538 249.517 485.228 254.942 490.389 259.772C495.55 264.601 500.181 268.836 505.54 273.401C510.9 277.965 516.988 282.862 523.075 287.296C529.162 291.728 535.249 295.697 540.475 298.872C545.703 302.048 550.07 304.431 555.032 306.681C559.994 308.93 565.553 311.046 572.037 313.758C578.521 316.471 585.93 319.779 592.746 323.22C599.561 326.66 605.78 330.233 612.264 334.401C618.748 338.569 625.498 343.333 632.18 348.229C638.863 353.125 645.479 358.153 650.838 363.445C656.198 368.738 660.299 374.296 663.739 379.456C667.18 384.617 669.96 389.381 672.606 395.005C675.253 400.628 677.768 407.111 679.917 414.758C682.067 422.405 683.852 431.215 685.175 439.552C686.498 447.888 687.36 455.75 687.922 467.819C688.485 479.888 688.751 496.164 689.279 522.959C689.809 549.754 690.603 587.068 691.028 654.433C691.455 721.797 691.515 819.209 691.573 916.623" stroke="#2B2A29" stroke-width="7" stroke-miterlimit="22.9256"/>
<path d="M436.426 216.399C438.677 221.506 440.927 226.612 444.368 232.275C447.811 237.938 452.441 244.156 457.602 249.978C462.763 255.801 468.454 261.226 473.614 266.057C478.776 270.885 483.406 275.12 488.765 279.685C494.125 284.25 500.213 289.147 506.3 293.58C512.387 298.012 518.474 301.981 523.701 305.157C528.928 308.332 533.296 310.715 538.258 312.965C543.22 315.214 548.778 317.33 555.262 320.043C561.746 322.755 569.155 326.064 575.971 329.504C582.786 332.944 589.006 336.518 595.489 340.685C601.973 344.853 608.723 349.618 615.405 354.513C622.088 359.409 628.705 364.437 634.063 369.729C639.424 375.022 643.525 380.581 646.964 385.741C650.405 390.901 653.185 395.665 655.831 401.289C658.478 406.912 660.993 413.395 663.143 421.043C665.292 428.69 667.077 437.499 668.4 445.836C669.723 454.172 670.585 462.034 671.147 474.103C671.711 486.172 671.976 502.448 672.504 529.243C673.034 556.038 673.828 593.352 674.261 659.275C674.695 725.197 674.768 819.728 674.841 914.258" stroke="#2B2A29" stroke-width="7" stroke-miterlimit="22.9256"/>
</svg>
