<svg width="854" height="1115" viewBox="0 0 854 1115" fill="none" xmlns="http://www.w3.org/2000/svg">
<path d="M370.41 97.7453C388.82 97.7453 403.744 82.9114 403.744 64.6129C403.744 46.3143 388.82 31.4805 370.41 31.4805C352 31.4805 337.076 46.3143 337.076 64.6129C337.076 82.9114 352 97.7453 370.41 97.7453Z" stroke="#2B2A29" stroke-width="7" stroke-miterlimit="22.9256"/>
<path d="M370.708 81.3798C379.914 81.3798 387.376 73.9626 387.376 64.8129C387.376 55.6633 379.914 48.2461 370.708 48.2461C361.502 48.2461 354.04 55.6633 354.04 64.8129C354.04 73.9626 361.502 81.3798 370.708 81.3798Z" stroke="#2B2A29" stroke-width="7" stroke-miterlimit="22.9256"/>
<path d="M493.992 97.6447C512.401 97.6447 527.326 82.8108 527.326 64.5123C527.326 46.2138 512.401 31.3799 493.992 31.3799C475.582 31.3799 460.657 46.2138 460.657 64.5123C460.657 82.8108 475.582 97.6447 493.992 97.6447Z" stroke="#2B2A29" stroke-width="7" stroke-miterlimit="22.9256"/>
<path d="M494.289 81.2792C503.495 81.2792 510.958 73.862 510.958 64.7124C510.958 55.5627 503.495 48.1455 494.289 48.1455C485.084 48.1455 477.621 55.5627 477.621 64.7124C477.621 73.862 485.084 81.2792 494.289 81.2792Z" stroke="#2B2A29" stroke-width="7" stroke-miterlimit="22.9256"/>
<path d="M490.487 31.5615C483.641 32.3914 476.796 33.2199 470.903 35.6921C465.009 38.1642 460.068 42.2774 456.308 46.9636C452.548 51.6499 449.97 56.9092 448.385 63.2117C446.803 69.5142 446.213 76.8611 446.046 81.9877C445.878 87.1143 446.132 90.0218 446.195 93.1823C446.258 96.3416 446.132 99.754 446.068 103.231C446.005 106.706 446.005 110.245 446.041 113.746C446.078 117.245 446.15 120.706 445.644 124.245C445.139 127.783 444.055 131.402 442.375 134.284C440.696 137.167 438.421 139.317 436.082 140.707C433.744 142.098 431.341 142.729 428.687 142.414C426.032 142.098 423.126 140.834 420.724 139.002C418.323 137.168 416.426 134.767 414.909 132.049C413.393 129.331 412.255 126.299 410.928 124.15C409.601 122.001 408.084 120.737 406.25 119.789C404.418 118.841 402.268 118.209 400.561 117.957C398.856 117.704 397.592 117.829 395.043 118.731C392.495 119.631 388.663 121.307 385.629 123.077C382.594 124.846 380.36 126.709 376.634 129.914C372.907 133.12 367.689 137.666 364.931 141.083C362.175 144.499 361.877 146.786 363.285 147.8C364.694 148.812 367.807 148.551 372.476 146.816C377.146 145.08 383.371 141.869 390.197 138.204C397.024 134.539 404.449 130.418 411.876 126.299" stroke="#2B2A29" stroke-width="7" stroke-miterlimit="22.9256"/>
<path d="M443.961 117.412C448.738 118.624 453.516 119.835 457.768 121.039C462.019 122.243 465.745 123.442 469.538 125.105C473.33 126.767 477.189 128.897 480.849 130.893C484.508 132.889 487.969 134.752 490.216 137.018C492.462 139.284 493.495 141.954 493.23 144.016C492.963 146.078 491.396 147.534 487.953 147.331C484.508 147.126 479.185 145.264 473.797 143.069C468.407 140.873 462.951 138.344 457.871 136.027C452.79 133.71 448.085 131.605 443.38 129.499" stroke="#2B2A29" stroke-width="7" stroke-miterlimit="22.9256"/>
<path fill-rule="evenodd" clip-rule="evenodd" d="M317.17 88.832C317.363 76.9886 317.363 71.2976 317.296 65.1452C317.23 58.9916 317.098 52.3753 317.76 46.4213C318.422 40.4661 319.877 35.1733 322.524 30.1447C325.171 25.1161 329.008 20.353 332.449 16.9791C335.89 13.6039 338.933 11.6193 342.109 9.83312C345.286 8.04694 348.594 6.45797 354.218 5.46565C359.843 4.47332 367.782 4.0764 391.998 4.01066C416.216 3.94367 456.71 4.20913 478.678 4.34185C500.645 4.47333 504.085 4.47333 508.386 5.9953C512.688 7.51728 517.848 10.56 522.413 14.7947C526.98 19.0295 530.95 24.455 534.54 29.6349C538.131 34.8136 541.344 39.7479 543.262 47.0254C545.181 54.3028 545.807 63.9259 546.015 89.3244C546.223 114.722 546.013 155.897 546.079 178.459C546.146 201.019 546.487 204.969 547.753 208.481C549.018 211.993 551.205 215.068 554.44 217.869C557.675 220.67 561.957 223.195 565.964 225.229C569.972 227.264 573.703 228.808 578.216 229.911C582.729 231.012 588.023 231.674 593.779 232.137C599.536 232.6 605.756 232.865 616.673 233.528C627.591 234.189 643.206 235.247 658.928 236.343C674.65 237.44 690.478 238.572 700.87 239.19C711.262 239.808 716.218 239.909 720.743 239.475C725.268 239.041 729.363 238.07 736.373 238.049C743.383 238.027 753.308 238.952 762.241 240.408C771.173 241.863 779.112 243.849 787.061 246.624C795.01 249.399 802.969 252.965 810.509 257.005C818.049 261.043 825.169 265.557 830.916 270.457C836.664 275.356 841.038 280.643 843.886 286.396C846.736 292.148 848.058 298.366 848.786 303.791C849.514 309.217 849.646 313.849 849.779 320.201C849.911 326.552 850.043 334.624 847.066 387.886C844.089 441.146 838 539.596 831.449 629.976C824.9 720.354 817.886 802.66 813.717 853.01C809.549 903.361 808.227 921.753 807.366 933.068C806.506 944.382 806.109 948.616 805.05 952.122C803.992 955.629 802.271 958.409 798.764 960.393C795.257 962.378 789.964 963.569 783.81 964.297C777.657 965.024 770.644 965.289 761.38 964.826C752.117 964.363 740.603 963.172 731.605 962.245C722.606 961.318 716.121 960.657 709.306 959.731C702.491 958.804 695.346 957.613 688.86 955.96C682.376 954.305 676.554 952.188 670.532 950.534C664.511 948.88 658.293 947.689 653.131 946.895C647.971 946.101 643.867 945.704 639.765 946.367C635.663 947.028 631.56 948.748 627.788 950.866C624.017 952.983 620.577 955.496 617.599 958.606C614.622 961.715 612.107 965.42 610.321 969.126C608.535 972.831 607.475 976.536 606.549 980.241C605.623 983.946 604.829 987.652 604.498 992.615C604.168 997.577 604.3 1003.79 603.837 1010.21C603.374 1016.63 602.315 1023.25 600.793 1029.47C599.272 1035.69 597.286 1041.51 594.97 1047.66C592.654 1053.81 590.008 1060.3 586.037 1066.25C582.068 1072.21 576.775 1077.63 571.879 1081.73C566.982 1085.84 562.482 1088.62 556.593 1091.73C550.705 1094.84 543.426 1098.28 535.552 1101.19C527.679 1104.1 519.209 1106.48 511.005 1108.27C502.8 1110.05 494.86 1111.24 485.993 1110.85C477.127 1110.45 467.334 1108.47 459.46 1107.08C451.587 1105.69 445.632 1104.89 438.485 1104.43C431.34 1103.97 423.003 1103.83 415.195 1103.37C407.388 1102.91 400.109 1102.11 392.764 1100.86C385.42 1099.6 378.009 1097.88 370.599 1095.17C363.188 1092.45 355.778 1088.75 349.756 1085.11C343.735 1081.47 339.103 1077.9 335.199 1073.4C331.296 1068.9 328.119 1063.47 326.2 1059.51C324.282 1055.53 323.62 1053.02 322.693 1049.38C321.768 1045.74 320.577 1040.98 318.922 1036.02C317.268 1031.05 315.151 1025.89 312.569 1021.06C309.989 1016.23 306.946 1011.73 302.711 1007.5C298.476 1003.27 293.052 999.296 287.427 996.452C281.803 993.606 275.98 991.886 270.554 990.695C265.129 989.504 260.1 988.842 255.204 988.909C250.307 988.974 245.543 989.768 240.315 991.356C235.089 992.944 229.398 995.327 223.045 997.907C216.694 1000.49 209.681 1003.27 200.219 1006.38C190.757 1009.49 178.847 1012.93 167.798 1015.77C156.748 1018.62 146.558 1020.87 137.625 1022.72C128.692 1024.57 121.018 1026.03 113.474 1026.95C105.931 1027.88 98.5203 1028.28 93.6899 1028.14C88.8595 1028.01 86.6105 1027.35 85.0227 1024.7C83.4336 1022.06 82.5082 1017.43 77.8106 985.271C73.1129 953.114 64.6429 893.436 58.8871 851.688C53.13 809.938 50.0871 786.119 43.9331 737.887C37.7791 689.654 28.5165 617.007 21.3701 554.418C14.2237 491.827 9.19609 439.293 6.6159 409.984C4.03447 380.673 3.90173 374.586 4.03446 368.831C4.16595 363.074 4.56415 357.649 5.09383 350.503C5.62228 343.357 6.28469 334.492 7.07859 327.081C7.8725 319.671 8.79789 313.716 11.0481 306.107C13.2971 298.499 16.8709 289.237 20.2983 280.553C23.7258 271.868 27.0081 263.765 30.5819 256.817C34.1545 249.87 38.0173 244.081 42.7286 240.061C47.44 236.041 52.9973 233.792 60.6734 232.403C68.3482 231.012 78.1418 230.484 94.485 230.418C110.828 230.351 133.721 230.748 158.269 231.145C182.817 231.542 209.019 231.939 232.575 232.336C256.13 232.732 277.038 233.129 289.941 232.865C302.844 232.6 307.74 231.674 311.908 229.359C316.077 227.043 319.517 223.338 321.899 220.493C324.282 217.648 325.604 215.662 326.928 213.546C328.252 211.429 329.575 209.178 330.502 205.805C331.428 202.431 331.957 197.93 332.023 192.969C332.09 188.006 331.693 182.582 331.56 176.892C331.428 171.201 331.56 165.247 330.842 160.197C330.125 155.148 328.557 151.005 325.975 147.234C323.395 143.462 319.803 140.063 318.197 129.366C316.594 118.669 316.978 100.674 317.17 88.832Z" stroke="#2B2A29" stroke-width="7" stroke-miterlimit="22.9256"/>
<path d="M330.842 160.198C337.08 163.733 343.32 167.269 349.578 170.677C355.836 174.084 362.115 177.362 368.863 180.803C375.613 184.244 382.832 187.845 390.412 190.837C397.992 193.829 405.931 196.212 414.07 197.734C422.209 199.254 430.546 199.917 438.221 200.248C445.897 200.578 452.911 200.578 461.446 199.851C469.982 199.123 480.039 197.667 488.773 195.285C497.507 192.903 504.918 189.595 511.467 186.023C518.018 182.449 523.708 178.613 529.333 173.584C534.957 168.555 540.514 162.337 543.293 159.029C546.073 155.721 546.074 155.325 546.074 155.26C546.074 155.193 546.074 155.456 546.074 155.72" stroke="#2B2A29" stroke-width="7" stroke-miterlimit="22.9256"/>
<path d="M329.649 206.326C335.894 209.865 342.14 213.405 348.404 216.816C354.669 220.226 360.955 223.508 367.71 226.953C374.467 230.397 381.694 234.002 389.28 236.996C396.868 239.992 404.815 242.377 412.962 243.9C421.11 245.422 429.456 246.086 437.138 246.417C444.821 246.747 451.843 246.747 460.387 246.02C468.931 245.291 478.998 243.833 487.741 241.449C496.484 239.065 503.902 235.753 510.459 232.177C517.016 228.6 522.712 224.76 528.566 219.385C534.419 214.009 540.431 207.102 546.442 200.193" stroke="#2B2A29" stroke-width="7" stroke-miterlimit="22.9256"/>
<path d="M331.855 185.118C338.064 188.637 344.275 192.157 350.503 195.549C356.733 198.94 362.982 202.203 369.698 205.627C376.417 209.052 383.603 212.637 391.146 215.614C398.691 218.592 406.592 220.964 414.694 222.478C422.794 223.993 431.092 224.651 438.731 224.981C446.371 225.31 453.352 225.31 461.848 224.586C470.343 223.861 480.352 222.412 489.046 220.042C497.739 217.672 505.115 214.378 511.635 210.823C518.155 207.266 523.817 203.448 529.416 198.443C535.014 193.438 540.545 187.248 543.312 183.956C546.078 180.663 546.079 180.27 546.079 180.204C546.079 180.137 546.079 180.399 546.079 180.662" stroke="#2B2A29" stroke-width="7" stroke-miterlimit="22.9256"/>
<path d="M379.177 868.001L366.422 1093.54" stroke="#2B2A29" stroke-width="7" stroke-miterlimit="22.9256"/>
<path d="M433.719 866.775L446.589 1104.43" stroke="#2B2A29" stroke-width="7" stroke-miterlimit="22.9256"/>
<path d="M371.766 999.029C377.038 1002.35 382.309 1005.68 388.721 1007.63C395.134 1009.58 402.687 1010.15 410.068 1009.24C417.45 1008.32 424.661 1005.92 429.731 1003.29C434.801 1000.65 437.73 997.796 440.66 994.938" stroke="#2B2A29" stroke-width="7" stroke-miterlimit="22.9256"/>
<path d="M370.909 1026.95C376.181 1030.28 381.452 1033.6 387.864 1035.55C394.277 1037.5 401.83 1038.07 409.211 1037.16C416.593 1036.24 423.804 1033.84 429.249 1030.85C434.694 1027.86 438.375 1024.29 442.055 1020.72" stroke="#2B2A29" stroke-width="7" stroke-miterlimit="22.9256"/>
<path d="M368.678 1053.64C375.002 1057.28 381.328 1060.92 388.266 1063.03C395.205 1065.13 402.758 1065.7 410.139 1064.79C417.521 1063.87 424.732 1061.47 430.397 1058.23C436.062 1054.98 440.184 1050.9 444.305 1046.82" stroke="#2B2A29" stroke-width="7" stroke-miterlimit="22.9256"/>
<path d="M456.576 865.404L468.83 1108.75" stroke="#2B2A29" stroke-width="7" stroke-miterlimit="22.9256"/>
<path d="M508.175 863.646L549.115 1098.1" stroke="#2B2A29" stroke-width="7" stroke-miterlimit="22.9256"/>
<path d="M462.328 1002.31C467.958 1004.99 473.586 1007.66 480.184 1008.84C486.782 1010.01 494.35 1009.69 501.571 1007.9C508.792 1006.12 515.668 1002.88 520.39 999.667C525.113 996.454 527.682 993.269 530.252 990.085" stroke="#2B2A29" stroke-width="7" stroke-miterlimit="22.9256"/>
<path d="M464.786 1030.13C470.415 1032.81 476.043 1035.49 482.641 1036.67C489.239 1037.84 496.807 1037.51 504.028 1035.73C511.249 1033.95 518.125 1030.71 523.177 1027.1C528.23 1023.48 531.461 1019.5 534.693 1015.52" stroke="#2B2A29" stroke-width="7" stroke-miterlimit="22.9256"/>
<path d="M465.733 1056.9C472.444 1059.76 479.157 1062.63 486.296 1063.9C493.435 1065.17 501.003 1064.84 508.223 1063.06C515.444 1061.27 522.32 1058.03 527.561 1054.14C532.802 1050.25 536.412 1045.71 540.019 1041.17" stroke="#2B2A29" stroke-width="7" stroke-miterlimit="22.9256"/>
<path d="M319.971 1039.33C326.898 1002.96 333.825 966.588 338.912 936.243C343.999 905.896 347.247 881.574 350.125 869.242C353.003 856.91 355.512 856.567 356.512 871.367C357.513 886.168 357.007 916.112 354.826 953.742C352.647 991.371 348.795 1036.69 344.942 1082" stroke="#2B2A29" stroke-width="7" stroke-miterlimit="22.9256"/>
<path d="M594.97 1047.66C583.513 1008.32 572.054 968.99 563.593 937.362C555.132 905.734 549.666 881.812 545.668 869.796C541.672 857.78 539.141 857.669 539.503 872.498C539.864 887.328 543.115 917.1 548.74 954.372C554.363 991.642 562.355 1036.41 570.35 1081.18" stroke="#2B2A29" stroke-width="7" stroke-miterlimit="22.9256"/>
<path d="M262.928 989.36C268.102 982.352 273.275 975.344 279.067 962.011C284.858 948.676 291.269 929.016 297.192 902.124C303.117 875.231 308.554 841.105 312.613 813.807C316.673 786.51 319.354 766.042 319.95 747.817C320.547 729.591 319.06 713.611 318.339 699.755C317.619 685.898 317.667 674.168 319.906 677.678C322.146 681.187 326.577 699.939 329.504 719.515C332.432 739.09 333.855 759.489 334.46 781.97C335.067 804.45 334.857 829.012 333.949 852.03C333.042 875.047 331.439 896.52 328.842 916.975C326.244 937.431 322.652 956.867 319.038 972.853C315.425 988.838 311.789 1001.37 308.153 1013.91" stroke="#2B2A29" stroke-width="7" stroke-miterlimit="22.9256"/>
<path d="M637.161 946.924C632.096 941.97 627.032 937.016 619.774 925.343C612.515 913.67 603.064 895.277 592.943 869.668C582.822 844.057 572.031 811.228 563.688 784.922C555.343 758.616 549.446 738.834 545.961 720.935C542.477 703.036 541.406 687.022 539.917 673.226C538.426 659.432 536.515 647.858 534.863 651.679C533.208 655.5 531.813 674.717 532.032 694.511C532.252 714.301 534.088 734.667 537.061 756.959C540.033 779.25 544.143 803.466 548.695 826.048C553.248 848.63 558.241 869.575 564.055 889.358C569.869 909.141 576.504 927.76 583.502 943.736C590.501 959.713 597.864 973.047 605.228 986.38" stroke="#2B2A29" stroke-width="7" stroke-miterlimit="22.9256"/>
<path d="M357.69 457.823C382.636 457.823 402.859 450.645 402.859 441.791C402.859 432.937 382.636 425.759 357.69 425.759C332.745 425.759 312.522 432.937 312.522 441.791C312.522 450.645 332.745 457.823 357.69 457.823Z" stroke="#2B2A29" stroke-width="7" stroke-miterlimit="22.9256"/>
<path d="M508.721 458.018C534.185 458.018 554.828 450.84 554.828 441.985C554.828 433.131 534.185 425.953 508.721 425.953C483.256 425.953 462.614 433.131 462.614 441.985C462.614 450.84 483.256 458.018 508.721 458.018Z" stroke="#2B2A29" stroke-width="7" stroke-miterlimit="22.9256"/>
<path fill-rule="evenodd" clip-rule="evenodd" d="M378.826 600.183C378.654 597.265 379.685 595.091 382.814 591.504C385.942 587.917 391.17 582.918 400.459 579.416C409.749 575.915 423.102 573.913 433.478 573.433C443.855 572.953 451.254 573.995 458.186 575.88C465.119 577.766 471.583 580.493 476.955 583.969C482.326 587.443 486.603 591.664 488.062 595.512C489.522 599.36 488.164 602.833 486.052 605.371C483.942 607.909 481.082 609.51 477.551 609.604C474.021 609.697 469.821 608.282 464.957 606.966C460.094 605.65 454.565 604.433 450.085 603.653C445.604 602.873 442.172 602.53 438.681 602.53C435.19 602.53 431.643 602.873 428.095 603.446C424.547 604.017 420.999 604.817 417.566 605.791C414.132 606.764 410.814 607.907 407.87 609.16C404.926 610.413 402.357 611.772 399.668 612.746C396.979 613.719 394.169 614.303 391.161 613.853C388.154 613.401 384.95 611.913 382.661 609.339C380.372 606.764 378.998 603.101 378.826 600.183V600.183Z" stroke="#2B2A29" stroke-width="7" stroke-miterlimit="22.9256"/>
<path d="M167.798 1015.77C152.957 807.881 138.116 599.99 130.566 493.149C123.014 386.308 122.752 380.516 123.097 376.213C123.44 371.909 124.392 369.092 125.684 367.167C126.976 365.242 128.611 364.209 130.979 363.618C133.347 363.028 136.448 362.88 138.976 363.849C141.504 364.818 143.459 366.9 144.786 370.52C146.112 374.138 146.811 379.291 146.795 387.085C146.777 394.88 146.044 405.316 152.14 509.796C158.234 614.275 171.159 812.801 184.082 1011.32" stroke="#2B2A29" stroke-width="7" stroke-miterlimit="22.9256"/>
<path d="M207.959 1003.72C193.573 802.22 179.189 600.718 171.865 497.071C164.541 393.424 164.279 387.632 164.624 383.329C164.968 379.025 165.919 376.208 167.212 374.283C168.503 372.358 170.138 371.325 172.506 370.734C174.874 370.144 177.975 369.996 180.503 370.965C183.032 371.934 184.987 374.017 186.314 377.636C187.64 381.254 188.338 386.407 188.322 394.202C188.305 401.996 187.572 412.432 193.438 513.409C199.304 614.386 211.771 805.905 224.236 997.424" stroke="#2B2A29" stroke-width="7" stroke-miterlimit="22.9256"/>
<path d="M249.974 989.262C236.114 795.312 222.253 601.359 215.192 501.488C208.131 401.617 207.87 395.826 208.214 391.523C208.558 387.219 209.509 384.402 210.802 382.477C212.093 380.551 213.728 379.518 216.096 378.928C218.464 378.337 221.566 378.19 224.094 379.158C226.622 380.127 228.577 382.21 229.904 385.829C231.23 389.448 231.929 394.6 231.912 402.395C231.895 410.19 231.162 420.625 236.856 518.99C242.548 617.356 254.669 803.651 266.788 989.946" stroke="#2B2A29" stroke-width="7" stroke-miterlimit="22.9256"/>
<path d="M287.083 940.326C274.597 765.606 262.111 590.888 255.737 500.633C249.363 410.377 249.102 404.586 249.447 400.283C249.79 395.978 250.742 393.161 252.034 391.236C253.326 389.311 254.96 388.278 257.329 387.688C259.697 387.097 262.798 386.95 265.326 387.918C267.854 388.887 269.809 390.97 271.136 394.589C272.462 398.207 273.161 403.36 273.145 411.155C273.127 418.949 272.394 429.385 276.906 508.624C281.417 587.864 291.174 735.907 300.93 883.951" stroke="#2B2A29" stroke-width="7" stroke-miterlimit="22.9256"/>
<path d="M145.279 346.68C158.868 349.341 172.459 352.001 186.167 354.778C199.876 357.554 213.702 360.444 225.605 362.733C237.507 365.022 247.484 366.708 258.476 369.614C269.468 372.519 281.476 376.645 291.984 377.213C302.493 377.78 311.504 374.789 316.354 370.292C321.204 365.796 321.894 359.792 319.821 353.535C317.75 347.276 312.914 340.762 303.302 335.272C293.689 329.781 279.3 325.312 248.338 319.726C217.377 314.141 169.844 307.438 140.909 303.869C111.972 300.3 101.633 299.865 92.0141 299.993C82.3955 300.12 73.4975 300.811 66.7345 303.928C59.9701 307.046 55.3407 312.591 53.4266 319.466C51.5113 326.339 52.3127 334.54 62.7736 452.678C73.2333 570.814 93.3538 798.883 113.474 1026.95" stroke="#2B2A29" stroke-width="7" stroke-miterlimit="22.9256"/>
<path d="M149.991 1020.05C132.86 811.705 115.728 603.355 106.817 495.405C97.905 387.454 97.2141 379.903 96.7812 373.864C96.3482 367.825 96.1758 363.301 96.863 359.108C97.5503 354.916 99.0984 351.055 102.305 348.152C105.51 345.249 110.373 343.303 118.611 343.374C126.848 343.445 138.459 345.531 150.07 347.617" stroke="#2B2A29" stroke-width="7" stroke-miterlimit="22.9256"/>
<path d="M705.326 959.164C718.881 769.29 732.437 579.413 739.345 481.58C746.253 383.747 746.515 377.956 746.17 373.653C745.827 369.348 744.875 366.532 743.583 364.606C742.291 362.681 740.656 361.648 738.288 361.058C735.92 360.467 732.819 360.32 730.291 361.288C727.763 362.257 725.808 364.34 724.481 367.959C723.155 371.578 722.456 376.73 722.472 384.525C722.49 392.32 723.223 402.755 717.416 498.349C711.609 593.942 699.263 774.695 686.917 955.447" stroke="#2B2A29" stroke-width="7" stroke-miterlimit="22.9256"/>
<path d="M665.192 949.193C678.283 765.014 691.374 580.834 698.05 485.849C704.726 390.863 704.988 385.072 704.643 380.769C704.299 376.465 703.348 373.648 702.055 371.723C700.764 369.798 699.129 368.764 696.761 368.174C694.393 367.583 691.292 367.436 688.764 368.405C686.236 369.373 684.281 371.456 682.953 375.075C681.627 378.694 680.929 383.846 680.945 391.641C680.962 399.436 681.695 409.871 676.356 502.747C671.017 595.622 659.605 770.936 648.194 946.25" stroke="#2B2A29" stroke-width="7" stroke-miterlimit="22.9256"/>
<path d="M623.291 930.742C635.819 755.445 648.346 580.146 654.741 489.601C661.136 399.057 661.397 393.265 661.053 388.962C660.709 384.658 659.757 381.841 658.465 379.916C657.174 377.991 655.539 376.958 653.171 376.367C650.803 375.777 647.701 375.629 645.173 376.598C642.645 377.567 640.69 379.649 639.363 383.269C638.037 386.887 637.338 392.04 637.355 399.834C637.372 407.629 638.105 418.065 633.318 502.487C628.531 586.907 618.225 745.315 607.918 903.723" stroke="#2B2A29" stroke-width="7" stroke-miterlimit="22.9256"/>
<path d="M587.977 856.693C598.533 708.998 609.087 561.303 614.495 484.56C619.904 407.816 620.165 402.025 619.82 397.722C619.477 393.418 618.525 390.601 617.233 388.676C615.942 386.751 614.307 385.717 611.938 385.127C609.57 384.537 606.469 384.389 603.941 385.358C601.413 386.326 599.458 388.409 598.131 392.029C596.805 395.647 596.106 400.799 596.122 408.594C596.14 416.389 596.873 426.824 592.82 493.817C588.768 560.809 579.929 684.359 571.091 807.909" stroke="#2B2A29" stroke-width="7" stroke-miterlimit="22.9256"/>
<path d="M723.988 344.12C710.399 346.78 696.808 349.441 683.1 352.217C669.391 354.993 655.565 357.883 643.662 360.173C631.76 362.461 621.783 364.147 610.791 367.053C599.799 369.959 587.791 374.084 577.283 374.652C566.774 375.219 557.763 372.228 552.913 367.732C548.063 363.235 547.373 357.232 549.446 350.974C551.517 344.715 556.353 338.202 565.965 332.712C575.578 327.22 589.967 322.751 620.929 317.166C651.89 311.58 699.423 304.877 728.358 301.308C757.295 297.74 767.634 297.304 777.253 297.432C786.872 297.56 795.77 298.251 802.533 301.368C809.297 304.485 813.926 310.031 815.84 316.905C817.756 323.778 816.954 331.98 807.425 440.189C797.896 548.397 779.638 756.612 761.38 964.827" stroke="#2B2A29" stroke-width="7" stroke-miterlimit="22.9256"/>
<path d="M723.884 961.446C739.479 771.779 755.075 582.114 763.218 483.504C771.362 384.895 772.053 377.343 772.486 371.305C772.919 365.265 773.091 360.741 772.404 356.549C771.717 352.356 770.169 348.495 766.962 345.592C763.757 342.69 758.894 340.744 750.656 340.814C742.419 340.885 730.808 342.971 719.198 345.058" stroke="#2B2A29" stroke-width="7" stroke-miterlimit="22.9256"/>
</svg>
