<svg xmlns="http://www.w3.org/2000/svg" width="854" height="1115" fill="none"><path stroke="#2B2A29" stroke-miterlimit="22.926" stroke-width="7" d="M370.41 97.745c18.41 0 33.334-14.834 33.334-33.132 0-18.299-14.924-33.133-33.334-33.133-18.41 0-33.334 14.834-33.334 33.133 0 18.298 14.924 33.132 33.334 33.132Z"/><path stroke="#2B2A29" stroke-miterlimit="22.926" stroke-width="7" d="M370.708 81.38c9.206 0 16.668-7.417 16.668-16.567s-7.462-16.567-16.668-16.567-16.668 7.417-16.668 16.567 7.462 16.567 16.668 16.567ZM493.992 97.645c18.409 0 33.334-14.834 33.334-33.133 0-18.298-14.925-33.132-33.334-33.132-18.41 0-33.335 14.834-33.335 33.132 0 18.299 14.925 33.133 33.335 33.133Z"/><path stroke="#2B2A29" stroke-miterlimit="22.926" stroke-width="7" d="M494.289 81.28c9.206 0 16.669-7.418 16.669-16.568 0-9.15-7.463-16.567-16.669-16.567-9.205 0-16.668 7.418-16.668 16.567 0 9.15 7.463 16.567 16.668 16.567ZM490.487 31.561c-6.846.83-13.691 1.659-19.584 4.131-5.894 2.472-10.835 6.585-14.595 11.272-3.76 4.686-6.338 9.945-7.923 16.248-1.582 6.302-2.172 13.65-2.339 18.776-.168 5.126.086 8.034.149 11.194s-.063 6.572-.127 10.049a372.044 372.044 0 0 0-.027 10.515c.037 3.499.109 6.96-.397 10.499-.505 3.538-1.589 7.157-3.269 10.039-1.679 2.883-3.954 5.033-6.293 6.423-2.338 1.391-4.741 2.022-7.395 1.707-2.655-.316-5.561-1.58-7.963-3.412-2.401-1.834-4.298-4.235-5.815-6.953-1.516-2.718-2.654-5.75-3.981-7.899s-2.844-3.413-4.678-4.361c-1.832-.948-3.982-1.58-5.689-1.832-1.705-.253-2.969-.128-5.518.774-2.548.9-6.38 2.576-9.414 4.346-3.035 1.769-5.269 3.632-8.995 6.837-3.727 3.206-8.945 7.752-11.703 11.169-2.756 3.416-3.054 5.703-1.646 6.717 1.409 1.012 4.522.751 9.191-.984 4.67-1.736 10.895-4.947 17.721-8.612 6.827-3.665 14.252-7.786 21.679-11.905"/><path stroke="#2B2A29" stroke-miterlimit="22.926" stroke-width="7" d="M443.961 117.412c4.777 1.212 9.555 2.423 13.807 3.627 4.251 1.204 7.977 2.403 11.77 4.066 3.792 1.662 7.651 3.792 11.311 5.788 3.659 1.996 7.12 3.859 9.367 6.125 2.246 2.266 3.279 4.936 3.014 6.998-.267 2.062-1.834 3.518-5.277 3.315-3.445-.205-8.768-2.067-14.156-4.262-5.39-2.196-10.846-4.725-15.926-7.042-5.081-2.317-9.786-4.422-14.491-6.528"/><path stroke="#2B2A29" stroke-miterlimit="22.926" stroke-width="7" d="M317.17 88.832c.193-11.843.193-17.534.126-23.687-.066-6.153-.198-12.77.464-18.724.662-5.955 2.117-11.248 4.764-16.276 2.647-5.029 6.484-9.792 9.925-13.166 3.441-3.375 6.484-5.36 9.66-7.146 3.177-1.786 6.485-3.375 12.109-4.367 5.625-.993 13.564-1.39 37.78-1.455 24.218-.067 64.712.198 86.68.33 21.967.132 25.407.132 29.708 1.654 4.302 1.522 9.462 4.565 14.027 8.8 4.567 4.234 8.537 9.66 12.127 14.84 3.591 5.179 6.804 10.113 8.722 17.39 1.919 7.278 2.545 16.9 2.753 42.3.208 25.397-.002 66.572.064 89.134.067 22.56.408 26.51 1.674 30.022 1.265 3.512 3.452 6.587 6.687 9.388 3.235 2.801 7.517 5.326 11.524 7.36 4.008 2.035 7.739 3.579 12.252 4.682 4.513 1.101 9.807 1.763 15.563 2.226 5.757.463 11.977.728 22.894 1.391 10.918.661 26.533 1.719 42.255 2.815 15.722 1.097 31.55 2.229 41.942 2.847 10.392.618 15.348.719 19.873.285s8.62-1.405 15.63-1.426c7.01-.022 16.935.903 25.868 2.359 8.932 1.455 16.871 3.441 24.82 6.216 7.949 2.775 15.908 6.341 23.448 10.381 7.54 4.038 14.66 8.552 20.407 13.452 5.748 4.899 10.122 10.186 12.97 15.939 2.85 5.752 4.172 11.97 4.9 17.395.728 5.426.86 10.058.993 16.41.132 6.351.264 14.423-2.713 67.685-2.977 53.26-9.066 151.71-15.617 242.09-6.549 90.378-13.563 172.684-17.732 223.034-4.168 50.351-5.49 68.743-6.351 80.058-.86 11.314-1.257 15.548-2.316 19.054-1.058 3.507-2.779 6.287-6.286 8.271-3.507 1.985-8.8 3.176-14.954 3.904-6.153.727-13.166.992-22.43.529-9.263-.463-20.777-1.654-29.775-2.581-8.999-.927-15.484-1.588-22.299-2.514-6.815-.927-13.96-2.118-20.446-3.771-6.484-1.655-12.306-3.772-18.328-5.426-6.021-1.654-12.239-2.845-17.401-3.639-5.16-.794-9.264-1.191-13.366-.528-4.102.661-8.205 2.381-11.977 4.499-3.771 2.117-7.211 4.63-10.189 7.74-2.977 3.109-5.492 6.814-7.278 10.52-1.786 3.705-2.846 7.41-3.772 11.115-.926 3.705-1.72 7.411-2.051 12.374-.33 4.962-.198 11.175-.661 17.595a117.853 117.853 0 0 1-3.044 19.26c-1.521 6.22-3.507 12.04-5.823 18.19-2.316 6.15-4.962 12.64-8.933 18.59-3.969 5.96-9.262 11.38-14.158 15.48-4.897 4.11-9.397 6.89-15.286 10-5.888 3.11-13.167 6.55-21.041 9.46-7.873 2.91-16.343 5.29-24.547 7.08-8.205 1.78-16.145 2.97-25.012 2.58-8.866-.4-18.659-2.38-26.533-3.77-7.873-1.39-13.828-2.19-20.975-2.65-7.145-.46-15.482-.6-23.29-1.06-7.807-.46-15.086-1.26-22.431-2.51-7.344-1.26-14.755-2.98-22.165-5.69-7.411-2.72-14.821-6.42-20.843-10.06-6.021-3.64-10.653-7.21-14.557-11.71-3.903-4.5-7.08-9.93-8.999-13.89-1.918-3.98-2.58-6.49-3.507-10.13-.925-3.64-2.116-8.4-3.771-13.36-1.654-4.97-3.771-10.13-6.353-14.96-2.58-4.83-5.623-9.33-9.858-13.56s-9.659-8.204-15.284-11.048c-5.624-2.846-11.447-4.566-16.873-5.757-5.425-1.191-10.454-1.853-15.35-1.786-4.897.065-9.661.859-14.889 2.447-5.226 1.588-10.917 3.971-17.27 6.551-6.351 2.583-13.364 5.363-22.826 8.473-9.462 3.11-21.372 6.55-32.421 9.39-11.05 2.85-21.24 5.1-30.173 6.95-8.933 1.85-16.607 3.31-24.151 4.23-7.543.93-14.954 1.33-19.784 1.19-4.83-.13-7.08-.79-8.667-3.44-1.59-2.64-2.515-7.27-7.212-39.429-4.698-32.157-13.168-91.835-18.924-133.583-5.757-41.75-8.8-65.569-14.954-113.801-6.154-48.233-15.416-120.88-22.563-183.469-7.146-62.591-12.174-115.125-14.754-144.434-2.582-29.311-2.714-35.398-2.582-41.153.132-5.757.53-11.182 1.06-18.328.528-7.146 1.19-16.011 1.985-23.422.793-7.41 1.719-13.365 3.97-20.974 2.248-7.608 5.822-16.87 9.25-25.554 3.427-8.685 6.71-16.788 10.283-23.736 3.572-6.947 7.435-12.736 12.147-16.756 4.711-4.02 10.268-6.269 17.944-7.658 7.675-1.391 17.469-1.919 33.812-1.985 16.343-.067 39.236.33 63.784.727 24.548.397 50.75.794 74.306 1.191 23.555.396 44.463.793 57.366.529 12.903-.265 17.799-1.191 21.967-3.506 4.169-2.316 7.609-6.021 9.991-8.866 2.383-2.845 3.705-4.831 5.029-6.947 1.324-2.117 2.647-4.368 3.574-7.741.926-3.374 1.455-7.875 1.521-12.836.067-4.963-.33-10.387-.463-16.077-.132-5.691 0-11.645-.718-16.695-.717-5.049-2.285-9.192-4.867-12.963-2.58-3.772-6.172-7.171-7.778-17.868-1.603-10.697-1.219-28.692-1.027-40.534Z" clip-rule="evenodd"/><path stroke="#2B2A29" stroke-miterlimit="22.926" stroke-width="7" d="M330.842 160.198c6.238 3.535 12.478 7.071 18.736 10.479 6.258 3.407 12.537 6.685 19.285 10.126 6.75 3.441 13.969 7.042 21.549 10.034 7.58 2.992 15.519 5.375 23.658 6.897 8.139 1.52 16.476 2.183 24.151 2.514 7.676.33 14.69.33 23.225-.397 8.536-.728 18.593-2.184 27.327-4.566 8.734-2.382 16.145-5.69 22.694-9.262 6.551-3.574 12.241-7.41 17.866-12.439 5.624-5.029 11.181-11.247 13.96-14.555 2.78-3.308 2.781-3.704 2.781-3.769v.46M329.649 206.326c6.245 3.539 12.491 7.079 18.755 10.49 6.265 3.41 12.551 6.692 19.306 10.137 6.757 3.444 13.984 7.049 21.57 10.043 7.588 2.996 15.535 5.381 23.682 6.904 8.148 1.522 16.494 2.186 24.176 2.517 7.683.33 14.705.33 23.249-.397 8.544-.729 18.611-2.187 27.354-4.571 8.743-2.384 16.161-5.696 22.718-9.272 6.557-3.577 12.253-7.417 18.107-12.792 5.853-5.376 11.865-12.283 17.876-19.192"/><path stroke="#2B2A29" stroke-miterlimit="22.926" stroke-width="7" d="M331.855 185.118c6.209 3.519 12.42 7.039 18.648 10.431 6.23 3.391 12.479 6.654 19.195 10.078 6.719 3.425 13.905 7.01 21.448 9.987 7.545 2.978 15.446 5.35 23.548 6.864 8.1 1.515 16.398 2.173 24.037 2.503 7.64.329 14.621.329 23.117-.395 8.495-.725 18.504-2.174 27.198-4.544 8.693-2.37 16.069-5.664 22.589-9.219 6.52-3.557 12.182-7.375 17.781-12.38 5.598-5.005 11.129-11.195 13.896-14.487 2.766-3.293 2.767-3.686 2.767-3.752v.458M379.177 868.001l-12.755 225.539M433.719 866.775l12.87 237.655M371.766 999.029c5.272 3.321 10.543 6.651 16.955 8.601 6.413 1.95 13.966 2.52 21.347 1.61 7.382-.92 14.593-3.32 19.663-5.95 5.07-2.64 7.999-5.494 10.929-8.352M370.909 1026.95c5.272 3.33 10.543 6.65 16.955 8.6 6.413 1.95 13.966 2.52 21.347 1.61 7.382-.92 14.593-3.32 20.038-6.31 5.445-2.99 9.126-6.56 12.806-10.13M368.678 1053.64c6.324 3.64 12.65 7.28 19.588 9.39 6.939 2.1 14.492 2.67 21.873 1.76 7.382-.92 14.593-3.32 20.258-6.56 5.665-3.25 9.787-7.33 13.908-11.41M456.576 865.404l12.254 243.346M508.175 863.646l40.94 234.454M462.328 1002.31c5.63 2.68 11.258 5.35 17.856 6.53 6.598 1.17 14.166.85 21.387-.94 7.221-1.78 14.097-5.02 18.819-8.233 4.723-3.213 7.292-6.398 9.862-9.582M464.786 1030.13c5.629 2.68 11.257 5.36 17.855 6.54 6.598 1.17 14.166.84 21.387-.94 7.221-1.78 14.097-5.02 19.149-8.63 5.053-3.62 8.284-7.6 11.516-11.58M465.733 1056.9c6.711 2.86 13.424 5.73 20.563 7 7.139 1.27 14.707.94 21.927-.84 7.221-1.79 14.097-5.03 19.338-8.92 5.241-3.89 8.851-8.43 12.458-12.97M319.971 1039.33c6.927-36.37 13.854-72.742 18.941-103.087 5.087-30.347 8.335-54.669 11.213-67.001 2.878-12.332 5.387-12.675 6.387 2.125 1.001 14.801.495 44.745-1.686 82.375-2.179 37.629-6.031 82.948-9.884 128.258M594.97 1047.66c-11.457-39.34-22.916-78.67-31.377-110.298-8.461-31.628-13.927-55.55-17.925-67.566-3.996-12.016-6.527-12.127-6.165 2.702.361 14.83 3.612 44.602 9.237 81.874 5.623 37.27 13.615 82.038 21.61 126.808M262.928 989.36c5.174-7.008 10.347-14.016 16.139-27.349 5.791-13.335 12.202-32.995 18.125-59.887 5.925-26.893 11.362-61.019 15.421-88.317 4.06-27.297 6.741-47.765 7.337-65.99.597-18.226-.89-34.206-1.611-48.062-.72-13.857-.672-25.587 1.567-22.077 2.24 3.509 6.671 22.261 9.598 41.837 2.928 19.575 4.351 39.974 4.956 62.455.607 22.48.397 47.042-.511 70.06-.907 23.017-2.51 44.49-5.107 64.945-2.598 20.456-6.19 39.892-9.804 55.878-3.613 15.985-7.249 28.517-10.885 41.057M637.161 946.924c-5.065-4.954-10.129-9.908-17.387-21.581-7.259-11.673-16.71-30.066-26.831-55.675-10.121-25.611-20.912-58.44-29.255-84.746-8.345-26.306-14.242-46.088-17.727-63.987-3.484-17.899-4.555-33.913-6.044-47.709-1.491-13.794-3.402-25.368-5.054-21.547-1.655 3.821-3.05 23.038-2.831 42.832.22 19.79 2.056 40.156 5.029 62.448 2.972 22.291 7.082 46.507 11.634 69.089 4.553 22.582 9.546 43.527 15.36 63.31s12.449 38.402 19.447 54.378c6.999 15.977 14.362 29.311 21.726 42.644M357.69 457.823c24.946 0 45.169-7.178 45.169-16.032s-20.223-16.032-45.169-16.032c-24.945 0-45.168 7.178-45.168 16.032s20.223 16.032 45.168 16.032ZM508.721 458.018c25.464 0 46.107-7.178 46.107-16.033 0-8.854-20.643-16.032-46.107-16.032-25.465 0-46.107 7.178-46.107 16.032 0 8.855 20.642 16.033 46.107 16.033Z"/><path stroke="#2B2A29" stroke-miterlimit="22.926" stroke-width="7" d="M378.826 600.183c-.172-2.918.859-5.092 3.988-8.679 3.128-3.587 8.356-8.586 17.645-12.088 9.29-3.501 22.643-5.503 33.019-5.983 10.377-.48 17.776.562 24.708 2.447 6.933 1.886 13.397 4.613 18.769 8.089 5.371 3.474 9.648 7.695 11.107 11.543 1.46 3.848.102 7.321-2.01 9.859-2.11 2.538-4.97 4.139-8.501 4.233-3.53.093-7.73-1.322-12.594-2.638-4.863-1.316-10.392-2.533-14.872-3.313-4.481-.78-7.913-1.123-11.404-1.123-3.491 0-7.038.343-10.586.916a92.788 92.788 0 0 0-10.529 2.345c-3.434.973-6.752 2.116-9.696 3.369-2.944 1.253-5.513 2.612-8.202 3.586-2.689.973-5.499 1.557-8.507 1.107-3.007-.452-6.211-1.94-8.5-4.514-2.289-2.575-3.663-6.238-3.835-9.156Z" clip-rule="evenodd"/><path stroke="#2B2A29" stroke-miterlimit="22.926" stroke-width="7" d="M167.798 1015.77c-14.841-207.889-29.682-415.78-37.232-522.621-7.552-106.841-7.814-112.633-7.469-116.936.343-4.304 1.295-7.121 2.587-9.046 1.292-1.925 2.927-2.958 5.295-3.549 2.368-.59 5.469-.738 7.997.231 2.528.969 4.483 3.051 5.81 6.671 1.326 3.618 2.025 8.771 2.009 16.565-.018 7.795-.751 18.231 5.345 122.711 6.094 104.479 19.019 303.005 31.942 501.524M207.959 1003.72c-14.386-201.5-28.77-403.002-36.094-506.649-7.324-103.647-7.586-109.439-7.241-113.742.344-4.304 1.295-7.121 2.588-9.046 1.291-1.925 2.926-2.958 5.294-3.549 2.368-.59 5.469-.738 7.997.231 2.529.969 4.484 3.052 5.811 6.671 1.326 3.618 2.024 8.771 2.008 16.566-.017 7.794-.75 18.23 5.116 119.207 5.866 100.977 18.333 292.496 30.798 484.015M249.974 989.262c-13.86-193.95-27.721-387.903-34.782-487.774-7.061-99.871-7.322-105.662-6.978-109.965.344-4.304 1.295-7.121 2.588-9.046 1.291-1.926 2.926-2.959 5.294-3.549 2.368-.591 5.47-.738 7.998.23 2.528.969 4.483 3.052 5.81 6.671 1.326 3.619 2.025 8.771 2.008 16.566-.017 7.795-.75 18.23 4.944 116.595 5.692 98.366 17.813 284.661 29.932 470.956M287.083 940.326c-12.486-174.72-24.972-349.438-31.346-439.693-6.374-90.256-6.635-96.047-6.29-100.35.343-4.305 1.295-7.122 2.587-9.047 1.292-1.925 2.926-2.958 5.295-3.548 2.368-.591 5.469-.738 7.997.23 2.528.969 4.483 3.052 5.81 6.671 1.326 3.618 2.025 8.771 2.009 16.566-.018 7.794-.751 18.23 3.761 97.469 4.511 79.24 14.268 227.283 24.024 375.327"/><path stroke="#2B2A29" stroke-miterlimit="22.926" stroke-width="7" d="M145.279 346.68c13.589 2.661 27.18 5.321 40.888 8.098 13.709 2.776 27.535 5.666 39.438 7.955 11.902 2.289 21.879 3.975 32.871 6.881 10.992 2.905 23 7.031 33.508 7.599 10.509.567 19.52-2.424 24.37-6.921 4.85-4.496 5.54-10.5 3.467-16.757-2.071-6.259-6.907-12.773-16.519-18.263-9.613-5.491-24.002-9.96-54.964-15.546-30.961-5.585-78.494-12.288-107.429-15.857-28.937-3.569-39.276-4.004-48.895-3.876-9.618.127-18.516.818-25.28 3.935-6.764 3.118-11.393 8.663-13.307 15.538-1.916 6.873-1.114 15.074 9.347 133.212 10.46 118.136 30.58 346.205 50.7 574.272"/><path stroke="#2B2A29" stroke-miterlimit="22.926" stroke-width="7" d="M149.991 1020.05c-17.131-208.345-34.263-416.695-43.174-524.645-8.912-107.951-9.603-115.502-10.036-121.541-.433-6.039-.605-10.563.082-14.756.687-4.192 2.235-8.053 5.442-10.956 3.205-2.903 8.068-4.849 16.306-4.778 8.237.071 19.848 2.157 31.459 4.243M705.326 959.164c13.555-189.874 27.111-379.751 34.019-477.584 6.908-97.833 7.17-103.624 6.825-107.927-.343-4.305-1.295-7.121-2.587-9.047-1.292-1.925-2.927-2.958-5.295-3.548-2.368-.591-5.469-.738-7.997.23-2.528.969-4.483 3.052-5.81 6.671-1.326 3.619-2.025 8.771-2.009 16.566.018 7.795.751 18.23-5.056 113.824-5.807 95.593-18.153 276.346-30.499 457.098M665.192 949.193c13.091-184.179 26.182-368.359 32.858-463.344 6.676-94.986 6.938-100.777 6.593-105.08-.344-4.304-1.295-7.121-2.588-9.046-1.291-1.925-2.926-2.959-5.294-3.549-2.368-.591-5.469-.738-7.997.231-2.528.968-4.483 3.051-5.811 6.67-1.326 3.619-2.024 8.771-2.008 16.566.017 7.795.75 18.23-4.589 111.106-5.339 92.875-16.751 268.189-28.162 443.503M623.291 930.742c12.528-175.297 25.055-350.596 31.45-441.141 6.395-90.544 6.656-96.336 6.312-100.639-.344-4.304-1.296-7.121-2.588-9.046-1.291-1.925-2.926-2.958-5.294-3.549-2.368-.59-5.47-.738-7.998.231-2.528.969-4.483 3.051-5.81 6.671-1.326 3.618-2.025 8.771-2.008 16.565.017 7.795.75 18.231-4.037 102.653-4.787 84.42-15.093 242.828-25.4 401.236M587.977 856.693c10.556-147.695 21.11-295.39 26.518-372.133 5.409-76.744 5.67-82.535 5.325-86.838-.343-4.304-1.295-7.121-2.587-9.046-1.291-1.925-2.926-2.959-5.295-3.549-2.368-.59-5.469-.738-7.997.231-2.528.968-4.483 3.051-5.81 6.671-1.326 3.618-2.025 8.77-2.009 16.565.018 7.795.751 18.23-3.302 85.223-4.052 66.992-12.891 190.542-21.729 314.092"/><path stroke="#2B2A29" stroke-miterlimit="22.926" stroke-width="7" d="M723.988 344.12c-13.589 2.66-27.18 5.321-40.888 8.097-13.709 2.776-27.535 5.666-39.438 7.956-11.902 2.288-21.879 3.974-32.871 6.88-10.992 2.906-23 7.031-33.508 7.599-10.509.567-19.52-2.424-24.37-6.92-4.85-4.497-5.54-10.5-3.467-16.758 2.071-6.259 6.907-12.772 16.519-18.262 9.613-5.492 24.002-9.961 54.964-15.546 30.961-5.586 78.494-12.289 107.429-15.858 28.937-3.568 39.276-4.004 48.895-3.876 9.619.128 18.517.819 25.28 3.936 6.764 3.117 11.393 8.663 13.307 15.537 1.916 6.873 1.114 15.075-8.415 123.284-9.529 108.208-27.787 316.423-46.045 524.638"/><path stroke="#2B2A29" stroke-miterlimit="22.926" stroke-width="7" d="M723.884 961.446c15.595-189.667 31.191-379.332 39.334-477.942 8.144-98.609 8.835-106.161 9.268-112.199.433-6.04.605-10.564-.082-14.756-.687-4.193-2.235-8.054-5.442-10.957-3.205-2.902-8.068-4.848-16.306-4.778-8.237.071-19.848 2.157-31.458 4.244"/></svg>