<svg xmlns="http://www.w3.org/2000/svg" width="742" height="749" fill="none"><path stroke="#2B2A29" stroke-miterlimit="22.926" stroke-width="5" d="M371.001 666.456c161.333 0 292.12-130.786 292.12-292.118 0-161.333-130.787-292.119-292.12-292.119S78.882 213.005 78.882 374.338c0 161.332 130.786 292.118 292.119 292.118Z"/><path stroke="#2B2A29" stroke-miterlimit="22.926" stroke-width="5" d="M370.999 631.799c142.192 0 257.461-115.27 257.461-257.461 0-142.192-115.269-257.462-257.461-257.462-142.191 0-257.461 115.27-257.461 257.462 0 142.191 115.27 257.461 257.461 257.461Z"/><path stroke="#2B2A29" stroke-miterlimit="22.926" stroke-width="5" d="M371.001 572.385c109.379 0 198.047-88.669 198.047-198.047 0-109.379-88.668-198.047-198.047-198.047-109.378 0-198.047 88.668-198.047 198.047 0 109.378 88.669 198.047 198.047 198.047Z"/><path stroke="#2B2A29" stroke-miterlimit="22.926" stroke-width="5" d="M371.001 522.873c82.034 0 148.536-66.502 148.536-148.536 0-82.033-66.502-148.535-148.536-148.535-82.033 0-148.535 66.502-148.535 148.535 0 82.034 66.502 148.536 148.535 148.536Z"/><path stroke="#2B2A29" stroke-miterlimit="22.926" stroke-width="5" d="M371 489.556c63.127 0 114.3-51.585 114.3-115.219 0-63.633-51.173-115.218-114.3-115.218-63.126 0-114.299 51.585-114.299 115.218 0 63.634 51.173 115.219 114.299 115.219Z"/><path stroke="#2B2A29" stroke-miterlimit="22.926" stroke-width="5" d="M371 404.044c16.407 0 29.707-13.3 29.707-29.707 0-16.406-13.3-29.707-29.707-29.707-16.406 0-29.707 13.301-29.707 29.707 0 16.407 13.301 29.707 29.707 29.707Z"/><path stroke="#2B2A29" stroke-miterlimit="22.926" stroke-width="5" d="M62.617 181.151c6.607-6.841 6.607-6.841 10.513-15.905 3.907-9.064 11.718-27.194 24.503-41.275 12.784-14.081 30.538-24.115 46.028-36.604 15.492-12.492 28.714-27.444 45.223-36.885 16.511-9.442 36.303-13.372 46.199-15.337 9.898-1.967 9.898-1.967 19.306-7.21 9.409-5.244 28.226-15.728 46.843-19.605 18.619-3.878 37.035-1.143 46.244.224 9.21 1.366 9.21 1.366 19.535-.742 10.326-2.108 30.977-6.325 49.881-4.256 18.904 2.067 36.062 10.417 44.641 14.593 8.578 4.176 8.578 4.176 19.71 5.684 11.133 1.507 33.4 4.524 50.739 12.334 17.34 7.807 29.755 20.408 35.961 26.71 6.208 6.3 6.208 6.3 16.435 11.283 10.228 4.983 30.682 14.95 44.354 27.508 13.672 12.556 20.56 27.707 23.825 35.183 3.264 7.476 2.901 7.277 10.857 14.24 7.958 6.964 24.234 21.089 34.26 37.928 10.028 16.839 13.808 36.391 15.697 46.169 1.89 9.775 1.89 9.775 7.227 19.765 5.338 9.988 16.015 29.965 8.931 46.779-7.082 16.814-31.921 30.463-41.793 42.706-9.871 12.242-4.771 23.076 8.358 34.45 13.128 11.375 34.288 23.288 40.629 38.586 6.342 15.295-2.135 33.977-6.372 43.318-4.238 9.339-4.238 9.339-5.488 19.949-1.249 10.61-3.746 31.828-11.554 49.171-7.807 17.343-20.925 30.811-27.483 37.545-6.558 6.733-6.558 6.733-10.634 16-4.075 9.267-12.225 27.798-25.009 41.88-12.784 14.081-30.2 23.71-38.91 28.525-8.708 4.814-8.708 4.814-14.893 12.011-6.184 7.195-18.553 21.588-35.061 31.03-16.51 9.44-37.159 13.928-47.484 16.174-10.323 2.245-10.323 2.245-18.511 7.201-8.187 4.955-24.562 14.868-43.181 18.743-18.616 3.876-39.476 1.718-49.908.639-10.429-1.079-10.429-1.079-20.263 1.075-9.833 2.153-29.5 6.46-48.404 4.392-18.903-2.066-37.046-10.509-46.116-14.73s-9.07-4.221-19.459-5.37c-10.388-1.15-31.166-3.449-48.506-11.257-17.339-7.81-31.242-21.129-38.195-27.788-6.95-6.659-6.95-6.659-15.686-10.302-8.734-3.645-26.204-10.934-40.284-23.719-14.078-12.786-24.765-31.071-30.109-40.212-5.344-9.141-5.344-9.141-12.432-15.17-7.087-6.029-21.262-18.09-30.703-34.602-9.439-16.511-14.142-37.475-16.495-47.958-2.352-10.481-2.352-10.481-7.675-20.373-5.323-9.893-15.97-29.68-19.846-48.302-3.876-18.62-.98-36.075.255-44.322 1.235-8.246.809-7.282-1.217-18.214-2.026-10.934-5.652-33.763-3.373-53.151 2.28-19.39 10.467-35.339 14.56-43.314 4.092-7.973 4.092-7.973 5.293-18.476 1.2-10.506 3.602-31.514 11.409-48.858 7.808-17.343 21.02-31.02 27.628-37.858Z" clip-rule="evenodd"/><path stroke="#2B2A29" stroke-miterlimit="22.926" stroke-width="5" d="M691.588 374.659c.005.745.008 1.49.008 2.234 0 177.74-144.087 321.827-321.826 321.827-177.741 0-321.827-144.087-321.827-321.827S192.03 55.066 369.77 55.066c164.288 0 302.203 123.748 319.945 287.076"/></svg>