<svg xmlns="http://www.w3.org/2000/svg" width="1555" height="1564" fill="none"><path stroke="#2B2A29" stroke-miterlimit="22.926" stroke-width="7" d="M111.661 97.597c11.856-1.524 23.711-3.05 34.552-9.172 10.841-6.123 20.669-16.841 34.33-19.899 13.66-3.057 31.156 1.547 44.737-2.597 13.582-4.144 23.251-17.035 36.373-20.258 13.121-3.223 29.696 3.223 43.97.921 14.272-2.301 26.242-13.352 41.665-15.654 15.423-2.302 34.301 4.144 50.876 1.612 16.574-2.532 30.847-14.043 46.041-15.194 15.193-1.151 31.307 8.058 46.5 7.367 15.194-.69 29.467-11.28 44.891-11.97 15.423-.69 31.997 8.517 47.191 8.017 15.193-.5 29.005-10.707 42.817-12.09 13.812-1.38 27.624 6.064 41.207 5.183 13.582-.88 26.934-10.089 40.977-9.859 14.043.23 28.774 9.9 43.943 10.126 15.168.227 30.772-8.988 44.439-8.615 13.669.375 25.402 10.338 39.958 10.026 14.557-.313 31.938-10.903 47.763-9.636 15.828 1.266 30.101 14.387 46.559 15.02 16.46.633 35.107-11.223 50.646-9.956 15.538 1.266 27.964 15.653 46.614 17.553 18.65 1.9 43.51-8.69 61.87-5.641 18.36 3.05 30.21 19.74 47.65 21.697 17.44 1.957 40.46-10.82 59.16-7.655 18.71 3.166 33.1 22.273 51 31.873 17.91 9.601 39.34 9.695 50.49 10.584 11.14.889 12 2.574 12.86 4.258"/><path stroke="#2B2A29" stroke-miterlimit="22.926" stroke-width="7" d="M112.266 96.734c1.223 15.784 2.446 31.566 5.129 48.895 2.683 17.331 6.827 36.208 9.82 53.013 2.993 16.805 4.833 31.537 3.452 43.508-1.381 11.971-5.985 21.179-10.128 33.15-4.144 11.97-7.828 26.703-12.432 44.197-4.604 17.497-10.128 37.755-14.503 58.243-4.373 20.489-7.596 41.206-19.336 84.946-11.74 43.739-31.999 110.497-45.58 155.156-13.582 44.661-20.489 67.219-23.25 90.93-2.763 23.711-1.383 48.574 2.761 74.587 4.144 26.013 11.05 53.177 18.878 81.491 7.826 28.316 16.573 57.783 24.401 78.5 7.827 20.718 14.732 32.689 23.25 43.279 8.517 10.589 18.647 19.801 28.315 34.991 9.668 15.19 18.877 36.37 24.861 50.18 5.986 13.82 8.749 20.26 15.425 26.48 6.676 6.21 17.266 12.2 31.077 25.78 13.813 13.58 30.848 34.76 41.437 49.49 10.59 14.74 14.733 23.02 16.113 31.54 1.381 8.52 0 17.27 4.835 29.93 4.834 12.66 15.885 29.23 27.855 43.28 11.97 14.04 24.862 25.55 33.379 35.91 8.518 10.36 12.662 19.57 24.402 31.77 11.741 12.2 31.077 27.39 47.883 38.9 16.804 11.51 31.077 19.34 43.739 23.94 12.66 4.61 23.71 5.99 32.918 3.68 9.208-2.3 16.575-8.28 26.244-9.2 9.669-.92 21.638 3.22 33.378 12.2 11.742 8.98 23.251 22.79 36.834 33.15 13.581 10.36 29.234 17.26 41.205 25.78 11.971 8.52 20.258 18.65 33.38 32.23 13.122 13.58 31.078 30.62 49.034 40.74 17.955 10.13 35.911 13.36 50.184 12.9 14.272-.46 24.862-4.61 37.524-9.9 12.661-5.3 27.393-11.74 40.514-21.41 13.122-9.67 24.632-22.56 40.516-32.23 15.884-9.67 36.143-16.12 53.867-27.16 17.727-11.05 32.92-26.71 46.272-35 13.352-8.28 24.862-9.2 35.912-19.33 11.05-10.13 21.639-29.47 46.269-38.68 24.63-9.2 63.31-8.28 92.31-10.36 29.01-2.07 48.35-7.13 66.99-16.34 18.65-9.21 36.6-22.56 52.72-28.08 16.11-5.53 30.39-3.23 43.28-4.15 12.89-.92 24.4-5.06 39.13-9.67 14.73-4.6 32.69-9.67 47.88-17.49 15.2-7.83 27.63-18.42 37.76-31.31 10.13-12.89 17.95-28.08 28.08-46.73 10.13-18.65 22.56-40.75 34.53-60.32 11.97-19.56 23.48-36.6 35.45-48.11 11.97-11.51 24.41-17.49 30.16-26.01 5.76-8.52 4.84-19.57 2.53-29.24-2.3-9.66-5.98-17.95-3.91-28.31 2.07-10.36 9.9-22.791 15.65-37.295 5.76-14.502 9.44-31.077 10.36-48.573.92-17.495-.92-35.911-4.14-62.846-3.22-26.933-7.83-62.385-12.66-91.621-4.84-29.235-9.9-52.256-13.82-74.355-3.91-22.1-6.67-43.277-11.5-62.155-4.84-18.876-11.74-35.451-17.96-51.566-6.22-16.114-11.74-31.768-14.73-42.357-3-10.59-3.46-16.114-7.14-20.949-3.68-4.835-10.59-8.977-16.11-16.114-5.53-7.137-9.67-17.265-14.97-30.157-5.29-12.891-11.74-28.545-20.95-45.35-9.2-16.804-21.17-34.761-32.22-46.041-11.05-11.279-21.18-15.884-28.09-22.329-6.9-6.445-10.59-14.734-12.2-24.172-1.61-9.437-1.15-20.028-2.99-29.696-1.84-9.669-5.99-18.415-10.82-25.322-4.84-6.906-10.36-11.971-14.04-21.64-3.69-9.667-5.53-23.94-8.06-36.141-2.53-12.201-5.76-22.329-8.06-33.149-2.3-10.82-3.68-22.33-1.61-33.841 2.07-11.51 7.6-23.019 11.74-33.609 4.14-10.589 6.91-20.259 6.59-28.196-.31-7.939-3.7-14.146-7.09-20.353"/><path stroke="#2B2A29" stroke-miterlimit="22.926" stroke-width="7" d="M130.396 220.3c31.278-14.515 62.557-29.028 100.297-42.271 37.737-13.241 81.937-25.211 133.042-33.96 51.104-8.748 109.116-14.272 165.286-17.956 56.169-3.682 110.497-5.524 156.998-6.445 46.501-.92 85.175-.92 126.612-2.763 41.437-1.842 85.636-5.524 127.073-7.827 41.436-2.301 80.116-3.223 116.946-1.381 36.83 1.843 71.82 6.446 111.9 16.424 40.07 9.977 85.24 25.329 130.4 40.68"/><path stroke="#2B2A29" stroke-miterlimit="22.926" stroke-width="7" d="M126.545 258.993c25.197-7.154 50.391-14.308 80.484-22.949 30.094-8.642 65.085-18.77 109.284-28.899 44.199-10.129 97.606-20.258 140.423-25.783 42.818-5.525 75.048-6.445 121.088-9.668 46.041-3.223 105.894-8.747 158.841-11.97 52.945-3.224 98.987-4.144 145.947-4.144 46.962 0 94.845.92 138.578 1.381 43.74.461 83.34.46 129.21 7.331 45.87 6.87 98.02 20.609 150.16 34.35"/><path stroke="#2B2A29" stroke-dasharray="2.67 8" stroke-miterlimit="22.926" stroke-opacity=".949" stroke-width="7" d="M641.014 566.607c37.753-22.099 75.507-44.198 111.878-69.06 36.372-24.863 71.364-52.487 101.751-77.349 30.387-24.862 56.169-46.961 84.254-74.126 28.086-27.163 58.472-59.392 83.363-91.537 24.89-32.146 44.29-64.208 63.68-96.271"/><path stroke="#2B2A29" stroke-miterlimit="22.926" stroke-width="7" d="M130.974 238.685c27.632-10.283 55.265-20.566 81.513-29.392 26.248-8.823 51.11-16.19 82.648-24.017 31.537-7.827 69.751-16.114 104.973-23.02 35.221-6.906 67.448-12.431 107.965-15.884 40.515-3.453 89.318-4.835 133.287-5.525 43.969-.691 83.103-.691 125.231-2.072 42.127-1.382 87.247-4.143 135.358-5.755 48.114-1.612 99.221-2.073 141.581-.922 42.35 1.152 75.96 3.914 116.93 12.465 40.98 8.549 89.31 22.886 137.64 37.224"/><path stroke="#2B2A29" stroke-dasharray="2.67 13.33" stroke-miterlimit="22.926" stroke-opacity=".949" stroke-width="7" d="M1541.03 825.88c-24.68 54.46-49.37 108.921-76.44 151.805-27.07 42.885-56.54 74.195-93.83 115.165-37.29 40.98-82.41 91.62-146.75 143.25-64.33 51.62-147.88 104.22-231.432 156.82"/><path stroke="#2B2A29" stroke-dasharray="2.67 13.33" stroke-miterlimit="22.926" stroke-width="7" d="M1551.02 934.603c-37.22 50.447-74.44 100.897-115.15 148.677-40.71 47.79-84.91 92.91-136.18 139.23-51.27 46.33-109.62 93.87-167.97 141.41"/><path stroke="#2B2A29" stroke-dasharray="2.67 13.33" stroke-miterlimit="22.926" stroke-opacity=".949" stroke-width="7" d="M1525.31 1034.8c-41.54 53.88-83.08 107.76-125.07 154.91-41.98 47.14-84.41 87.55-126.84 127.95"/><path stroke="#2B2A29" stroke-dasharray="2.67 13.33" stroke-miterlimit="22.926" stroke-width="7" d="M1530.01 756.283c-43.11 74.898-86.21 149.794-130.08 208.646-43.87 58.851-88.5 101.661-127.18 137.111-38.67 35.45-71.39 63.55-125.96 106.14-54.58 42.59-131.01 99.68-200.987 150.79-69.981 51.1-133.518 96.22-178.904 126.63-45.386 30.41-72.622 46.11-99.857 61.8"/><path stroke="#2B2A29" stroke-dasharray="2.67 13.33" stroke-miterlimit="22.926" stroke-opacity=".949" stroke-width="7" d="M618.008 1506.66c51.868-37.11 103.736-74.21 166.962-119.01 63.227-44.8 137.812-97.28 211.478-152.99 73.662-55.71 146.412-114.64 211.322-172.65 64.92-58.02 122.01-115.106 166.67-170.356 44.66-55.248 76.89-108.654 98.27-144.524 21.39-35.868 31.93-54.2 42.47-72.531"/><path stroke="#2B2A29" stroke-dasharray="2.67 13.33" stroke-miterlimit="22.926" stroke-opacity=".949" stroke-width="7" d="M563.864 1461.79c65.312-45.17 130.623-90.34 189.982-132.72 59.36-42.39 112.768-81.98 163.9-121.26 51.133-39.27 99.994-78.23 152.014-121.04 52.03-42.82 107.22-89.503 148.63-129.419 41.41-39.913 69.04-73.062 104.49-117.723 35.45-44.659 78.73-100.828 108.04-144.008 29.32-43.18 44.67-73.371 60.02-103.561"/><path stroke="#2B2A29" stroke-dasharray="2.67 13.33" stroke-miterlimit="22.926" stroke-opacity=".949" stroke-width="7" d="M732.175 1259.98c67.219-49.72 134.439-99.45 201.197-151.47 66.758-52.03 133.058-106.36 182.778-152.399 49.73-46.041 82.88-83.793 122.93-129.374 40.06-45.58 87.02-98.986 125.14-151.276 38.11-52.288 67.39-103.458 96.66-154.63M803.998 1094.23c48.803-31.3 97.606-62.61 141.344-97.602 43.739-34.991 82.418-73.665 126.148-116.023 43.74-42.357 92.55-88.397 137.67-137.2 45.12-48.803 86.55-100.369 122.44-148.147 35.89-47.779 66.24-91.769 96.58-135.759M812.285 997.549c42.358-29.467 84.715-58.932 125.691-90.701 40.977-31.767 80.574-65.838 117.404-103.592 36.83-37.752 70.9-79.189 108.66-124.31 37.75-45.118 79.19-93.923 116.6-142.512 37.41-48.59 70.79-96.966 104.18-145.343M618.915 1005.84c62.615-34.074 125.231-68.145 180.94-106.359s104.511-80.571 151.473-123.388c46.962-42.818 92.082-86.096 130.752-125.691 38.68-39.595 70.91-75.507 108.66-120.626 37.75-45.12 81.03-99.448 107.35-134.324 26.31-34.875 35.67-50.297 45.02-65.72M569.19 934.012c69.479-37.506 138.96-75.015 200.654-120.135 61.694-45.12 115.604-97.852 166.5-145.856 50.896-48.006 98.776-91.284 144.816-135.483 46.04-44.199 90.24-89.319 129.19-133.573 38.94-44.254 72.63-87.644 106.33-131.033M558.141 823.515c52.486-28.545 104.973-57.091 154.698-92.542 49.723-35.451 96.683-77.808 148.249-123.388 51.566-45.581 107.736-94.385 155.152-137.202 47.43-42.818 86.1-79.65 118.33-114.641 32.23-34.991 58.01-68.14 79.01-95.481 21.01-27.34 37.23-48.871 53.45-70.402M671.401 646.719c42.358-27.624 84.715-55.249 120.166-79.651 35.452-24.401 63.996-45.579 101.75-77.807 37.753-32.229 84.714-75.508 128.453-119.247 43.74-43.738 84.25-87.938 110.82-121.297 26.56-33.358 39.17-55.878 51.78-78.397M502.893 527.933c49.724-28.545 99.447-57.089 146.869-84.714 47.421-27.624 92.542-54.328 137.661-85.176 45.121-30.847 90.241-65.838 125.711-100.084 35.472-34.245 61.294-67.744 87.116-101.244M588.528 395.337c31.307-18.416 62.615-36.833 98.527-60.314s76.427-52.025 114.656-82.759 74.169-63.655 110.112-96.578M629.964 287.602c34.992-17.496 69.982-34.992 99.923-56.841 29.939-21.85 54.829-48.053 79.718-74.257"/><path stroke="#2B2A29" stroke-dasharray="4 20" stroke-miterlimit="22.926" stroke-width="7" d="M121.976 168.071c31.277-14.513 62.556-29.027 100.295-42.269 37.738-13.242 81.937-25.213 133.043-33.96C406.418 83.093 464.429 77.57 520.6 73.885c56.168-3.683 110.497-5.525 156.998-6.445 46.501-.92 85.175-.92 126.612-2.763 41.437-1.841 85.635-5.525 127.072-7.827 41.436-2.301 80.108-3.222 116.948-1.38 36.83 1.84 71.82 6.445 115.52 18.842 43.69 12.397 96.09 32.587 148.49 52.776"/></svg>