<svg width="1569" height="1395" viewBox="0 0 1569 1395" fill="none" xmlns="http://www.w3.org/2000/svg">
<path d="M29.2904 4.02787C58.5452 10.6874 86.8236 17.125 117.056 24.0077C147.289 30.8904 183.365 -2.2731 215.527 4.02787C247.692 10.3289 268.803 22.2696 308.645 22.2696C348.488 22.2696 362.673 4.39196 401.764 4.02787C440.853 3.66379 456.486 20.5329 494.882 20.5329C533.276 20.5329 547.778 3.29134 588 4.02787C628.222 4.76441 643.304 24.0063 684.687 24.0063C726.069 24.0063 734.825 4.94714 774.236 4.02787C813.646 3.1086 833.208 19.6638 870.922 19.6638C908.636 19.6638 922.672 3.85072 960.472 4.02787C998.272 4.20503 1016.98 20.5329 1055.37 20.5329C1093.77 20.5329 1106.52 3.57731 1146.71 4.02787C1186.9 4.47844 1208.49 22.7034 1248.75 22.7034C1289.01 22.7034 1293.28 4.2148 1332.94 4.02787C1372.61 3.84095 1393.7 21.8358 1433.2 21.8358C1472.7 21.8358 1491.07 9.89642 1519.73 3.96092" stroke="#2B2A29" stroke-width="5" stroke-miterlimit="22.9256"/>
<path d="M29.7884 3C25.4668 16.6426 21.1439 30.2852 18.1782 43.2735C15.2126 56.2619 13.6042 68.596 13.2011 79.9927C12.7979 91.3895 13.6042 101.847 11.5927 112.307C9.58116 122.765 4.75463 133.224 4.08366 143.011C3.41409 152.799 6.89868 161.917 9.71508 171.436C12.5301 180.955 14.6755 190.878 16.8209 198.654C18.9664 206.431 21.1118 212.062 25.6705 214.743C30.2292 217.424 37.2011 217.157 42.029 217.827C46.8541 218.497 49.5367 220.105 50.8772 223.593C52.2177 227.079 52.2177 232.442 52.487 239.013C52.7548 245.581 53.2904 253.358 54.2292 264.621C55.168 275.884 56.5086 290.633 59.3236 303.773C62.14 316.912 66.4308 328.443 70.0507 336.755C73.6706 345.069 76.621 350.163 79.973 352.711C83.3237 355.259 87.0788 355.259 91.3697 357.94C95.6592 360.623 100.487 365.985 103.57 372.286C106.654 378.588 107.996 385.829 110.811 390.656C113.627 395.482 117.917 397.896 124.755 405.94C131.593 413.985 140.978 427.661 147.826 437.059C154.674 446.457 158.983 451.579 161.596 456.995C164.208 462.412 165.125 468.126 167.662 472.404C170.201 476.682 174.362 479.524 192.531 497.57C210.7 515.618 242.879 548.869 266.074 573.137C289.269 597.405 303.483 612.691 311.795 623.015C320.108 633.339 322.522 638.703 321.985 643.261C321.45 647.82 317.964 651.574 310.59 654.121C303.215 656.668 291.952 658.01 278.41 657.607C264.868 657.205 249.046 655.06 238.32 654.121C227.593 653.182 221.963 653.45 215.393 652.243C208.823 651.037 201.315 648.356 193.672 647.417C186.029 646.479 178.253 647.284 171.682 649.027C165.112 650.769 159.75 653.451 155.191 657.071C150.633 660.691 146.877 665.25 145.806 671.149C144.733 677.048 146.342 684.289 148.889 695.015C151.438 705.741 154.922 719.954 163.37 749.987C171.816 780.022 185.225 825.877 196.22 861.14C207.215 896.402 215.793 921.072 224.643 939.441C233.493 957.811 242.61 969.878 252.264 986.1C261.917 1002.32 272.109 1022.7 282.433 1038.53C292.757 1054.35 303.215 1065.61 311.527 1072.98C319.84 1080.36 326.008 1083.84 331.907 1087.06C337.807 1090.28 343.438 1093.23 350.411 1102.88C357.383 1112.54 365.696 1128.9 374.679 1140.29C383.663 1151.69 393.314 1158.13 402.298 1166.44C411.283 1174.75 419.597 1184.94 425.764 1193.39C431.931 1201.83 435.954 1208.54 443.328 1215.78C450.701 1223.02 461.428 1230.8 466.658 1234.55C471.886 1238.3 471.617 1238.04 479.126 1238.44C486.635 1238.84 501.921 1239.91 514.792 1242.46C527.663 1245.01 538.121 1249.03 549.921 1254.12C561.72 1259.22 574.858 1265.39 585.853 1269.14C596.848 1272.9 605.698 1274.24 613.072 1273.43C620.445 1272.63 626.344 1269.68 630.234 1270.21C634.121 1270.75 635.999 1274.77 639.083 1281.07C642.167 1287.38 646.457 1295.96 649.675 1304.94C652.893 1313.93 655.039 1323.31 658.255 1330.82C661.474 1338.33 665.764 1343.96 671.262 1347.71C676.759 1351.47 683.464 1353.34 687.085 1356.29C690.705 1359.24 691.24 1363.27 694.726 1367.69C698.212 1372.12 704.647 1376.94 711.485 1379.22C718.323 1381.5 725.563 1381.23 731.865 1381.23C738.168 1381.23 743.53 1381.5 752.112 1383.78C760.692 1386.06 772.49 1390.35 782.816 1390.89C793.14 1391.42 801.989 1388.21 813.654 1385.52C825.318 1382.84 839.799 1380.7 854.815 1378.68C869.833 1376.67 885.385 1374.8 901.34 1374.39C917.297 1373.99 933.654 1375.06 943.978 1371.85C954.304 1368.63 958.593 1361.12 964.091 1356.16C969.588 1351.2 976.291 1348.79 983.263 1346.37C990.236 1343.96 997.476 1341.55 1004.18 1334.71C1010.89 1327.87 1017.05 1316.61 1027.64 1305.34C1038.24 1294.08 1053.25 1282.82 1068.81 1272.09C1084.36 1261.37 1100.45 1251.18 1111.58 1243.67C1122.71 1236.16 1128.87 1231.33 1132.23 1228.78C1135.58 1226.24 1136.11 1225.97 1144.43 1221.01C1152.74 1216.05 1168.83 1206.39 1187.2 1194.86C1205.57 1183.33 1226.22 1169.92 1244.72 1160C1263.22 1150.08 1279.58 1143.64 1291.78 1139.49C1303.98 1135.33 1312.03 1133.45 1323.69 1130.5C1335.36 1127.55 1350.64 1123.53 1364.72 1117.77C1378.8 1112 1391.67 1104.49 1401.32 1100.2C1410.98 1095.91 1417.41 1094.84 1424.92 1094.03C1432.43 1093.23 1441.01 1092.7 1445.44 1088.67C1449.86 1084.65 1450.13 1077.14 1452.27 1067.22C1454.42 1057.3 1458.44 1044.96 1460.18 1034.5C1461.93 1024.04 1461.39 1015.47 1459.11 1008.22C1456.83 1000.98 1452.81 995.084 1449.46 989.318C1446.11 983.553 1443.42 977.923 1442.62 969.072C1441.82 960.224 1442.89 948.156 1441.95 938.234C1441.01 928.313 1438.06 920.536 1435.11 910.882C1432.16 901.229 1429.21 889.698 1427.47 880.447C1425.72 871.196 1425.19 864.222 1421.84 856.713C1418.48 849.206 1412.32 841.161 1406.95 832.178C1401.59 823.196 1397.03 813.273 1394.75 804.556C1392.47 795.842 1392.47 788.334 1393.68 774.925C1394.89 761.518 1397.3 742.211 1397.3 719.014C1397.3 695.819 1394.89 668.736 1390.19 648.356C1385.5 627.975 1378.53 614.299 1374.24 605.718C1369.95 597.137 1368.34 593.651 1368.88 588.69C1369.41 583.729 1372.09 577.294 1373.03 566.299C1373.97 555.304 1373.17 539.752 1372.63 529.025C1372.09 518.299 1371.83 512.4 1372.09 507.439C1372.36 502.478 1373.17 498.456 1373.84 493.628C1374.51 488.802 1375.04 483.17 1375.98 476.6C1376.92 470.031 1378.26 462.522 1380.41 451.527C1382.55 440.532 1385.5 426.053 1387.78 416.666C1390.06 407.281 1391.67 402.99 1394.62 401.382C1397.57 399.773 1401.86 400.845 1404.81 402.185C1407.76 403.527 1409.37 405.137 1413.52 405.94C1417.68 406.745 1424.38 406.745 1430.82 409.426C1437.26 412.109 1443.42 417.471 1452.14 422.297C1460.85 427.125 1472.12 431.415 1482.44 433.963C1492.77 436.511 1502.15 437.315 1510.6 438.79C1519.04 440.266 1526.55 442.41 1531.51 439.058C1536.48 435.706 1538.89 426.858 1542.24 411.706C1545.59 396.555 1549.88 375.102 1553.37 363.035C1556.85 350.968 1559.54 348.286 1560.48 344.264C1561.41 340.241 1560.61 334.879 1561.01 327.906C1561.41 320.934 1563.02 312.355 1564.09 304.443C1565.17 296.532 1565.7 289.292 1563.42 280.844C1561.15 272.396 1556.05 262.743 1554.71 252.956C1553.37 243.168 1555.78 233.246 1556.72 223.19C1557.66 213.135 1557.12 202.945 1557.39 193.693C1557.66 184.442 1558.73 176.13 1557.52 168.218C1556.32 160.307 1552.83 152.799 1551.22 145.559C1549.62 138.318 1549.88 131.346 1547.47 123.302C1545.06 115.257 1539.96 106.14 1536.21 99.3016C1532.45 92.4636 1530.04 87.9049 1531.92 81.0669C1533.79 74.2288 1539.96 65.1115 1542.24 55.8602C1544.52 46.6089 1542.91 37.2236 1538.42 28.5624C1533.93 19.9012 1526.55 11.9639 1519.18 4.02809" stroke="#2B2A29" stroke-width="7" stroke-miterlimit="22.9256"/>
<path d="M155.311 446.062C161.99 432.872 168.669 419.683 172.01 406.384C175.348 393.086 175.348 379.677 171.864 367.342C168.378 355.006 161.405 343.745 150.947 336.505C140.489 329.264 126.545 326.046 121.718 319.61C116.89 313.175 121.181 303.52 125.472 293.33C129.761 283.14 134.052 272.414 132.98 259.274C131.907 246.134 125.472 230.581 119.036 208.056C112.599 185.53 106.165 156.034 98.3877 134.044C90.6109 112.055 81.4935 97.5745 71.5713 80.4111C61.649 63.2505 50.9233 43.4059 43.7421 30.2279C36.5609 17.0498 32.9256 10.5396 29.2904 4.02795" stroke="#2B2A29" stroke-width="7" stroke-miterlimit="22.9256"/>
<path d="M145.079 138.505C173.236 105.789 201.393 73.0734 229.549 40.3591" stroke="#2B2A29" stroke-width="5" stroke-miterlimit="22.9256"/>
<path d="M147.492 79.7778C183.158 133.142 218.823 186.505 254.488 239.869" stroke="#2B2A29" stroke-width="5" stroke-miterlimit="22.9256"/>
<path d="M195.762 219.756C228.208 180.873 260.656 141.989 293.103 103.106" stroke="#2B2A29" stroke-width="5" stroke-miterlimit="22.9256"/>
<path d="M287.472 133.679C261.461 102.304 235.449 70.9284 209.438 39.5532" stroke="#2B2A29" stroke-width="5" stroke-miterlimit="22.9256"/>
<path d="M244.157 120.146C244.157 119.187 239.793 118.409 234.41 118.409C229.028 118.409 224.664 119.187 224.664 120.146C224.664 121.106 229.028 121.883 234.41 121.883C239.793 121.883 244.157 121.106 244.157 120.146Z" fill="#2B2A29" stroke="#2B2A29" stroke-width="5" stroke-miterlimit="22.9256"/>
<path d="M205.225 119.797C205.225 118.838 200.862 118.06 195.479 118.06C190.096 118.06 185.732 118.838 185.732 119.797C185.732 120.757 190.096 121.535 195.479 121.535C200.862 121.535 205.225 120.757 205.225 119.797Z" fill="#2B2A29" stroke="#2B2A29" stroke-width="5" stroke-miterlimit="22.9256"/>
<path d="M229.798 154.037C229.798 153.078 225.434 152.3 220.051 152.3C214.668 152.3 210.305 153.078 210.305 154.037C210.305 154.997 214.668 155.775 220.051 155.775C225.434 155.775 229.798 154.997 229.798 154.037Z" fill="#2B2A29" stroke="#2B2A29" stroke-width="5" stroke-miterlimit="22.9256"/>
<path fill-rule="evenodd" clip-rule="evenodd" d="M909.638 115.059L941.204 114.748L892.639 190.493L859.798 191.795L909.638 115.059Z" stroke="#2B2A29" stroke-width="5" stroke-miterlimit="22.9256"/>
<path fill-rule="evenodd" clip-rule="evenodd" d="M725.303 115.219L756.868 114.908L708.303 190.654L675.463 191.954L725.303 115.219Z" stroke="#2B2A29" stroke-width="5" stroke-miterlimit="22.9256"/>
<path fill-rule="evenodd" clip-rule="evenodd" d="M789.128 114.484L820.693 114.173L784.106 171.239L772.128 189.92L739.288 191.22L789.128 114.484Z" stroke="#2B2A29" stroke-width="5" stroke-miterlimit="22.9256"/>
<path fill-rule="evenodd" clip-rule="evenodd" d="M1557.16 168.266L1543.8 189.107L1510.96 190.407L1548.96 131.899C1549.82 138.202 1549.99 140.851 1551.22 145.559L1557.16 168.266V168.266Z" stroke="#2B2A29" stroke-width="5" stroke-miterlimit="22.9256"/>
<path fill-rule="evenodd" clip-rule="evenodd" d="M848.999 114.971L880.564 114.66L832 190.407L799.159 191.707L848.999 114.971Z" stroke="#2B2A29" stroke-width="5" stroke-miterlimit="22.9256"/>
<path fill-rule="evenodd" clip-rule="evenodd" d="M1169.33 114.709L1200.9 114.398L1152.33 190.145L1119.49 191.445L1169.33 114.709Z" stroke="#2B2A29" stroke-width="5" stroke-miterlimit="22.9256"/>
<path fill-rule="evenodd" clip-rule="evenodd" d="M1105.71 115.272L1137.28 114.961L1088.71 190.707L1055.87 192.007L1105.71 115.272Z" stroke="#2B2A29" stroke-width="5" stroke-miterlimit="22.9256"/>
<path fill-rule="evenodd" clip-rule="evenodd" d="M1040.41 114.79L1071.98 114.479L1023.42 190.226L990.575 191.526L1040.41 114.79Z" stroke="#2B2A29" stroke-width="5" stroke-miterlimit="22.9256"/>
<path fill-rule="evenodd" clip-rule="evenodd" d="M331.299 113.872L362.864 113.561L314.299 189.308L281.458 190.608L331.299 113.872Z" stroke="#2B2A29" stroke-width="5" stroke-miterlimit="22.9256"/>
<path fill-rule="evenodd" clip-rule="evenodd" d="M1230.63 114.691L1262.19 114.38L1213.63 190.126L1180.79 191.426L1230.63 114.691Z" stroke="#2B2A29" stroke-width="5" stroke-miterlimit="22.9256"/>
<path fill-rule="evenodd" clip-rule="evenodd" d="M1290.96 115.144L1322.52 114.833L1273.96 190.58L1241.12 191.88L1290.96 115.144Z" stroke="#2B2A29" stroke-width="5" stroke-miterlimit="22.9256"/>
<path fill-rule="evenodd" clip-rule="evenodd" d="M1344.41 114.296L1375.98 113.983L1327.41 189.73L1294.57 191.031L1344.41 114.296Z" stroke="#2B2A29" stroke-width="5" stroke-miterlimit="22.9256"/>
<path fill-rule="evenodd" clip-rule="evenodd" d="M1399.1 114.504L1430.66 114.193L1382.1 189.938L1349.26 191.238L1399.1 114.504Z" stroke="#2B2A29" stroke-width="5" stroke-miterlimit="22.9256"/>
<path fill-rule="evenodd" clip-rule="evenodd" d="M1453.54 114.172L1485.1 113.861L1436.54 189.606L1403.7 190.908L1453.54 114.172Z" stroke="#2B2A29" stroke-width="5" stroke-miterlimit="22.9256"/>
<path fill-rule="evenodd" clip-rule="evenodd" d="M1507.98 114.04L1539.55 113.729L1490.98 189.474L1458.14 190.774L1507.98 114.04Z" stroke="#2B2A29" stroke-width="5" stroke-miterlimit="22.9256"/>
<path fill-rule="evenodd" clip-rule="evenodd" d="M613.668 114.147L645.234 113.836L596.669 189.581L563.828 190.881L613.668 114.147Z" stroke="#2B2A29" stroke-width="5" stroke-miterlimit="22.9256"/>
<path fill-rule="evenodd" clip-rule="evenodd" d="M553.96 113.933L585.526 113.622L536.961 189.368L504.12 190.669L553.96 113.933Z" stroke="#2B2A29" stroke-width="5" stroke-miterlimit="22.9256"/>
<path fill-rule="evenodd" clip-rule="evenodd" d="M669.848 114.911L701.414 114.6L652.849 190.346L620.008 191.646L669.848 114.911Z" stroke="#2B2A29" stroke-width="5" stroke-miterlimit="22.9256"/>
<path fill-rule="evenodd" clip-rule="evenodd" d="M973.409 114.508L1004.97 114.197L956.409 189.944L923.567 191.244L973.409 114.508Z" stroke="#2B2A29" stroke-width="5" stroke-miterlimit="22.9256"/>
<path fill-rule="evenodd" clip-rule="evenodd" d="M496.851 113.338L528.416 113.027L479.852 188.772L447.011 190.072L496.851 113.338Z" stroke="#2B2A29" stroke-width="5" stroke-miterlimit="22.9256"/>
<path fill-rule="evenodd" clip-rule="evenodd" d="M440.469 114.025L472.034 113.714L423.469 189.46L390.627 190.76L440.469 114.025Z" stroke="#2B2A29" stroke-width="5" stroke-miterlimit="22.9256"/>
<path fill-rule="evenodd" clip-rule="evenodd" d="M384.226 113.677L415.792 113.364L367.227 189.111L334.386 190.411L384.226 113.677Z" stroke="#2B2A29" stroke-width="5" stroke-miterlimit="22.9256"/>
<path fill-rule="evenodd" clip-rule="evenodd" d="M895.78 442.086L922.141 441.882L881.584 491.601L854.158 492.455L895.78 442.086Z" stroke="#2B2A29" stroke-width="5" stroke-miterlimit="22.9256"/>
<path fill-rule="evenodd" clip-rule="evenodd" d="M741.838 442.192L768.2 441.987L727.642 491.706L700.216 492.559L741.838 442.192Z" stroke="#2B2A29" stroke-width="5" stroke-miterlimit="22.9256"/>
<path fill-rule="evenodd" clip-rule="evenodd" d="M795.139 441.709L821.5 441.506L790.945 478.961L780.942 491.224L753.516 492.078L795.139 441.709Z" stroke="#2B2A29" stroke-width="5" stroke-miterlimit="22.9256"/>
<path fill-rule="evenodd" clip-rule="evenodd" d="M845.139 442.029L871.499 441.824L830.942 491.544L803.516 492.396L845.139 442.029Z" stroke="#2B2A29" stroke-width="5" stroke-miterlimit="22.9256"/>
<path fill-rule="evenodd" clip-rule="evenodd" d="M1112.66 441.858L1139.02 441.653L1098.46 491.372L1071.03 492.225L1112.66 441.858Z" stroke="#2B2A29" stroke-width="5" stroke-miterlimit="22.9256"/>
<path fill-rule="evenodd" clip-rule="evenodd" d="M1059.53 442.226L1085.89 442.022L1045.33 491.741L1017.9 492.594L1059.53 442.226Z" stroke="#2B2A29" stroke-width="5" stroke-miterlimit="22.9256"/>
<path fill-rule="evenodd" clip-rule="evenodd" d="M1005 441.911L1031.36 441.706L990.798 491.424L963.372 492.278L1005 441.911Z" stroke="#2B2A29" stroke-width="5" stroke-miterlimit="22.9256"/>
<path fill-rule="evenodd" clip-rule="evenodd" d="M412.796 441.308L439.156 441.103L398.598 490.822L371.172 491.675L412.796 441.308Z" stroke="#2B2A29" stroke-width="5" stroke-miterlimit="22.9256"/>
<path fill-rule="evenodd" clip-rule="evenodd" d="M1163.85 441.845L1190.21 441.64L1149.65 491.359L1122.22 492.213L1163.85 441.845Z" stroke="#2B2A29" stroke-width="5" stroke-miterlimit="22.9256"/>
<path fill-rule="evenodd" clip-rule="evenodd" d="M1214.23 442.142L1240.59 441.938L1200.03 491.657L1172.61 492.51L1214.23 442.142Z" stroke="#2B2A29" stroke-width="5" stroke-miterlimit="22.9256"/>
<path fill-rule="evenodd" clip-rule="evenodd" d="M1258.87 441.586L1285.23 441.381L1244.68 491.101L1217.25 491.953L1258.87 441.586Z" stroke="#2B2A29" stroke-width="5" stroke-miterlimit="22.9256"/>
<path fill-rule="evenodd" clip-rule="evenodd" d="M1304.54 441.722L1330.9 441.517L1290.34 491.237L1262.92 492.09L1304.54 441.722Z" stroke="#2B2A29" stroke-width="5" stroke-miterlimit="22.9256"/>
<path fill-rule="evenodd" clip-rule="evenodd" d="M1350 441.504L1376.36 441.299L1335.81 491.018L1308.38 491.872L1350 441.504Z" stroke="#2B2A29" stroke-width="5" stroke-miterlimit="22.9256"/>
<path fill-rule="evenodd" clip-rule="evenodd" d="M1374.01 491.158L1353.85 491.785L1378.06 462.485L1374.01 491.158Z" stroke="#2B2A29" stroke-width="5" stroke-miterlimit="22.9256"/>
<path fill-rule="evenodd" clip-rule="evenodd" d="M648.609 441.487L674.971 441.282L634.413 491.001L606.987 491.855L648.609 441.487Z" stroke="#2B2A29" stroke-width="5" stroke-miterlimit="22.9256"/>
<path fill-rule="evenodd" clip-rule="evenodd" d="M598.745 441.347L625.106 441.144L584.549 490.862L557.122 491.716L598.745 441.347Z" stroke="#2B2A29" stroke-width="5" stroke-miterlimit="22.9256"/>
<path fill-rule="evenodd" clip-rule="evenodd" d="M695.526 441.989L721.887 441.785L681.329 491.504L653.903 492.357L695.526 441.989Z" stroke="#2B2A29" stroke-width="5" stroke-miterlimit="22.9256"/>
<path fill-rule="evenodd" clip-rule="evenodd" d="M949.036 441.725L975.397 441.521L934.84 491.24L907.414 492.093L949.036 441.725Z" stroke="#2B2A29" stroke-width="5" stroke-miterlimit="22.9256"/>
<path fill-rule="evenodd" clip-rule="evenodd" d="M551.052 440.956L577.414 440.752L536.856 490.471L509.429 491.325L551.052 440.956Z" stroke="#2B2A29" stroke-width="5" stroke-miterlimit="22.9256"/>
<path fill-rule="evenodd" clip-rule="evenodd" d="M503.966 441.407L530.326 441.203L489.77 490.922L462.344 491.775L503.966 441.407Z" stroke="#2B2A29" stroke-width="5" stroke-miterlimit="22.9256"/>
<path fill-rule="evenodd" clip-rule="evenodd" d="M456.997 441.178L483.358 440.974L442.8 490.693L415.374 491.547L456.997 441.178Z" stroke="#2B2A29" stroke-width="5" stroke-miterlimit="22.9256"/>
<path fill-rule="evenodd" clip-rule="evenodd" d="M838.221 519.523L864.581 519.319L824.024 569.038L796.598 569.891L838.221 519.523Z" stroke="#2B2A29" stroke-width="5" stroke-miterlimit="22.9256"/>
<path fill-rule="evenodd" clip-rule="evenodd" d="M684.278 519.628L710.64 519.423L670.082 569.143L642.656 569.996L684.278 519.628Z" stroke="#2B2A29" stroke-width="5" stroke-miterlimit="22.9256"/>
<path fill-rule="evenodd" clip-rule="evenodd" d="M737.579 519.146L763.941 518.942L733.386 556.399L723.382 568.661L695.956 569.515L737.579 519.146Z" stroke="#2B2A29" stroke-width="5" stroke-miterlimit="22.9256"/>
<path fill-rule="evenodd" clip-rule="evenodd" d="M1373.18 560.785L1367.83 568.128L1340.4 568.98L1372.29 530.388L1373.18 560.785Z" stroke="#2B2A29" stroke-width="5" stroke-miterlimit="22.9256"/>
<path fill-rule="evenodd" clip-rule="evenodd" d="M787.579 519.465L813.939 519.261L773.383 568.98L745.957 569.834L787.579 519.465Z" stroke="#2B2A29" stroke-width="5" stroke-miterlimit="22.9256"/>
<path fill-rule="evenodd" clip-rule="evenodd" d="M1055.1 519.293L1081.46 519.088L1040.9 568.808L1013.47 569.661L1055.1 519.293Z" stroke="#2B2A29" stroke-width="5" stroke-miterlimit="22.9256"/>
<path fill-rule="evenodd" clip-rule="evenodd" d="M1001.97 519.664L1028.33 519.458L987.77 569.177L960.344 570.031L1001.97 519.664Z" stroke="#2B2A29" stroke-width="5" stroke-miterlimit="22.9256"/>
<path fill-rule="evenodd" clip-rule="evenodd" d="M947.437 519.347L973.797 519.143L933.239 568.862L905.813 569.715L947.437 519.347Z" stroke="#2B2A29" stroke-width="5" stroke-miterlimit="22.9256"/>
<path fill-rule="evenodd" clip-rule="evenodd" d="M355.236 518.744L381.597 518.54L341.038 568.259L313.612 569.111L355.236 518.744Z" stroke="#2B2A29" stroke-width="5" stroke-miterlimit="22.9256"/>
<path fill-rule="evenodd" clip-rule="evenodd" d="M1106.29 519.281L1132.65 519.077L1092.09 568.796L1064.67 569.65L1106.29 519.281Z" stroke="#2B2A29" stroke-width="5" stroke-miterlimit="22.9256"/>
<path fill-rule="evenodd" clip-rule="evenodd" d="M1156.67 519.58L1183.03 519.375L1142.47 569.095L1115.05 569.947L1156.67 519.58Z" stroke="#2B2A29" stroke-width="5" stroke-miterlimit="22.9256"/>
<path fill-rule="evenodd" clip-rule="evenodd" d="M1201.31 519.021L1227.67 518.818L1187.12 568.536L1159.69 569.39L1201.31 519.021Z" stroke="#2B2A29" stroke-width="5" stroke-miterlimit="22.9256"/>
<path fill-rule="evenodd" clip-rule="evenodd" d="M1246.98 519.158L1273.34 518.955L1232.78 568.674L1205.36 569.527L1246.98 519.158Z" stroke="#2B2A29" stroke-width="5" stroke-miterlimit="22.9256"/>
<path fill-rule="evenodd" clip-rule="evenodd" d="M1292.44 518.94L1318.8 518.737L1278.25 568.455L1250.82 569.309L1292.44 518.94Z" stroke="#2B2A29" stroke-width="5" stroke-miterlimit="22.9256"/>
<path fill-rule="evenodd" clip-rule="evenodd" d="M1337.91 518.853L1364.27 518.649L1323.72 568.368L1296.29 569.222L1337.91 518.853Z" stroke="#2B2A29" stroke-width="5" stroke-miterlimit="22.9256"/>
<path fill-rule="evenodd" clip-rule="evenodd" d="M591.049 518.924L617.411 518.721L576.853 568.439L549.427 569.293L591.049 518.924Z" stroke="#2B2A29" stroke-width="5" stroke-miterlimit="22.9256"/>
<path fill-rule="evenodd" clip-rule="evenodd" d="M541.186 518.785L567.546 518.58L526.989 568.3L499.562 569.153L541.186 518.785Z" stroke="#2B2A29" stroke-width="5" stroke-miterlimit="22.9256"/>
<path fill-rule="evenodd" clip-rule="evenodd" d="M637.966 519.426L664.328 519.221L623.769 568.942L596.344 569.794L637.966 519.426Z" stroke="#2B2A29" stroke-width="5" stroke-miterlimit="22.9256"/>
<path fill-rule="evenodd" clip-rule="evenodd" d="M891.477 519.161L917.837 518.958L877.28 568.676L849.854 569.53L891.477 519.161Z" stroke="#2B2A29" stroke-width="5" stroke-miterlimit="22.9256"/>
<path fill-rule="evenodd" clip-rule="evenodd" d="M493.492 518.393L519.854 518.189L479.296 567.908L451.87 568.761L493.492 518.393Z" stroke="#2B2A29" stroke-width="5" stroke-miterlimit="22.9256"/>
<path fill-rule="evenodd" clip-rule="evenodd" d="M446.407 518.845L472.767 518.64L432.21 568.36L404.784 569.212L446.407 518.845Z" stroke="#2B2A29" stroke-width="5" stroke-miterlimit="22.9256"/>
<path fill-rule="evenodd" clip-rule="evenodd" d="M399.437 518.615L425.799 518.41L385.241 568.129L357.815 568.983L399.437 518.615Z" stroke="#2B2A29" stroke-width="5" stroke-miterlimit="22.9256"/>
<path fill-rule="evenodd" clip-rule="evenodd" d="M885.577 595.416L911.939 595.213L871.381 644.931L843.955 645.785L885.577 595.416Z" stroke="#2B2A29" stroke-width="5" stroke-miterlimit="22.9256"/>
<path fill-rule="evenodd" clip-rule="evenodd" d="M731.635 595.522L757.997 595.317L717.439 645.037L690.013 645.89L731.635 595.522Z" stroke="#2B2A29" stroke-width="5" stroke-miterlimit="22.9256"/>
<path fill-rule="evenodd" clip-rule="evenodd" d="M784.936 595.04L811.298 594.836L780.743 632.292L770.74 644.555L743.314 645.408L784.936 595.04Z" stroke="#2B2A29" stroke-width="5" stroke-miterlimit="22.9256"/>
<path fill-rule="evenodd" clip-rule="evenodd" d="M834.937 595.359L861.299 595.155L820.741 644.874L793.314 645.727L834.937 595.359Z" stroke="#2B2A29" stroke-width="5" stroke-miterlimit="22.9256"/>
<path fill-rule="evenodd" clip-rule="evenodd" d="M1102.45 595.187L1128.82 594.982L1088.26 644.702L1060.83 645.554L1102.45 595.187Z" stroke="#2B2A29" stroke-width="5" stroke-miterlimit="22.9256"/>
<path fill-rule="evenodd" clip-rule="evenodd" d="M1049.32 595.557L1075.68 595.352L1035.13 645.07L1007.7 645.924L1049.32 595.557Z" stroke="#2B2A29" stroke-width="5" stroke-miterlimit="22.9256"/>
<path fill-rule="evenodd" clip-rule="evenodd" d="M994.793 595.241L1021.15 595.037L980.597 644.756L953.169 645.61L994.793 595.241Z" stroke="#2B2A29" stroke-width="5" stroke-miterlimit="22.9256"/>
<path fill-rule="evenodd" clip-rule="evenodd" d="M402.593 594.637L428.954 594.432L388.396 644.153L360.969 645.005L402.593 594.637Z" stroke="#2B2A29" stroke-width="5" stroke-miterlimit="22.9256"/>
<path fill-rule="evenodd" clip-rule="evenodd" d="M1153.65 595.175L1180.01 594.971L1139.45 644.69L1112.02 645.544L1153.65 595.175Z" stroke="#2B2A29" stroke-width="5" stroke-miterlimit="22.9256"/>
<path fill-rule="evenodd" clip-rule="evenodd" d="M1204.03 595.474L1230.39 595.269L1189.83 644.989L1162.4 645.841L1204.03 595.474Z" stroke="#2B2A29" stroke-width="5" stroke-miterlimit="22.9256"/>
<path fill-rule="evenodd" clip-rule="evenodd" d="M1248.67 594.916L1275.03 594.712L1234.47 644.431L1207.05 645.284L1248.67 594.916Z" stroke="#2B2A29" stroke-width="5" stroke-miterlimit="22.9256"/>
<path fill-rule="evenodd" clip-rule="evenodd" d="M1294.34 595.052L1320.7 594.849L1280.14 644.567L1252.71 645.421L1294.34 595.052Z" stroke="#2B2A29" stroke-width="5" stroke-miterlimit="22.9256"/>
<path fill-rule="evenodd" clip-rule="evenodd" d="M1339.8 594.835L1366.16 594.631L1325.6 644.35L1298.18 645.203L1339.8 594.835Z" stroke="#2B2A29" stroke-width="5" stroke-miterlimit="22.9256"/>
<path fill-rule="evenodd" clip-rule="evenodd" d="M1384.13 628.255L1371.07 644.262L1343.65 645.115L1374.74 607.491L1384.13 628.255Z" stroke="#2B2A29" stroke-width="5" stroke-miterlimit="22.9256"/>
<path fill-rule="evenodd" clip-rule="evenodd" d="M638.406 594.817L664.768 594.614L624.21 644.332L596.784 645.186L638.406 594.817Z" stroke="#2B2A29" stroke-width="5" stroke-miterlimit="22.9256"/>
<path fill-rule="evenodd" clip-rule="evenodd" d="M588.543 594.678L614.903 594.473L574.347 644.192L546.92 645.045L588.543 594.678Z" stroke="#2B2A29" stroke-width="5" stroke-miterlimit="22.9256"/>
<path fill-rule="evenodd" clip-rule="evenodd" d="M685.323 595.32L711.684 595.115L671.126 644.835L643.7 645.687L685.323 595.32Z" stroke="#2B2A29" stroke-width="5" stroke-miterlimit="22.9256"/>
<path fill-rule="evenodd" clip-rule="evenodd" d="M938.833 595.055L965.195 594.852L924.637 644.57L897.211 645.424L938.833 595.055Z" stroke="#2B2A29" stroke-width="5" stroke-miterlimit="22.9256"/>
<path fill-rule="evenodd" clip-rule="evenodd" d="M540.851 594.286L567.212 594.083L526.654 643.801L499.228 644.655L540.851 594.286Z" stroke="#2B2A29" stroke-width="5" stroke-miterlimit="22.9256"/>
<path fill-rule="evenodd" clip-rule="evenodd" d="M493.763 594.738L520.125 594.533L479.567 644.253L452.141 645.106L493.763 594.738Z" stroke="#2B2A29" stroke-width="5" stroke-miterlimit="22.9256"/>
<path fill-rule="evenodd" clip-rule="evenodd" d="M446.794 594.509L473.156 594.304L432.598 644.023L405.172 644.877L446.794 594.509Z" stroke="#2B2A29" stroke-width="5" stroke-miterlimit="22.9256"/>
<path d="M755.477 334.948C790.882 318.676 810.788 286.35 799.94 262.747C789.091 239.144 751.596 233.202 716.191 249.475C680.787 265.748 660.88 298.073 671.729 321.676C682.577 345.279 720.073 351.221 755.477 334.948Z" stroke="#2B2A29" stroke-width="5" stroke-miterlimit="22.9256"/>
<path d="M671.729 321.677C683.006 320.179 694.282 318.682 704.968 313.772C715.652 308.86 725.743 300.535 735.793 293.484C745.843 286.431 755.853 280.649 767.012 277.569C778.17 274.489 790.478 274.111 802.787 273.731" stroke="#2B2A29" stroke-width="5" stroke-miterlimit="22.9256"/>
<path d="M355.532 319.442C382.487 307.052 397.643 282.441 389.383 264.471C381.124 246.501 352.577 241.977 325.622 254.367C298.667 266.756 283.511 291.367 291.77 309.337C300.03 327.307 328.577 331.831 355.532 319.442Z" stroke="#2B2A29" stroke-width="5" stroke-miterlimit="22.9256"/>
<path d="M291.771 309.337C300.356 308.198 308.942 307.057 317.076 303.318C325.21 299.58 332.894 293.241 340.546 287.872C348.198 282.503 355.818 278.102 364.315 275.756C372.81 273.411 382.18 273.123 391.551 272.834" stroke="#2B2A29" stroke-width="5" stroke-miterlimit="22.9256"/>
<path d="M947.752 333.989C983.156 317.716 1003.06 285.39 992.215 261.787C981.366 238.184 943.871 232.242 908.466 248.515C873.061 264.788 853.155 297.114 864.003 320.717C874.852 344.319 912.347 350.262 947.752 333.989Z" stroke="#2B2A29" stroke-width="5" stroke-miterlimit="22.9256"/>
<path d="M864.01 320.716C875.288 319.218 886.565 317.722 897.249 312.811C907.933 307.9 918.025 299.576 928.076 292.523C938.125 285.47 948.135 279.69 959.295 276.608C970.453 273.528 982.76 273.15 995.069 272.771" stroke="#2B2A29" stroke-width="5" stroke-miterlimit="22.9256"/>
<path d="M553.461 333.946C588.865 317.674 608.772 285.348 597.924 261.745C587.075 238.142 549.58 232.2 514.175 248.473C478.77 264.746 458.864 297.071 469.712 320.674C480.561 344.277 518.056 350.219 553.461 333.946Z" stroke="#2B2A29" stroke-width="5" stroke-miterlimit="22.9256"/>
<path d="M469.712 320.676C480.99 319.178 492.267 317.681 502.951 312.769C513.635 307.859 523.727 299.534 533.778 292.481C543.827 285.428 553.837 279.648 564.997 276.566C576.155 273.486 588.462 273.108 600.771 272.73" stroke="#2B2A29" stroke-width="5" stroke-miterlimit="22.9256"/>
<path d="M1126 334.994C1161.4 318.721 1181.31 286.396 1170.46 262.793C1159.61 239.19 1122.12 233.248 1086.71 249.521C1051.31 265.794 1031.4 298.119 1042.25 321.722C1053.1 345.325 1090.59 351.267 1126 334.994Z" stroke="#2B2A29" stroke-width="5" stroke-miterlimit="22.9256"/>
<path d="M1042.25 321.722C1053.52 320.225 1064.8 318.727 1075.49 313.816C1086.17 308.906 1096.26 300.581 1106.31 293.528C1116.36 286.476 1126.37 280.695 1137.53 277.613C1148.69 274.533 1161 274.155 1173.31 273.777" stroke="#2B2A29" stroke-width="5" stroke-miterlimit="22.9256"/>
<path d="M1495.03 326.32C1521.99 313.93 1537.14 289.319 1528.88 271.349C1520.62 253.379 1492.08 248.855 1465.12 261.245C1438.17 273.634 1423.01 298.245 1431.27 316.215C1439.53 334.185 1468.08 338.709 1495.03 326.32Z" stroke="#2B2A29" stroke-width="5" stroke-miterlimit="22.9256"/>
<path d="M1431.27 316.215C1439.85 315.074 1448.44 313.935 1456.57 310.196C1464.71 306.458 1472.39 300.119 1480.04 294.75C1487.69 289.381 1495.31 284.98 1503.81 282.633C1512.31 280.289 1521.67 280.001 1531.05 279.712" stroke="#2B2A29" stroke-width="5" stroke-miterlimit="22.9256"/>
<path d="M203.138 319.74C230.093 307.351 245.249 282.74 236.989 264.77C228.73 246.8 200.183 242.276 173.228 254.665C146.273 267.054 131.117 291.665 139.376 309.635C147.636 327.605 176.183 332.129 203.138 319.74Z" stroke="#2B2A29" stroke-width="5" stroke-miterlimit="22.9256"/>
<path d="M139.377 309.636C147.963 308.495 156.549 307.355 164.683 303.617C172.817 299.877 180.5 293.54 188.153 288.17C195.804 282.8 203.425 278.399 211.922 276.054C220.417 273.709 229.787 273.42 239.158 273.133" stroke="#2B2A29" stroke-width="5" stroke-miterlimit="22.9256"/>
<path d="M173.443 374.017C198.018 368.029 224.578 350.229 248.897 354.993C281.061 361.294 302.173 373.236 342.016 373.236C381.858 373.236 396.043 355.357 435.134 354.993C474.223 354.629 489.857 371.498 528.252 371.498C566.647 371.498 581.149 354.256 621.371 354.993C661.591 355.729 676.675 374.973 718.057 374.973C759.44 374.973 768.195 355.912 807.606 354.993C847.016 354.074 866.579 370.629 904.293 370.629C942.006 370.629 956.042 354.816 993.843 354.993C1031.64 355.17 1050.35 371.498 1088.75 371.498C1127.14 371.498 1139.89 354.542 1180.08 354.993C1220.27 355.443 1241.86 373.67 1282.12 373.67C1322.38 373.67 1326.65 355.18 1366.31 354.993C1405.98 354.807 1427.07 372.801 1466.57 372.801C1506.07 372.801 1527.96 359.466 1556.62 353.53" stroke="#2B2A29" stroke-width="7" stroke-miterlimit="22.9256"/>
<path d="M1300.8 327.181C1327.75 314.792 1342.91 290.181 1334.65 272.211C1326.39 254.241 1297.84 249.717 1270.89 262.106C1243.93 274.495 1228.78 299.106 1237.04 317.076C1245.3 335.046 1273.84 339.57 1300.8 327.181Z" stroke="#2B2A29" stroke-width="5" stroke-miterlimit="22.9256"/>
<path d="M1237.03 317.075C1245.62 315.935 1254.2 314.796 1262.34 311.056C1270.47 307.317 1278.15 300.98 1285.81 295.61C1293.46 290.24 1301.08 285.839 1309.58 283.493C1318.07 281.148 1327.44 280.861 1336.81 280.572" stroke="#2B2A29" stroke-width="5" stroke-miterlimit="22.9256"/>
<path d="M1394.62 401.382C1411.13 396.154 1427.64 390.925 1445.22 388.14C1462.79 385.353 1481.42 385.007 1497.3 381.557C1513.17 378.106 1526.28 371.551 1535.71 366.362C1545.13 361.172 1550.88 357.352 1556.62 353.53" stroke="#2B2A29" stroke-width="7" stroke-miterlimit="22.9256"/>
<path fill-rule="evenodd" clip-rule="evenodd" d="M320.127 441.29L346.487 441.085L305.929 490.803L278.503 491.657L320.127 441.29Z" stroke="#2B2A29" stroke-width="5" stroke-miterlimit="22.9256"/>
<path fill-rule="evenodd" clip-rule="evenodd" d="M366.613 440.889L392.974 440.684L352.416 490.403L324.99 491.256L366.613 440.889Z" stroke="#2B2A29" stroke-width="5" stroke-miterlimit="22.9256"/>
<path fill-rule="evenodd" clip-rule="evenodd" d="M270.292 440.871L296.653 440.666L256.095 490.384L228.668 491.238L270.292 440.871Z" stroke="#2B2A29" stroke-width="5" stroke-miterlimit="22.9256"/>
<path fill-rule="evenodd" clip-rule="evenodd" d="M223.056 441.047L249.417 440.842L208.859 490.56L186.131 491.269L183.592 488.803L223.056 441.047Z" stroke="#2B2A29" stroke-width="5" stroke-miterlimit="22.9256"/>
<path fill-rule="evenodd" clip-rule="evenodd" d="M173.388 441.039L199.748 440.833C189.791 453.041 180.521 462.853 170.563 475.059L161.5 455.422L173.388 441.039Z" stroke="#2B2A29" stroke-width="5" stroke-miterlimit="22.9256"/>
<path fill-rule="evenodd" clip-rule="evenodd" d="M307.46 518.993L333.82 518.79L293.262 568.508L265.836 569.361L307.46 518.993Z" stroke="#2B2A29" stroke-width="5" stroke-miterlimit="22.9256"/>
<path fill-rule="evenodd" clip-rule="evenodd" d="M260.235 519.138L286.596 518.934L253.704 559.258L238.939 544.911L260.235 519.138Z" stroke="#2B2A29" stroke-width="5" stroke-miterlimit="22.9256"/>
<path fill-rule="evenodd" clip-rule="evenodd" d="M214.812 518.835L241.172 518.631L228.56 534.092L214.812 518.835Z" stroke="#2B2A29" stroke-width="5" stroke-miterlimit="22.9256"/>
<path fill-rule="evenodd" clip-rule="evenodd" d="M353.958 594.79L380.318 594.585L339.76 644.306L321.983 644.858C321.94 643.222 322.192 640.38 321.64 639.006L320.254 635.575L353.958 594.79Z" stroke="#2B2A29" stroke-width="5" stroke-miterlimit="22.9256"/>
<path fill-rule="evenodd" clip-rule="evenodd" d="M304.49 594.67L330.85 594.465L309.734 620.354L296.01 604.933L304.49 594.67Z" stroke="#2B2A29" stroke-width="5" stroke-miterlimit="22.9256"/>
</svg>
