<?xml version="1.0" standalone="no"?>
<!DOCTYPE svg PUBLIC "-//W3C//DTD SVG 20010904//EN"
 "http://www.w3.org/TR/2001/REC-SVG-20010904/DTD/svg10.dtd">
<svg version="1.0" xmlns="http://www.w3.org/2000/svg"
 width="344.000000pt" height="344.000000pt" viewBox="0 0 344.000000 344.000000"
 preserveAspectRatio="xMidYMid meet">

<g transform="translate(0.000000,344.000000) scale(0.100000,-0.100000)"
fill="#000000" stroke="none">
<path d="M1471 2999 c-38 -36 -51 -81 -51 -181 0 -71 5 -103 20 -137 12 -26
20 -65 20 -98 0 -47 -4 -59 -30 -84 l-30 -30 -302 3 c-233 2 -308 0 -326 -10
-25 -14 -60 -80 -87 -161 -23 -69 -23 -224 -1 -431 42 -394 161 -1285 177
-1327 7 -18 16 -23 46 -23 49 0 224 43 288 70 59 26 121 28 163 6 38 -20 59
-49 73 -101 33 -121 143 -164 419 -165 73 0 93 4 145 29 95 45 129 96 141 208
8 84 22 119 51 138 28 19 46 18 173 -10 99 -21 236 -24 255 -4 11 10 23 121
49 449 47 582 80 1112 72 1155 -10 51 -56 98 -128 130 -57 26 -76 29 -193 32
-231 6 -355 19 -384 41 l-26 19 -5 205 c-5 217 -4 210 -59 271 l-25 27 -211 0
c-202 0 -212 -1 -234 -21z m446 -4 c12 -8 31 -30 42 -49 19 -29 21 -49 21
-165 0 -131 0 -132 -27 -158 -53 -50 -109 -68 -208 -68 -85 0 -95 2 -177 42
-75 36 -90 47 -108 83 -19 38 -21 56 -18 157 l3 115 33 29 32 29 193 0 c155 0
197 -3 214 -15z m-357 -413 c142 -69 285 -64 388 14 l34 26 -4 -23 c-4 -29
-82 -84 -141 -100 -23 -6 -74 -9 -114 -7 -58 4 -88 13 -157 46 -68 33 -86 46
-86 62 0 12 3 20 8 18 4 -2 36 -18 72 -36z m0 -60 c117 -57 230 -64 330 -21
25 11 55 30 67 41 13 12 23 17 23 11 0 -18 -46 -60 -91 -85 -38 -20 -58 -23
-144 -23 -98 0 -103 1 -180 40 -51 25 -81 47 -83 59 -2 10 0 16 5 14 4 -2 37
-18 73 -36z m486 -50 c18 -10 182 -23 436 -35 57 -3 90 -11 130 -30 84 -41
102 -66 106 -145 5 -80 -26 -570 -72 -1141 -29 -368 -33 -404 -51 -418 -11 -7
-31 -13 -45 -11 -23 3 -25 7 -22 43 2 22 32 373 68 780 62 721 64 741 46 764
-10 14 -32 29 -48 33 -51 15 -419 -33 -514 -67 -85 -30 -116 -87 -65 -121 30
-19 34 -19 265 30 96 20 191 36 210 34 35 -3 35 -4 38 -53 1 -27 -22 -355 -53
-729 -30 -373 -55 -684 -55 -692 0 -8 -7 -14 -15 -14 -8 0 -15 7 -15 16 0 21
88 1273 95 1347 5 66 -6 97 -36 97 -28 0 -39 -37 -39 -128 0 -42 -13 -273 -30
-513 -16 -240 -35 -518 -41 -618 -9 -134 -16 -181 -25 -181 -7 0 -15 4 -19 9
-4 8 51 834 88 1322 3 30 1 63 -5 72 -11 20 -41 22 -55 5 -6 -7 -13 -83 -17
-168 -10 -242 -74 -1212 -81 -1218 -3 -3 -13 2 -22 11 -16 16 -14 59 30 675
26 363 45 667 41 676 -3 9 -17 16 -30 16 -33 0 -44 -32 -44 -133 0 -45 -14
-293 -30 -552 -16 -258 -30 -487 -30 -507 0 -45 -14 -49 -28 -9 -7 21 -6 92 4
238 38 565 54 803 59 851 6 63 -7 95 -38 90 -21 -3 -22 -10 -30 -123 -22 -346
-58 -839 -62 -843 -8 -9 -45 138 -56 226 -17 138 -34 116 -33 -44 2 -203 63
-470 144 -634 23 -48 26 -62 20 -110 -3 -31 -9 -48 -13 -40 -6 13 -63 219
-100 359 -7 25 -19 47 -26 49 -20 7 -10 -118 29 -347 28 -165 29 -186 16 -200
-9 -8 -17 -13 -19 -10 -3 2 -26 126 -52 274 -26 149 -49 272 -51 274 -14 15
-11 -22 11 -145 14 -76 25 -146 25 -155 0 -19 -57 -49 -93 -49 -48 0 -53 17
-60 181 -6 140 -10 169 -21 158 -2 -2 3 -121 10 -264 8 -143 13 -273 12 -288
-3 -25 -5 -26 -20 -15 -14 11 -18 52 -29 273 -6 143 -16 269 -20 280 -6 12 -7
-5 -4 -45 2 -36 6 -108 7 -160 l3 -95 -42 -14 c-31 -11 -50 -12 -70 -5 l-28
10 2 164 c4 237 -12 169 -27 -120 -7 -135 -14 -247 -16 -249 -2 -2 -11 -1 -20
3 -14 5 -15 16 -10 69 12 121 26 333 26 399 0 59 -11 90 -27 75 -4 -5 -72
-367 -73 -391 0 -6 -5 -5 -11 1 -8 8 -5 34 10 94 35 142 43 247 38 457 -5 184
-18 292 -36 292 -5 0 -11 -66 -14 -147 -3 -82 -11 -177 -18 -213 l-13 -65 -17
250 c-9 138 -22 363 -29 500 -6 138 -15 277 -18 310 -6 55 -9 60 -33 63 -17 2
-29 -3 -33 -14 -3 -9 15 -313 41 -675 43 -611 45 -661 31 -692 l-16 -32 -5 35
c-6 35 -74 1130 -80 1293 -4 101 -18 128 -57 107 -22 -12 -22 -16 -16 -104 9
-136 85 -1187 92 -1287 6 -77 4 -87 -12 -93 -9 -4 -20 -3 -24 1 -7 8 -77 1074
-86 1308 -6 161 -11 192 -29 199 -20 7 -42 -2 -49 -20 -5 -12 81 -1278 99
-1460 6 -56 5 -62 -14 -67 -17 -4 -21 1 -25 27 -8 49 -86 1312 -87 1401 -1
103 -9 129 -38 133 -34 5 -42 -14 -36 -88 3 -36 26 -357 50 -715 24 -357 47
-680 51 -718 5 -57 4 -67 -10 -67 -9 0 -16 8 -16 18 0 9 -11 152 -25 317 -56
686 -95 1187 -95 1234 0 40 4 51 19 56 18 5 275 -41 395 -71 47 -12 65 -13 87
-4 56 23 46 85 -19 116 -43 20 -180 48 -337 69 -190 24 -245 19 -266 -28 -8
-17 8 -227 60 -822 39 -440 73 -824 76 -852 6 -51 6 -53 -19 -53 -14 0 -27 4
-30 8 -15 25 -155 1099 -183 1409 -20 221 -14 299 32 401 48 107 29 102 387
102 l309 0 26 26 25 25 72 -35 c94 -46 182 -61 267 -46 64 11 134 44 159 75
12 14 15 14 34 -3 12 -11 30 -24 42 -30z m575 -191 l23 -18 -22 -249 c-12
-137 -42 -487 -67 -779 -25 -291 -50 -534 -54 -538 -5 -5 -21 -5 -37 0 l-30 8
60 733 c57 706 58 733 41 752 -25 27 -47 26 -247 -17 -95 -20 -195 -37 -223
-37 -47 -1 -50 1 -53 26 -6 51 62 76 305 113 201 30 273 31 304 6z m-1516 -10
c249 -37 330 -66 323 -114 -5 -34 -31 -43 -90 -29 -194 43 -347 72 -385 72
-36 0 -45 -4 -54 -24 -9 -18 4 -212 53 -817 36 -437 62 -797 59 -801 -3 -4
-19 -8 -36 -10 l-29 -3 -73 815 c-39 448 -72 834 -72 857 -1 61 16 73 102 73
40 0 131 -9 202 -19z m-92 -292 c4 -85 25 -435 47 -778 22 -344 38 -627 35
-629 -14 -14 -20 23 -31 171 -49 657 -96 1368 -90 1382 3 9 12 15 19 13 8 -3
14 -50 20 -159z m1457 134 c0 -41 -89 -1311 -96 -1360 -3 -28 -10 -43 -20 -43
-11 0 -13 11 -9 53 9 79 73 1064 80 1217 7 153 9 160 30 160 10 0 15 -10 15
-27z m-104 3 c5 -13 -80 -1250 -92 -1345 -4 -30 -9 -40 -16 -33 -7 7 1 186 26
574 19 309 38 617 42 683 4 66 8 123 11 128 7 12 23 8 29 -7z m-1253 -142 c4
-76 25 -413 47 -749 25 -379 36 -613 30 -619 -13 -13 -18 6 -24 109 -3 50 -26
379 -52 733 -25 353 -43 649 -40 658 3 9 12 14 19 12 8 -3 14 -47 20 -144z
m1108 -486 c-46 -660 -48 -685 -63 -670 -7 7 2 200 26 584 20 315 36 601 36
635 0 60 12 82 34 62 6 -5 -7 -240 -33 -611z m-999 462 c4 -80 23 -407 44
-728 20 -320 34 -585 31 -589 -4 -3 -9 -4 -12 -1 -7 6 -105 1335 -105 1416 0
46 3 53 18 50 15 -3 18 -21 24 -148z m95 95 c1 -17 16 -286 34 -600 28 -494
31 -641 14 -623 -2 2 -13 148 -25 323 -11 176 -30 441 -40 588 -25 339 -25
349 -2 345 11 -2 18 -14 19 -33z m843 11 c0 -44 -60 -940 -66 -996 l-7 -55
-12 30 c-11 25 -9 90 11 375 13 190 26 413 29 495 4 83 8 156 10 163 8 23 35
13 35 -12z m-113 -996 c26 -80 68 -187 94 -238 l46 -93 -29 -31 c-17 -18 -33
-27 -38 -22 -49 52 -151 466 -149 607 l1 52 14 -65 c7 -36 35 -130 61 -210z
m-586 -140 c-10 -134 -38 -310 -52 -325 -3 -2 -24 5 -47 16 l-41 21 19 37 c36
71 86 313 107 521 l7 75 9 -95 c6 -61 5 -151 -2 -250z m49 -303 c-7 -103 -16
-190 -20 -192 -4 -2 -15 11 -25 29 -18 33 -17 37 16 231 40 231 47 214 29 -68z
m540 52 c51 -183 51 -187 35 -219 -9 -18 -20 -28 -25 -24 -10 11 -70 376 -69
419 1 36 -4 50 59 -176z m-110 -124 c-34 -41 -140 -37 -140 5 0 17 7 20 48 20
26 1 58 7 72 15 23 12 25 12 28 -6 2 -11 -2 -27 -8 -34z m-303 23 c16 0 43 2
61 6 24 6 32 4 32 -7 0 -37 -72 -64 -126 -47 -27 9 -34 17 -34 36 0 21 4 24
20 19 11 -3 32 -7 47 -7z m323 -58 c0 -23 -7 -33 -30 -45 -50 -26 -130 -14
-130 19 0 9 19 15 60 18 39 3 67 10 77 21 23 22 23 22 23 -13z m-230 -9 c0
-28 -38 -51 -83 -51 -47 0 -77 15 -77 39 0 15 7 17 54 13 29 -2 62 1 72 7 27
15 34 14 34 -8z m252 -96 c3 -38 2 -39 -37 -51 -22 -7 -61 -13 -87 -13 -46 -1
-48 0 -48 27 0 15 -3 37 -6 50 -6 22 -5 23 42 17 37 -5 58 -1 84 12 40 21 46
16 52 -42z m-242 -6 c0 -47 -1 -49 -29 -49 -41 0 -134 19 -144 29 -5 5 -6 23
-2 40 6 27 9 29 31 20 35 -13 74 -11 104 5 35 18 40 12 40 -45z"/>
<path d="M1506 2938 c-40 -35 -43 -78 -11 -116 54 -64 155 -29 155 53 0 75
-87 113 -144 63z m118 -31 c16 -22 17 -30 7 -56 -16 -38 -62 -58 -97 -43 -55
26 -57 103 -2 127 38 16 65 7 92 -28z"/>
<path d="M1527 2899 c-20 -28 -10 -58 21 -66 31 -7 56 7 60 36 7 48 -53 70
-81 30z m67 -15 c7 -19 -10 -44 -29 -44 -19 0 -38 28 -31 45 7 20 52 19 60 -1z"/>
<path d="M1803 2950 c-43 -17 -63 -67 -63 -157 0 -71 -3 -84 -20 -93 -16 -9
-23 -5 -41 20 -13 16 -32 30 -43 30 -29 0 -96 -50 -96 -71 0 -25 11 -24 72 7
45 23 52 24 60 10 10 -19 41 -21 66 -5 14 9 25 8 50 -5 40 -21 82 -21 82 -1 0
18 -52 52 -92 60 -26 6 -28 10 -27 53 1 26 4 58 8 72 7 25 8 24 15 -7 24 -103
176 -92 176 12 0 69 -72 105 -147 75z m121 -43 c16 -22 17 -30 7 -56 -16 -37
-57 -56 -94 -42 -58 22 -61 102 -5 126 38 16 65 7 92 -28z m-276 -182 c-2 -1
-23 -13 -48 -25 l-45 -23 20 23 c22 24 55 41 68 33 5 -3 7 -6 5 -8z m171 -16
c18 -11 31 -22 29 -25 -5 -5 -98 34 -98 41 0 12 38 3 69 -16z"/>
<path d="M1826 2898 c-13 -19 -14 -25 -2 -43 26 -40 86 -27 86 19 0 47 -57 63
-84 24z m67 -10 c6 -18 -11 -48 -27 -48 -20 0 -39 27 -32 45 7 18 52 20 59 3z"/>
<path d="M1505 2002 c-122 -12 -117 -79 7 -89 97 -8 168 30 124 66 -17 14 -91
27 -131 23z m94 -23 c60 -21 24 -49 -63 -49 -62 0 -110 15 -101 31 18 28 107
38 164 18z"/>
<path d="M1810 1987 c-63 -32 -10 -77 90 -77 100 0 153 45 90 77 -32 16 -148
16 -180 0z m159 -8 c62 -22 23 -49 -69 -49 -92 0 -133 30 -67 49 45 13 98 13
136 0z"/>
<path d="M1645 1633 c-58 -15 -84 -65 -50 -93 13 -11 26 -10 74 5 51 15 66 16
111 5 45 -11 54 -10 67 3 38 38 -32 87 -122 86 -33 -1 -69 -4 -80 -6z m155
-21 c19 -9 37 -25 38 -36 4 -17 0 -18 -45 -11 -59 10 -108 8 -133 -5 -43 -23
-84 -4 -58 27 35 43 137 56 198 25z"/>
</g>
</svg>
